{
  "accessors": [
    {
      "bufferView": 2,
      "componentType": 5126,
      "count": 27367,
      "max": [
        18.266677856445313,
        11.551965713500977,
        16.701326370239258
      ],
      "min": [
        -9.734626770019531,
        -6.487634658813477,
        -11.927045822143555
      ],
      "type": "VEC3"
    },
    {
      "bufferView": 2,
      "byteOffset": 328404,
      "componentType": 5126,
      "count": 27367,
      "max": [
        0.9999843239784241,
        0.9999572038650513,
        0.9999940395355225
      ],
      "min": [
        -0.9999895691871643,
        -0.9992721080780029,
        -0.9999775886535645
      ],
      "type": "VEC3"
    },
    {
      "bufferView": 1,
      "componentType": 5126,
      "count": 27367,
      "max": [
        0.26181119680404663,
        0.5238184332847595
      ],
      "min": [
        0.26181116700172424,
        0.5238183736801147
      ],
      "type": "VEC2"
    },
    {
      "bufferView": 0,
      "componentType": 5125,
      "count": 29673,
      "type": "SCALAR"
    },
    {
      "bufferView": 2,
      "byteOffset": 656808,
      "componentType": 5126,
      "count": 2155,
      "max": [
        2.406956911087036,
        6.963136672973633,
        10.84110164642334
      ],
      "min": [
        -3.5979533195495605,
        -4.195671081542969,
        -4.8733229637146
      ],
      "type": "VEC3"
    },
    {
      "bufferView": 2,
      "byteOffset": 682668,
      "componentType": 5126,
      "count": 2155,
      "max": [
        0.9999982118606567,
        0.9996326565742493,
        0.9999930262565613
      ],
      "min": [
        -0.999999463558197,
        -0.9999964833259583,
        -0.9999998211860657
      ],
      "type": "VEC3"
    },
    {
      "bufferView": 1,
      "byteOffset": 218936,
      "componentType": 5126,
      "count": 2155,
      "max": [
        0.9445455074310303,
        0.5
      ],
      "min": [
        0.9445455074310303,
        0.5
      ],
      "type": "VEC2"
    },
    {
      "bufferView": 0,
      "byteOffset": 118692,
      "componentType": 5125,
      "count": 2229,
      "type": "SCALAR"
    },
    {
      "bufferView": 2,
      "byteOffset": 708528,
      "componentType": 5126,
      "count": 3055,
      "max": [
        3.143209457397461,
        6.876061916351318,
        7.6004743576049805
      ],
      "min": [
        -3.943765163421631,
        -3.857846975326538,
        -6.036556243896484
      ],
      "type": "VEC3"
    },
    {
      "bufferView": 2,
      "byteOffset": 745188,
      "componentType": 5126,
      "count": 3055,
      "max": [
        0.9999843239784241,
        0.9999572038650513,
        0.9999942779541016
      ],
      "min": [
        -0.9999770522117615,
        -0.9981476068496704,
        -0.9999814629554749
      ],
      "type": "VEC3"
    },
    {
      "bufferView": 1,
      "byteOffset": 236176,
      "componentType": 5126,
      "count": 3055,
      "max": [
        0.879179835319519,
        0.42942988872528076
      ],
      "min": [
        0.879179835319519,
        0.42942988872528076
      ],
      "type": "VEC2"
    },
    {
      "bufferView": 0,
      "byteOffset": 127608,
      "componentType": 5125,
      "count": 3333,
      "type": "SCALAR"
    },
    {
      "bufferView": 2,
      "byteOffset": 781848,
      "componentType": 5126,
      "count": 102,
      "max": [
        0.7099475860595703,
        0.620616614818573,
        0.698275089263916
      ],
      "min": [
        -0.6802120208740234,
        -0.6556587815284729,
        -0.7248702049255371
      ],
      "type": "VEC3"
    },
    {
      "bufferView": 2,
      "byteOffset": 783072,
      "componentType": 5126,
      "count": 102,
      "max": [
        0.9455615282058716,
        0.8768423199653625,
        0.9152182340621948
      ],
      "min": [
        -0.9694527387619019,
        -0.9998024702072144,
        -0.9850016236305237
      ],
      "type": "VEC3"
    },
    {
      "bufferView": 1,
      "byteOffset": 260616,
      "componentType": 5126,
      "count": 102,
      "max": [
        0.8151418566703796,
        0.5011821389198303
      ],
      "min": [
        0.8126340508460999,
        0.4987460672855377
      ],
      "type": "VEC2"
    },
    {
      "bufferView": 0,
      "byteOffset": 140940,
      "componentType": 5125,
      "count": 144,
      "type": "SCALAR"
    },
    {
      "bufferView": 2,
      "byteOffset": 784296,
      "componentType": 5126,
      "count": 132,
      "max": [
        0.8396272659301758,
        0.9243344068527222,
        0.6213114261627197
      ],
      "min": [
        -0.7465829849243164,
        -0.5960606336593628,
        -0.7524616718292236
      ],
      "type": "VEC3"
    },
    {
      "bufferView": 2,
      "byteOffset": 785880,
      "componentType": 5126,
      "count": 132,
      "max": [
        0.9378209710121155,
        0.9176816344261169,
        0.987829327583313
      ],
      "min": [
        -0.9852750897407532,
        -0.9995307326316833,
        -0.9795932173728943
      ],
      "type": "VEC3"
    },
    {
      "bufferView": 1,
      "byteOffset": 261432,
      "componentType": 5126,
      "count": 132,
      "max": [
        0.8150679469108582,
        0.501179575920105
      ],
      "min": [
        0.8126340508460999,
        0.4987460672855377
      ],
      "type": "VEC2"
    },
    {
      "bufferView": 0,
      "byteOffset": 141516,
      "componentType": 5125,
      "count": 132,
      "type": "SCALAR"
    },
    {
      "bufferView": 2,
      "byteOffset": 787464,
      "componentType": 5126,
      "count": 182,
      "max": [
        0.9341573715209961,
        0.8025469183921814,
        0.6075677871704102
      ],
      "min": [
        -0.8853168487548828,
        -0.7154660820960999,
        -0.5406546592712402
      ],
      "type": "VEC3"
    },
    {
      "bufferView": 2,
      "byteOffset": 789648,
      "componentType": 5126,
      "count": 182,
      "max": [
        0.9480902552604675,
        0.9950562715530396,
        0.9981923699378967
      ],
      "min": [
        -0.9826494455337524,
        -0.9967733025550842,
        -0.9975062608718872
      ],
      "type": "VEC3"
    },
    {
      "bufferView": 1,
      "byteOffset": 262488,
      "componentType": 5126,
      "count": 182,
      "max": [
        0.8151209354400635,
        0.5010360479354858
      ],
      "min": [
        0.8126340508460999,
        0.4987460672855377
      ],
      "type": "VEC2"
    },
    {
      "bufferView": 0,
      "byteOffset": 142044,
      "componentType": 5125,
      "count": 264,
      "type": "SCALAR"
    },
    {
      "bufferView": 2,
      "byteOffset": 791832,
      "componentType": 5126,
      "count": 116,
      "max": [
        0.6592512130737305,
        0.22838926315307617,
        0.8666086196899414
      ],
      "min": [
        -1.0808076858520508,
        -0.24906949698925018,
        -0.8590145111083984
      ],
      "type": "VEC3"
    },
    {
      "bufferView": 2,
      "byteOffset": 793224,
      "componentType": 5126,
      "count": 116,
      "max": [
        0.9756850004196167,
        0.9957128763198853,
        0.8640104532241821
      ],
      "min": [
        -0.920089602470398,
        -0.9961574673652649,
        -0.814096987247467
      ],
      "type": "VEC3"
    },
    {
      "bufferView": 1,
      "byteOffset": 263944,
      "componentType": 5126,
      "count": 116,
      "max": [
        0.8151418566703796,
        0.5011821389198303
      ],
      "min": [
        0.8126365542411804,
        0.4987486004829407
      ],
      "type": "VEC2"
    },
    {
      "bufferView": 0,
      "byteOffset": 143100,
      "componentType": 5125,
      "count": 174,
      "type": "SCALAR"
    },
    {
      "bufferView": 2,
      "byteOffset": 794616,
      "componentType": 5126,
      "count": 156,
      "max": [
        0.40698814392089844,
        1.102768898010254,
        0.42595624923706055
      ],
      "min": [
        -0.43676185607910156,
        -0.5198709964752197,
        -0.4222378730773926
      ],
      "type": "VEC3"
    },
    {
      "bufferView": 2,
      "byteOffset": 796488,
      "componentType": 5126,
      "count": 156,
      "max": [
        0.9986526370048523,
        0.9562721848487854,
        0.9825263023376465
      ],
      "min": [
        -0.9761418104171753,
        -0.9963399171829224,
        -0.9999045729637146
      ],
      "type": "VEC3"
    },
    {
      "bufferView": 1,
      "byteOffset": 264872,
      "componentType": 5126,
      "count": 156,
      "max": [
        0.8151393532752991,
        0.5012539029121399
      ],
      "min": [
        0.8129297494888306,
        0.4987460672855377
      ],
      "type": "VEC2"
    },
    {
      "bufferView": 0,
      "byteOffset": 143796,
      "componentType": 5125,
      "count": 234,
      "type": "SCALAR"
    },
    {
      "bufferView": 2,
      "byteOffset": 798360,
      "componentType": 5126,
      "count": 84,
      "max": [
        0.2831134796142578,
        0.3074142336845398,
        0.2947826385498047
      ],
      "min": [
        -0.34774017333984375,
        -0.26667606830596924,
        -0.3885307312011719
      ],
      "type": "VEC3"
    },
    {
      "bufferView": 2,
      "byteOffset": 799368,
      "componentType": 5126,
      "count": 84,
      "max": [
        0.9293784499168396,
        0.9402849078178406,
        0.9888321757316589
      ],
      "min": [
        -0.8803609013557434,
        -0.9962843060493469,
        -0.9468843936920166
      ],
      "type": "VEC3"
    },
    {
      "bufferView": 1,
      "byteOffset": 266120,
      "componentType": 5126,
      "count": 84,
      "max": [
        0.8151418566703796,
        0.5012539029121399
      ],
      "min": [
        0.8126340508460999,
        0.4988921880722046
      ],
      "type": "VEC2"
    },
    {
      "bufferView": 0,
      "byteOffset": 144732,
      "componentType": 5125,
      "count": 114,
      "type": "SCALAR"
    },
    {
      "bufferView": 2,
      "byteOffset": 800376,
      "componentType": 5126,
      "count": 80,
      "max": [
        0.5169582366943359,
        0.7555088400840759,
        0.43575477600097656
      ],
      "min": [
        -0.47907066345214844,
        -0.6895262598991394,
        -0.5527801513671875
      ],
      "type": "VEC3"
    },
    {
      "bufferView": 2,
      "byteOffset": 801336,
      "componentType": 5126,
      "count": 80,
      "max": [
        0.9887428879737854,
        0.8325241804122925,
        0.9901565909385681
      ],
      "min": [
        -0.9839977622032166,
        -0.9867070913314819,
        -0.9892007112503052
      ],
      "type": "VEC3"
    },
    {
      "bufferView": 1,
      "byteOffset": 266792,
      "componentType": 5126,
      "count": 80,
      "max": [
        0.8151418566703796,
        0.5011821389198303
      ],
      "min": [
        0.8126735091209412,
        0.49903327226638794
      ],
      "type": "VEC2"
    },
    {
      "bufferView": 0,
      "byteOffset": 145188,
      "componentType": 5125,
      "count": 102,
      "type": "SCALAR"
    },
    {
      "bufferView": 2,
      "byteOffset": 802296,
      "componentType": 5126,
      "count": 114,
      "max": [
        0.44188499450683594,
        0.4154072105884552,
        0.41283130645751953
      ],
      "min": [
        -0.4008655548095703,
        -0.19633252918720245,
        -0.4184603691101074
      ],
      "type": "VEC3"
    },
    {
      "bufferView": 2,
      "byteOffset": 803664,
      "componentType": 5126,
      "count": 114,
      "max": [
        0.9680855870246887,
        0.9647383093833923,
        0.9700091481208801
      ],
      "min": [
        -0.9245725870132446,
        -0.9990521669387817,
        -0.9966135025024414
      ],
      "type": "VEC3"
    },
    {
      "bufferView": 1,
      "byteOffset": 267432,
      "componentType": 5126,
      "count": 114,
      "max": [
        0.8142057061195374,
        0.5003412365913391
      ],
      "min": [
        0.8135332465171814,
        0.4996587634086609
      ],
      "type": "VEC2"
    },
    {
      "bufferView": 0,
      "byteOffset": 145596,
      "componentType": 5125,
      "count": 174,
      "type": "SCALAR"
    },
    {
      "bufferView": 2,
      "byteOffset": 805032,
      "componentType": 5126,
      "count": 110,
      "max": [
        0.4280433654785156,
        0.4010442793369293,
        0.4852170944213867
      ],
      "min": [
        -0.4868316650390625,
        -0.3244751989841461,
        -0.3153824806213379
      ],
      "type": "VEC3"
    },
    {
      "bufferView": 2,
      "byteOffset": 806352,
      "componentType": 5126,
      "count": 110,
      "max": [
        0.8289048671722412,
        0.8500528335571289,
        0.9082639217376709
      ],
      "min": [
        -0.8963187336921692,
        -0.9898892641067505,
        -0.9825014472007751
      ],
      "type": "VEC3"
    },
    {
      "bufferView": 1,
      "byteOffset": 268344,
      "componentType": 5126,
      "count": 110,
      "max": [
        0.8151418566703796,
        0.5012513995170593
      ],
      "min": [
        0.8128213286399841,
        0.4987486004829407
      ],
      "type": "VEC2"
    },
    {
      "bufferView": 0,
      "byteOffset": 146292,
      "componentType": 5125,
      "count": 150,
      "type": "SCALAR"
    },
    {
      "bufferView": 2,
      "byteOffset": 807672,
      "componentType": 5126,
      "count": 88,
      "max": [
        0.33263206481933594,
        0.429397851228714,
        0.24202251434326172
      ],
      "min": [
        -0.3117828369140625,
        -0.23946262896060944,
        -0.3223257064819336
      ],
      "type": "VEC3"
    },
    {
      "bufferView": 2,
      "byteOffset": 808728,
      "componentType": 5126,
      "count": 88,
      "max": [
        0.9927690029144287,
        0.8191458582878113,
        0.9996205568313599
      ],
      "min": [
        -0.9279312491416931,
        -0.9998148083686829,
        -0.9732596278190613
      ],
      "type": "VEC3"
    },
    {
      "bufferView": 1,
      "byteOffset": 269224,
      "componentType": 5126,
      "count": 88,
      "max": [
        0.814772367477417,
        0.5011821389198303
      ],
      "min": [
        0.8126340508460999,
        0.49882039427757263
      ],
      "type": "VEC2"
    },
    {
      "bufferView": 0,
      "byteOffset": 146892,
      "componentType": 5125,
      "count": 120,
      "type": "SCALAR"
    },
    {
      "bufferView": 2,
      "byteOffset": 809784,
      "componentType": 5126,
      "count": 146,
      "max": [
        0.4674205780029297,
        0.3105102777481079,
        0.41833746433258057
      ],
      "min": [
        -0.4325084686279297,
        -0.3627890944480896,
        -0.44385695457458496
      ],
      "type": "VEC3"
    },
    {
      "bufferView": 2,
      "byteOffset": 811536,
      "componentType": 5126,
      "count": 146,
      "max": [
        0.9018911123275757,
        0.9798125624656677,
        0.973594605922699
      ],
      "min": [
        -0.9767871499061584,
        -0.9960657358169556,
        -0.9105435013771057
      ],
      "type": "VEC3"
    },
    {
      "bufferView": 1,
      "byteOffset": 269928,
      "componentType": 5126,
      "count": 146,
      "max": [
        0.8151393532752991,
        0.5012539029121399
      ],
      "min": [
        0.8126365542411804,
        0.4987486004829407
      ],
      "type": "VEC2"
    },
    {
      "bufferView": 0,
      "byteOffset": 147372,
      "componentType": 5125,
      "count": 192,
      "type": "SCALAR"
    },
    {
      "bufferView": 2,
      "byteOffset": 813288,
      "componentType": 5126,
      "count": 174,
      "max": [
        0.43402099609375,
        1.2183738946914673,
        0.47744691371917725
      ],
      "min": [
        -0.45902442932128906,
        -1.11857271194458,
        -0.3521782159805298
      ],
      "type": "VEC3"
    },
    {
      "bufferView": 2,
      "byteOffset": 815376,
      "componentType": 5126,
      "count": 174,
      "max": [
        0.9967312216758728,
        0.9815149903297424,
        0.9978111386299133
      ],
      "min": [
        -0.9993111491203308,
        -0.938532292842865,
        -0.9792002439498901
      ],
      "type": "VEC3"
    },
    {
      "bufferView": 1,
      "byteOffset": 271096,
      "componentType": 5126,
      "count": 174,
      "max": [
        0.8151418566703796,
        0.5011282563209534
      ],
      "min": [
        0.8126340508460999,
        0.4987460672855377
      ],
      "type": "VEC2"
    },
    {
      "bufferView": 0,
      "byteOffset": 148140,
      "componentType": 5125,
      "count": 234,
      "type": "SCALAR"
    },
    {
      "bufferView": 2,
      "byteOffset": 817464,
      "componentType": 5126,
      "count": 176,
      "max": [
        0.30200672149658203,
        1.1080442667007446,
        0.33477306365966797
      ],
      "min": [
        -0.48885154724121094,
        -1.188901662826538,
        -0.4436788558959961
      ],
      "type": "VEC3"
    },
    {
      "bufferView": 2,
      "byteOffset": 819576,
      "componentType": 5126,
      "count": 176,
      "max": [
        0.9997027516365051,
        0.9924622178077698,
        0.9979117512702942
      ],
      "min": [
        -0.9809767007827759,
        -0.9956902265548706,
        -0.9757815599441528
      ],
      "type": "VEC3"
    },
    {
      "bufferView": 1,
      "byteOffset": 272488,
      "componentType": 5126,
      "count": 176,
      "max": [
        0.8151418566703796,
        0.5012539029121399
      ],
      "min": [
        0.8126340508460999,
        0.49903327226638794
      ],
      "type": "VEC2"
    },
    {
      "bufferView": 0,
      "byteOffset": 149076,
      "componentType": 5125,
      "count": 258,
      "type": "SCALAR"
    },
    {
      "bufferView": 2,
      "byteOffset": 821688,
      "componentType": 5126,
      "count": 136,
      "max": [
        0.3182506561279297,
        1.0800482034683228,
        0.2792949676513672
      ],
      "min": [
        -0.2906808853149414,
        -0.7614541053771973,
        -0.32140159606933594
      ],
      "type": "VEC3"
    },
    {
      "bufferView": 2,
      "byteOffset": 823320,
      "componentType": 5126,
      "count": 136,
      "max": [
        0.9961283802986145,
        0.6314157247543335,
        0.9966056942939758
      ],
      "min": [
        -0.9949856400489807,
        -0.9994889497756958,
        -0.9922731518745422
      ],
      "type": "VEC3"
    },
    {
      "bufferView": 1,
      "byteOffset": 273896,
      "componentType": 5126,
      "count": 136,
      "max": [
        0.8147698640823364,
        0.5012513995170593
      ],
      "min": [
        0.8127079606056213,
        0.4987460672855377
      ],
      "type": "VEC2"
    },
    {
      "bufferView": 0,
      "byteOffset": 150108,
      "componentType": 5125,
      "count": 192,
      "type": "SCALAR"
    },
    {
      "bufferView": 2,
      "byteOffset": 824952,
      "componentType": 5126,
      "count": 124,
      "max": [
        0.2995014190673828,
        0.876006543636322,
        0.2850780487060547
      ],
      "min": [
        -0.23263168334960938,
        -0.9757620096206665,
        -0.28115272521972656
      ],
      "type": "VEC3"
    },
    {
      "bufferView": 2,
      "byteOffset": 826440,
      "componentType": 5126,
      "count": 124,
      "max": [
        0.9711790084838867,
        0.6744083762168884,
        0.9791905879974365
      ],
      "min": [
        -0.997494101524353,
        -0.9998818039894104,
        -0.9927765130996704
      ],
      "type": "VEC3"
    },
    {
      "bufferView": 1,
      "byteOffset": 274984,
      "componentType": 5126,
      "count": 124,
      "max": [
        0.8151418566703796,
        0.5012539029121399
      ],
      "min": [
        0.8126340508460999,
        0.4987460672855377
      ],
      "type": "VEC2"
    },
    {
      "bufferView": 0,
      "byteOffset": 150876,
      "componentType": 5125,
      "count": 174,
      "type": "SCALAR"
    },
    {
      "bufferView": 2,
      "byteOffset": 827928,
      "componentType": 5126,
      "count": 102,
      "max": [
        0.7099475860595703,
        0.620616614818573,
        0.698272705078125
      ],
      "min": [
        -0.6802120208740234,
        -0.6556587815284729,
        -0.7248725891113281
      ],
      "type": "VEC3"
    },
    {
      "bufferView": 2,
      "byteOffset": 829152,
      "componentType": 5126,
      "count": 102,
      "max": [
        0.9455615878105164,
        0.8768422603607178,
        0.9152182340621948
      ],
      "min": [
        -0.9694528579711914,
        -0.9998024106025696,
        -0.9850015044212341
      ],
      "type": "VEC3"
    },
    {
      "bufferView": 1,
      "byteOffset": 275976,
      "componentType": 5126,
      "count": 102,
      "max": [
        0.9522668719291687,
        0.42243707180023193
      ],
      "min": [
        0.9497590661048889,
        0.42000100016593933
      ],
      "type": "VEC2"
    },
    {
      "bufferView": 0,
      "byteOffset": 151572,
      "componentType": 5125,
      "count": 144,
      "type": "SCALAR"
    },
    {
      "bufferView": 2,
      "byteOffset": 830376,
      "componentType": 5126,
      "count": 132,
      "max": [
        0.8396272659301758,
        0.9243344068527222,
        0.621307373046875
      ],
      "min": [
        -0.7465829849243164,
        -0.5960606336593628,
        -0.7524642944335938
      ],
      "type": "VEC3"
    },
    {
      "bufferView": 2,
      "byteOffset": 831960,
      "componentType": 5126,
      "count": 132,
      "max": [
        0.9378209114074707,
        0.9176816940307617,
        0.9878292083740234
      ],
      "min": [
        -0.9852750897407532,
        -0.9995306730270386,
        -0.9795932173728943
      ],
      "type": "VEC3"
    },
    {
      "bufferView": 1,
      "byteOffset": 276792,
      "componentType": 5126,
      "count": 132,
      "max": [
        0.9521929621696472,
        0.4224345088005066
      ],
      "min": [
        0.9497590661048889,
        0.42000100016593933
      ],
      "type": "VEC2"
    },
    {
      "bufferView": 0,
      "byteOffset": 152148,
      "componentType": 5125,
      "count": 132,
      "type": "SCALAR"
    },
    {
      "bufferView": 2,
      "byteOffset": 833544,
      "componentType": 5126,
      "count": 182,
      "max": [
        0.9341573715209961,
        0.8025469183921814,
        0.6075668334960938
      ],
      "min": [
        -0.8853168487548828,
        -0.7154660820960999,
        -0.5406570434570313
      ],
      "type": "VEC3"
    },
    {
      "bufferView": 2,
      "byteOffset": 835728,
      "componentType": 5126,
      "count": 182,
      "max": [
        0.9480900764465332,
        0.9950563907623291,
        0.9981923699378967
      ],
      "min": [
        -0.9826493263244629,
        -0.9967733025550842,
        -0.9975063800811768
      ],
      "type": "VEC3"
    },
    {
      "bufferView": 1,
      "byteOffset": 277848,
      "componentType": 5126,
      "count": 182,
      "max": [
        0.9522459506988525,
        0.42229098081588745
      ],
      "min": [
        0.9497590661048889,
        0.42000100016593933
      ],
      "type": "VEC2"
    },
    {
      "bufferView": 0,
      "byteOffset": 152676,
      "componentType": 5125,
      "count": 264,
      "type": "SCALAR"
    },
    {
      "bufferView": 2,
      "byteOffset": 837912,
      "componentType": 5126,
      "count": 116,
      "max": [
        0.6592512130737305,
        0.22838926315307617,
        0.866607666015625
      ],
      "min": [
        -1.0808076858520508,
        -0.24906949698925018,
        -0.8590145111083984
      ],
      "type": "VEC3"
    },
    {
      "bufferView": 2,
      "byteOffset": 839304,
      "componentType": 5126,
      "count": 116,
      "max": [
        0.9756850004196167,
        0.9957128763198853,
        0.8640110492706299
      ],
      "min": [
        -0.920089602470398,
        -0.9961574673652649,
        -0.814096987247467
      ],
      "type": "VEC3"
    },
    {
      "bufferView": 1,
      "byteOffset": 279304,
      "componentType": 5126,
      "count": 116,
      "max": [
        0.9522668719291687,
        0.42243707180023193
      ],
      "min": [
        0.9497615694999695,
        0.4200035333633423
      ],
      "type": "VEC2"
    },
    {
      "bufferView": 0,
      "byteOffset": 153732,
      "componentType": 5125,
      "count": 174,
      "type": "SCALAR"
    },
    {
      "bufferView": 2,
      "byteOffset": 840696,
      "componentType": 5126,
      "count": 156,
      "max": [
        0.40698814392089844,
        1.102768898010254,
        0.4259529113769531
      ],
      "min": [
        -0.43676185607910156,
        -0.5198709964752197,
        -0.4222412109375
      ],
      "type": "VEC3"
    },
    {
      "bufferView": 2,
      "byteOffset": 842568,
      "componentType": 5126,
      "count": 156,
      "max": [
        0.9986526370048523,
        0.9562730193138123,
        0.9825268387794495
      ],
      "min": [
        -0.9761418104171753,
        -0.9963400363922119,
        -0.9999046325683594
      ],
      "type": "VEC3"
    },
    {
      "bufferView": 1,
      "byteOffset": 280232,
      "componentType": 5126,
      "count": 156,
      "max": [
        0.9522643685340881,
        0.4225088357925415
      ],
      "min": [
        0.9500547647476196,
        0.42000100016593933
      ],
      "type": "VEC2"
    },
    {
      "bufferView": 0,
      "byteOffset": 154428,
      "componentType": 5125,
      "count": 234,
      "type": "SCALAR"
    },
    {
      "bufferView": 2,
      "byteOffset": 844440,
      "componentType": 5126,
      "count": 84,
      "max": [
        0.2831134796142578,
        0.3074142336845398,
        0.2947816848754883
      ],
      "min": [
        -0.34774017333984375,
        -0.26667606830596924,
        -0.3885307312011719
      ],
      "type": "VEC3"
    },
    {
      "bufferView": 2,
      "byteOffset": 845448,
      "componentType": 5126,
      "count": 84,
      "max": [
        0.9293785095214844,
        0.9402847290039063,
        0.9888330101966858
      ],
      "min": [
        -0.8803611993789673,
        -0.9962843060493469,
        -0.9468833804130554
      ],
      "type": "VEC3"
    },
    {
      "bufferView": 1,
      "byteOffset": 281480,
      "componentType": 5126,
      "count": 84,
      "max": [
        0.9522668719291687,
        0.4225088357925415
      ],
      "min": [
        0.9497590661048889,
        0.4201471209526062
      ],
      "type": "VEC2"
    },
    {
      "bufferView": 0,
      "byteOffset": 155364,
      "componentType": 5125,
      "count": 114,
      "type": "SCALAR"
    },
    {
      "bufferView": 2,
      "byteOffset": 846456,
      "componentType": 5126,
      "count": 80,
      "max": [
        0.5169582366943359,
        0.7555088400840759,
        0.43575572967529297
      ],
      "min": [
        -0.47907066345214844,
        -0.6895262598991394,
        -0.5527801513671875
      ],
      "type": "VEC3"
    },
    {
      "bufferView": 2,
      "byteOffset": 847416,
      "componentType": 5126,
      "count": 80,
      "max": [
        0.9887428879737854,
        0.8325238823890686,
        0.990156352519989
      ],
      "min": [
        -0.9839978814125061,
        -0.9867070913314819,
        -0.9892007112503052
      ],
      "type": "VEC3"
    },
    {
      "bufferView": 1,
      "byteOffset": 282152,
      "componentType": 5126,
      "count": 80,
      "max": [
        0.9522668719291687,
        0.42243707180023193
      ],
      "min": [
        0.9497985243797302,
        0.42028820514678955
      ],
      "type": "VEC2"
    },
    {
      "bufferView": 0,
      "byteOffset": 155820,
      "componentType": 5125,
      "count": 102,
      "type": "SCALAR"
    },
    {
      "bufferView": 2,
      "byteOffset": 848376,
      "componentType": 5126,
      "count": 114,
      "max": [
        0.44188499450683594,
        0.4154072105884552,
        0.4128265380859375
      ],
      "min": [
        -0.4008655548095703,
        -0.19633252918720245,
        -0.41846466064453125
      ],
      "type": "VEC3"
    },
    {
      "bufferView": 2,
      "byteOffset": 849744,
      "componentType": 5126,
      "count": 114,
      "max": [
        0.9680855870246887,
        0.964738130569458,
        0.9700095057487488
      ],
      "min": [
        -0.9245724081993103,
        -0.9990521669387817,
        -0.9966133832931519
      ],
      "type": "VEC3"
    },
    {
      "bufferView": 1,
      "byteOffset": 282792,
      "componentType": 5126,
      "count": 114,
      "max": [
        0.9513307213783264,
        0.4215961694717407
      ],
      "min": [
        0.9506582617759705,
        0.4209136962890625
      ],
      "type": "VEC2"
    },
    {
      "bufferView": 0,
      "byteOffset": 156228,
      "componentType": 5125,
      "count": 174,
      "type": "SCALAR"
    },
    {
      "bufferView": 2,
      "byteOffset": 851112,
      "componentType": 5126,
      "count": 110,
      "max": [
        0.4280433654785156,
        0.4010442793369293,
        0.4852142333984375
      ],
      "min": [
        -0.4868316650390625,
        -0.3244751989841461,
        -0.3153858184814453
      ],
      "type": "VEC3"
    },
    {
      "bufferView": 2,
      "byteOffset": 852432,
      "componentType": 5126,
      "count": 110,
      "max": [
        0.8289047479629517,
        0.8500569462776184,
        0.9082622528076172
      ],
      "min": [
        -0.8963190317153931,
        -0.9898892045021057,
        -0.9824990630149841
      ],
      "type": "VEC3"
    },
    {
      "bufferView": 1,
      "byteOffset": 283704,
      "componentType": 5126,
      "count": 110,
      "max": [
        0.9522668719291687,
        0.42250633239746094
      ],
      "min": [
        0.9499463438987732,
        0.4200035333633423
      ],
      "type": "VEC2"
    },
    {
      "bufferView": 0,
      "byteOffset": 156924,
      "componentType": 5125,
      "count": 150,
      "type": "SCALAR"
    },
    {
      "bufferView": 2,
      "byteOffset": 853752,
      "componentType": 5126,
      "count": 88,
      "max": [
        0.33263206481933594,
        0.429397851228714,
        0.24202346801757813
      ],
      "min": [
        -0.3117828369140625,
        -0.23946262896060944,
        -0.3223247528076172
      ],
      "type": "VEC3"
    },
    {
      "bufferView": 2,
      "byteOffset": 854808,
      "componentType": 5126,
      "count": 88,
      "max": [
        0.9927690625190735,
        0.8191453218460083,
        0.9996205568313599
      ],
      "min": [
        -0.9279313683509827,
        -0.9998148083686829,
        -0.9732603430747986
      ],
      "type": "VEC3"
    },
    {
      "bufferView": 1,
      "byteOffset": 284584,
      "componentType": 5126,
      "count": 88,
      "max": [
        0.951897382736206,
        0.42243707180023193
      ],
      "min": [
        0.9497590661048889,
        0.42007532715797424
      ],
      "type": "VEC2"
    },
    {
      "bufferView": 0,
      "byteOffset": 157524,
      "componentType": 5125,
      "count": 120,
      "type": "SCALAR"
    },
    {
      "bufferView": 2,
      "byteOffset": 855864,
      "componentType": 5126,
      "count": 146,
      "max": [
        0.4674205780029297,
        0.3105102777481079,
        0.4183368682861328
      ],
      "min": [
        -0.4325084686279297,
        -0.3627890944480896,
        -0.44385719299316406
      ],
      "type": "VEC3"
    },
    {
      "bufferView": 2,
      "byteOffset": 857616,
      "componentType": 5126,
      "count": 146,
      "max": [
        0.9018914103507996,
        0.9798126220703125,
        0.9735949635505676
      ],
      "min": [
        -0.9767869710922241,
        -0.9960658550262451,
        -0.9105414152145386
      ],
      "type": "VEC3"
    },
    {
      "bufferView": 1,
      "byteOffset": 285288,
      "componentType": 5126,
      "count": 146,
      "max": [
        0.9522643685340881,
        0.4225088357925415
      ],
      "min": [
        0.9497615694999695,
        0.4200035333633423
      ],
      "type": "VEC2"
    },
    {
      "bufferView": 0,
      "byteOffset": 158004,
      "componentType": 5125,
      "count": 192,
      "type": "SCALAR"
    },
    {
      "bufferView": 2,
      "byteOffset": 859368,
      "componentType": 5126,
      "count": 174,
      "max": [
        0.43402099609375,
        1.2183738946914673,
        0.4774494171142578
      ],
      "min": [
        -0.45902442932128906,
        -1.11857271194458,
        -0.3521766662597656
      ],
      "type": "VEC3"
    },
    {
      "bufferView": 2,
      "byteOffset": 861456,
      "componentType": 5126,
      "count": 174,
      "max": [
        0.9967312216758728,
        0.9815151691436768,
        0.9978110194206238
      ],
      "min": [
        -0.999311089515686,
        -0.9385320544242859,
        -0.9792008996009827
      ],
      "type": "VEC3"
    },
    {
      "bufferView": 1,
      "byteOffset": 286456,
      "componentType": 5126,
      "count": 174,
      "max": [
        0.9522668719291687,
        0.422383189201355
      ],
      "min": [
        0.9497590661048889,
        0.42000100016593933
      ],
      "type": "VEC2"
    },
    {
      "bufferView": 0,
      "byteOffset": 158772,
      "componentType": 5125,
      "count": 234,
      "type": "SCALAR"
    },
    {
      "bufferView": 2,
      "byteOffset": 863544,
      "componentType": 5126,
      "count": 176,
      "max": [
        0.30200672149658203,
        1.1080442667007446,
        0.33477210998535156
      ],
      "min": [
        -0.48885154724121094,
        -1.188901662826538,
        -0.4436798095703125
      ],
      "type": "VEC3"
    },
    {
      "bufferView": 2,
      "byteOffset": 865656,
      "componentType": 5126,
      "count": 176,
      "max": [
        0.9997027516365051,
        0.9924623966217041,
        0.9979116320610046
      ],
      "min": [
        -0.9809767007827759,
        -0.9956901669502258,
        -0.9757808446884155
      ],
      "type": "VEC3"
    },
    {
      "bufferView": 1,
      "byteOffset": 287848,
      "componentType": 5126,
      "count": 176,
      "max": [
        0.9522668719291687,
        0.4225088357925415
      ],
      "min": [
        0.9497590661048889,
        0.42028820514678955
      ],
      "type": "VEC2"
    },
    {
      "bufferView": 0,
      "byteOffset": 159708,
      "componentType": 5125,
      "count": 258,
      "type": "SCALAR"
    },
    {
      "bufferView": 2,
      "byteOffset": 867768,
      "componentType": 5126,
      "count": 136,
      "max": [
        0.3182506561279297,
        1.0800482034683228,
        0.279296875
      ],
      "min": [
        -0.2906808853149414,
        -0.7614541053771973,
        -0.3213996887207031
      ],
      "type": "VEC3"
    },
    {
      "bufferView": 2,
      "byteOffset": 869400,
      "componentType": 5126,
      "count": 136,
      "max": [
        0.9961283802986145,
        0.6314151287078857,
        0.9966058135032654
      ],
      "min": [
        -0.9949855804443359,
        -0.9994890093803406,
        -0.9922731518745422
      ],
      "type": "VEC3"
    },
    {
      "bufferView": 1,
      "byteOffset": 289256,
      "componentType": 5126,
      "count": 136,
      "max": [
        0.9518948793411255,
        0.42250633239746094
      ],
      "min": [
        0.9498329758644104,
        0.42000100016593933
      ],
      "type": "VEC2"
    },
    {
      "bufferView": 0,
      "byteOffset": 160740,
      "componentType": 5125,
      "count": 192,
      "type": "SCALAR"
    },
    {
      "bufferView": 2,
      "byteOffset": 871032,
      "componentType": 5126,
      "count": 124,
      "max": [
        0.2995014190673828,
        0.876006543636322,
        0.2850790023803711
      ],
      "min": [
        -0.23263168334960938,
        -0.9757620096206665,
        -0.28115081787109375
      ],
      "type": "VEC3"
    },
    {
      "bufferView": 2,
      "byteOffset": 872520,
      "componentType": 5126,
      "count": 124,
      "max": [
        0.9711790084838867,
        0.6744083762168884,
        0.9791895747184753
      ],
      "min": [
        -0.997494101524353,
        -0.9998818635940552,
        -0.9927757382392883
      ],
      "type": "VEC3"
    },
    {
      "bufferView": 1,
      "byteOffset": 290344,
      "componentType": 5126,
      "count": 124,
      "max": [
        0.9522668719291687,
        0.4225088357925415
      ],
      "min": [
        0.9497590661048889,
        0.42000100016593933
      ],
      "type": "VEC2"
    },
    {
      "bufferView": 0,
      "byteOffset": 161508,
      "componentType": 5125,
      "count": 174,
      "type": "SCALAR"
    },
    {
      "bufferView": 2,
      "byteOffset": 874008,
      "componentType": 5126,
      "count": 102,
      "max": [
        0.7099475860595703,
        0.620616614818573,
        0.6982765197753906
      ],
      "min": [
        -0.6802120208740234,
        -0.6556587815284729,
        -0.7248687744140625
      ],
      "type": "VEC3"
    },
    {
      "bufferView": 2,
      "byteOffset": 875232,
      "componentType": 5126,
      "count": 102,
      "max": [
        0.9455615282058716,
        0.8768422603607178,
        0.9152188301086426
      ],
      "min": [
        -0.9694525599479675,
        -0.9998024106025696,
        -0.9850015044212341
      ],
      "type": "VEC3"
    },
    {
      "bufferView": 1,
      "byteOffset": 291336,
      "componentType": 5126,
      "count": 102,
      "max": [
        0.8830255270004272,
        0.46180960536003113
      ],
      "min": [
        0.8805177211761475,
        0.4593735337257385
      ],
      "type": "VEC2"
    },
    {
      "bufferView": 0,
      "byteOffset": 162204,
      "componentType": 5125,
      "count": 144,
      "type": "SCALAR"
    },
    {
      "bufferView": 2,
      "byteOffset": 876456,
      "componentType": 5126,
      "count": 132,
      "max": [
        0.8396272659301758,
        0.9243344068527222,
        0.6213054656982422
      ],
      "min": [
        -0.7465829849243164,
        -0.5960606336593628,
        -0.7524681091308594
      ],
      "type": "VEC3"
    },
    {
      "bufferView": 2,
      "byteOffset": 878040,
      "componentType": 5126,
      "count": 132,
      "max": [
        0.9378209114074707,
        0.9176816344261169,
        0.9878292083740234
      ],
      "min": [
        -0.985275149345398,
        -0.9995306730270386,
        -0.97959303855896
      ],
      "type": "VEC3"
    },
    {
      "bufferView": 1,
      "byteOffset": 292152,
      "componentType": 5126,
      "count": 132,
      "max": [
        0.8829516172409058,
        0.4618070423603058
      ],
      "min": [
        0.8805177211761475,
        0.4593735337257385
      ],
      "type": "VEC2"
    },
    {
      "bufferView": 0,
      "byteOffset": 162780,
      "componentType": 5125,
      "count": 132,
      "type": "SCALAR"
    },
    {
      "bufferView": 2,
      "byteOffset": 879624,
      "componentType": 5126,
      "count": 182,
      "max": [
        0.9341573715209961,
        0.8025469183921814,
        0.6075725555419922
      ],
      "min": [
        -0.8853168487548828,
        -0.7154660820960999,
        -0.5406513214111328
      ],
      "type": "VEC3"
    },
    {
      "bufferView": 2,
      "byteOffset": 881808,
      "componentType": 5126,
      "count": 182,
      "max": [
        0.9480902552604675,
        0.9950563907623291,
        0.9981924891471863
      ],
      "min": [
        -0.9826493263244629,
        -0.9967733025550842,
        -0.9975063800811768
      ],
      "type": "VEC3"
    },
    {
      "bufferView": 1,
      "byteOffset": 293208,
      "componentType": 5126,
      "count": 182,
      "max": [
        0.8830046057701111,
        0.46166351437568665
      ],
      "min": [
        0.8805177211761475,
        0.4593735337257385
      ],
      "type": "VEC2"
    },
    {
      "bufferView": 0,
      "byteOffset": 163308,
      "componentType": 5125,
      "count": 264,
      "type": "SCALAR"
    },
    {
      "bufferView": 2,
      "byteOffset": 883992,
      "componentType": 5126,
      "count": 116,
      "max": [
        0.6592512130737305,
        0.22838926315307617,
        0.866607666015625
      ],
      "min": [
        -1.0808076858520508,
        -0.24906949698925018,
        -0.8590164184570313
      ],
      "type": "VEC3"
    },
    {
      "bufferView": 2,
      "byteOffset": 885384,
      "componentType": 5126,
      "count": 116,
      "max": [
        0.9756850600242615,
        0.99571293592453,
        0.8640080690383911
      ],
      "min": [
        -0.9200896620750427,
        -0.9961574673652649,
        -0.814095139503479
      ],
      "type": "VEC3"
    },
    {
      "bufferView": 1,
      "byteOffset": 294664,
      "componentType": 5126,
      "count": 116,
      "max": [
        0.8830255270004272,
        0.46180960536003113
      ],
      "min": [
        0.8805201649665833,
        0.4593760669231415
      ],
      "type": "VEC2"
    },
    {
      "bufferView": 0,
      "byteOffset": 164364,
      "componentType": 5125,
      "count": 174,
      "type": "SCALAR"
    },
    {
      "bufferView": 2,
      "byteOffset": 886776,
      "componentType": 5126,
      "count": 156,
      "max": [
        0.40698814392089844,
        1.102768898010254,
        0.42595672607421875
      ],
      "min": [
        -0.43676185607910156,
        -0.5198709964752197,
        -0.4222373962402344
      ],
      "type": "VEC3"
    },
    {
      "bufferView": 2,
      "byteOffset": 888648,
      "componentType": 5126,
      "count": 156,
      "max": [
        0.9986526370048523,
        0.9562726020812988,
        0.9825260639190674
      ],
      "min": [
        -0.9761419296264648,
        -0.9963399767875671,
        -0.9999045729637146
      ],
      "type": "VEC3"
    },
    {
      "bufferView": 1,
      "byteOffset": 295592,
      "componentType": 5126,
      "count": 156,
      "max": [
        0.8830230236053467,
        0.4618813693523407
      ],
      "min": [
        0.8808134198188782,
        0.4593735337257385
      ],
      "type": "VEC2"
    },
    {
      "bufferView": 0,
      "byteOffset": 165060,
      "componentType": 5125,
      "count": 234,
      "type": "SCALAR"
    },
    {
      "bufferView": 2,
      "byteOffset": 890520,
      "componentType": 5126,
      "count": 84,
      "max": [
        0.2831134796142578,
        0.3074142336845398,
        0.2947807312011719
      ],
      "min": [
        -0.34774017333984375,
        -0.26667606830596924,
        -0.3885345458984375
      ],
      "type": "VEC3"
    },
    {
      "bufferView": 2,
      "byteOffset": 891528,
      "componentType": 5126,
      "count": 84,
      "max": [
        0.92937833070755,
        0.940285325050354,
        0.9888294339179993
      ],
      "min": [
        -0.880362331867218,
        -0.9962843656539917,
        -0.9468843340873718
      ],
      "type": "VEC3"
    },
    {
      "bufferView": 1,
      "byteOffset": 296840,
      "componentType": 5126,
      "count": 84,
      "max": [
        0.8830255270004272,
        0.4618813693523407
      ],
      "min": [
        0.8805177211761475,
        0.4595196545124054
      ],
      "type": "VEC2"
    },
    {
      "bufferView": 0,
      "byteOffset": 165996,
      "componentType": 5125,
      "count": 114,
      "type": "SCALAR"
    },
    {
      "bufferView": 2,
      "byteOffset": 892536,
      "componentType": 5126,
      "count": 80,
      "max": [
        0.5169582366943359,
        0.7555088400840759,
        0.435760498046875
      ],
      "min": [
        -0.47907066345214844,
        -0.6895262598991394,
        -0.5527763366699219
      ],
      "type": "VEC3"
    },
    {
      "bufferView": 2,
      "byteOffset": 893496,
      "componentType": 5126,
      "count": 80,
      "max": [
        0.9887428283691406,
        0.8325241208076477,
        0.9901559352874756
      ],
      "min": [
        -0.9839979410171509,
        -0.9867071509361267,
        -0.9892007112503052
      ],
      "type": "VEC3"
    },
    {
      "bufferView": 1,
      "byteOffset": 297512,
      "componentType": 5126,
      "count": 80,
      "max": [
        0.8830255270004272,
        0.46180960536003113
      ],
      "min": [
        0.8805571794509888,
        0.45966073870658875
      ],
      "type": "VEC2"
    },
    {
      "bufferView": 0,
      "byteOffset": 166452,
      "componentType": 5125,
      "count": 102,
      "type": "SCALAR"
    },
    {
      "bufferView": 2,
      "byteOffset": 894456,
      "componentType": 5126,
      "count": 114,
      "max": [
        0.44188499450683594,
        0.4154072105884552,
        0.4128284454345703
      ],
      "min": [
        -0.4008655548095703,
        -0.19633252918720245,
        -0.41846275329589844
      ],
      "type": "VEC3"
    },
    {
      "bufferView": 2,
      "byteOffset": 895824,
      "componentType": 5126,
      "count": 114,
      "max": [
        0.968085527420044,
        0.9647381901741028,
        0.9700091481208801
      ],
      "min": [
        -0.9245725274085999,
        -0.9990521669387817,
        -0.9966133236885071
      ],
      "type": "VEC3"
    },
    {
      "bufferView": 1,
      "byteOffset": 298152,
      "componentType": 5126,
      "count": 114,
      "max": [
        0.882089376449585,
        0.4609687030315399
      ],
      "min": [
        0.881416916847229,
        0.4602862298488617
      ],
      "type": "VEC2"
    },
    {
      "bufferView": 0,
      "byteOffset": 166860,
      "componentType": 5125,
      "count": 174,
      "type": "SCALAR"
    },
    {
      "bufferView": 2,
      "byteOffset": 897192,
      "componentType": 5126,
      "count": 110,
      "max": [
        0.4280433654785156,
        0.4010442793369293,
        0.4852142333984375
      ],
      "min": [
        -0.4868316650390625,
        -0.3244751989841461,
        -0.3153839111328125
      ],
      "type": "VEC3"
    },
    {
      "bufferView": 2,
      "byteOffset": 898512,
      "componentType": 5126,
      "count": 110,
      "max": [
        0.8289057016372681,
        0.8500388264656067,
        0.9082654118537903
      ],
      "min": [
        -0.8963183760643005,
        -0.9898892641067505,
        -0.9824998378753662
      ],
      "type": "VEC3"
    },
    {
      "bufferView": 1,
      "byteOffset": 299064,
      "componentType": 5126,
      "count": 110,
      "max": [
        0.8830255270004272,
        0.46187886595726013
      ],
      "min": [
        0.8807049989700317,
        0.4593760669231415
      ],
      "type": "VEC2"
    },
    {
      "bufferView": 0,
      "byteOffset": 167556,
      "componentType": 5125,
      "count": 150,
      "type": "SCALAR"
    },
    {
      "bufferView": 2,
      "byteOffset": 899832,
      "componentType": 5126,
      "count": 88,
      "max": [
        0.33263206481933594,
        0.429397851228714,
        0.24202346801757813
      ],
      "min": [
        -0.3117828369140625,
        -0.23946262896060944,
        -0.3223228454589844
      ],
      "type": "VEC3"
    },
    {
      "bufferView": 2,
      "byteOffset": 900888,
      "componentType": 5126,
      "count": 88,
      "max": [
        0.9927690029144287,
        0.8191444873809814,
        0.9996205568313599
      ],
      "min": [
        -0.9279312491416931,
        -0.9998148083686829,
        -0.9732632040977478
      ],
      "type": "VEC3"
    },
    {
      "bufferView": 1,
      "byteOffset": 299944,
      "componentType": 5126,
      "count": 88,
      "max": [
        0.8826560378074646,
        0.46180960536003113
      ],
      "min": [
        0.8805177211761475,
        0.45944786071777344
      ],
      "type": "VEC2"
    },
    {
      "bufferView": 0,
      "byteOffset": 168156,
      "componentType": 5125,
      "count": 120,
      "type": "SCALAR"
    },
    {
      "bufferView": 2,
      "byteOffset": 901944,
      "componentType": 5126,
      "count": 146,
      "max": [
        0.4674205780029297,
        0.3105102777481079,
        0.4183330535888672
      ],
      "min": [
        -0.4325084686279297,
        -0.3627890944480896,
        -0.4438591003417969
      ],
      "type": "VEC3"
    },
    {
      "bufferView": 2,
      "byteOffset": 903696,
      "componentType": 5126,
      "count": 146,
      "max": [
        0.9018908143043518,
        0.9798126816749573,
        0.9735949635505676
      ],
      "min": [
        -0.9767870306968689,
        -0.9960658550262451,
        -0.910546600818634
      ],
      "type": "VEC3"
    },
    {
      "bufferView": 1,
      "byteOffset": 300648,
      "componentType": 5126,
      "count": 146,
      "max": [
        0.8830230236053467,
        0.4618813693523407
      ],
      "min": [
        0.8805201649665833,
        0.4593760669231415
      ],
      "type": "VEC2"
    },
    {
      "bufferView": 0,
      "byteOffset": 168636,
      "componentType": 5125,
      "count": 192,
      "type": "SCALAR"
    },
    {
      "bufferView": 2,
      "byteOffset": 905448,
      "componentType": 5126,
      "count": 174,
      "max": [
        0.43402099609375,
        1.2183738946914673,
        0.4774436950683594
      ],
      "min": [
        -0.45902442932128906,
        -1.11857271194458,
        -0.35218238830566406
      ],
      "type": "VEC3"
    },
    {
      "bufferView": 2,
      "byteOffset": 907536,
      "componentType": 5126,
      "count": 174,
      "max": [
        0.9967312216758728,
        0.9815151691436768,
        0.9978110194206238
      ],
      "min": [
        -0.999311089515686,
        -0.9385320544242859,
        -0.9792008996009827
      ],
      "type": "VEC3"
    },
    {
      "bufferView": 1,
      "byteOffset": 301816,
      "componentType": 5126,
      "count": 174,
      "max": [
        0.8830255270004272,
        0.4617557227611542
      ],
      "min": [
        0.8805177211761475,
        0.4593735337257385
      ],
      "type": "VEC2"
    },
    {
      "bufferView": 0,
      "byteOffset": 169404,
      "componentType": 5125,
      "count": 234,
      "type": "SCALAR"
    },
    {
      "bufferView": 2,
      "byteOffset": 909624,
      "componentType": 5126,
      "count": 176,
      "max": [
        0.30200672149658203,
        1.1080442667007446,
        0.3347740173339844
      ],
      "min": [
        -0.48885154724121094,
        -1.188901662826538,
        -0.4436759948730469
      ],
      "type": "VEC3"
    },
    {
      "bufferView": 2,
      "byteOffset": 911736,
      "componentType": 5126,
      "count": 176,
      "max": [
        0.9997028112411499,
        0.9924622178077698,
        0.9979124069213867
      ],
      "min": [
        -0.9809772372245789,
        -0.9956902861595154,
        -0.9757808446884155
      ],
      "type": "VEC3"
    },
    {
      "bufferView": 1,
      "byteOffset": 303208,
      "componentType": 5126,
      "count": 176,
      "max": [
        0.8830255270004272,
        0.4618813693523407
      ],
      "min": [
        0.8805177211761475,
        0.45966073870658875
      ],
      "type": "VEC2"
    },
    {
      "bufferView": 0,
      "byteOffset": 170340,
      "componentType": 5125,
      "count": 258,
      "type": "SCALAR"
    },
    {
      "bufferView": 2,
      "byteOffset": 913848,
      "componentType": 5126,
      "count": 136,
      "max": [
        0.3182506561279297,
        1.0800482034683228,
        0.279296875
      ],
      "min": [
        -0.2906808853149414,
        -0.7614541053771973,
        -0.3213958740234375
      ],
      "type": "VEC3"
    },
    {
      "bufferView": 2,
      "byteOffset": 915480,
      "componentType": 5126,
      "count": 136,
      "max": [
        0.9961283802986145,
        0.6314151287078857,
        0.9966062307357788
      ],
      "min": [
        -0.9949855208396912,
        -0.9994889497756958,
        -0.9922731518745422
      ],
      "type": "VEC3"
    },
    {
      "bufferView": 1,
      "byteOffset": 304616,
      "componentType": 5126,
      "count": 136,
      "max": [
        0.882653534412384,
        0.46187886595726013
      ],
      "min": [
        0.880591630935669,
        0.4593735337257385
      ],
      "type": "VEC2"
    },
    {
      "bufferView": 0,
      "byteOffset": 171372,
      "componentType": 5125,
      "count": 192,
      "type": "SCALAR"
    },
    {
      "bufferView": 2,
      "byteOffset": 917112,
      "componentType": 5126,
      "count": 124,
      "max": [
        0.2995014190673828,
        0.876006543636322,
        0.2850799560546875
      ],
      "min": [
        -0.23263168334960938,
        -0.9757620096206665,
        -0.2811470031738281
      ],
      "type": "VEC3"
    },
    {
      "bufferView": 2,
      "byteOffset": 918600,
      "componentType": 5126,
      "count": 124,
      "max": [
        0.9711788892745972,
        0.674406886100769,
        0.9791882634162903
      ],
      "min": [
        -0.9974941611289978,
        -0.9998818635940552,
        -0.9927763342857361
      ],
      "type": "VEC3"
    },
    {
      "bufferView": 1,
      "byteOffset": 305704,
      "componentType": 5126,
      "count": 124,
      "max": [
        0.8830255270004272,
        0.4618813693523407
      ],
      "min": [
        0.8805177211761475,
        0.4593735337257385
      ],
      "type": "VEC2"
    },
    {
      "bufferView": 0,
      "byteOffset": 172140,
      "componentType": 5125,
      "count": 174,
      "type": "SCALAR"
    }
  ],
  "asset": {
    "extras": {
      "author": "daemoniic (https://sketchfab.com/daemoniic)",
      "license": "CC-BY-4.0 (http://creativecommons.org/licenses/by/4.0/)",
      "source": "https://sketchfab.com/3d-models/low-poly-rocks-and-terrain-pack-9ae953d0368f4d34ad985ada938fcc26",
      "title": "Low poly rocks and terrain pack"
    },
    "generator": "Sketchfab-16.39.0",
    "version": "2.0"
  },
  "bufferViews": [
    {
      "buffer": 0,
      "byteLength": 172836,
      "name": "floatBufferViews",
      "target": 34963
    },
    {
      "buffer": 0,
      "byteLength": 306696,
      "byteOffset": 172836,
      "byteStride": 8,
      "name": "floatBufferViews",
      "target": 34962
    },
    {
      "buffer": 0,
      "byteLength": 920088,
      "byteOffset": 479532,
      "byteStride": 12,
      "name": "floatBufferViews",
      "target": 34962
    }
  ],
  "buffers": [
    {
      "byteLength": 1399620,
      "uri": "scene.bin"
    }
  ],
  "images": [
    {
      "uri": "textures/Material_baseColor.png"
    }
  ],
  "materials": [
    {
      "doubleSided": true,
      "name": "Material",
      "pbrMetallicRoughness": {
        "baseColorTexture": {
          "index": 0
        },
        "metallicFactor": 0.0,
        "roughnessFactor": 0.898964
      }
    }
  ],
  "meshes": [
    {
      "name": "Object_0",
      "primitives": [
        {
          "attributes": {
            "NORMAL": 1,
            "POSITION": 0,
            "TEXCOORD_0": 2
          },
          "indices": 3,
          "material": 0,
          "mode": 4
        }
      ]
    },
    {
      "name": "Object_1",
      "primitives": [
        {
          "attributes": {
            "NORMAL": 5,
            "POSITION": 4,
            "TEXCOORD_0": 6
          },
          "indices": 7,
          "material": 0,
          "mode": 4
        }
      ]
    },
    {
      "name": "Object_2",
      "primitives": [
        {
          "attributes": {
            "NORMAL": 9,
            "POSITION": 8,
            "TEXCOORD_0": 10
          },
          "indices": 11,
          "material": 0,
          "mode": 4
        }
      ]
    },
    {
      "name": "Object_3",
      "primitives": [
        {
          "attributes": {
            "NORMAL": 13,
            "POSITION": 12,
            "TEXCOORD_0": 14
          },
          "indices": 15,
          "material": 0,
          "mode": 4
        }
      ]
    },
    {
      "name": "Object_4",
      "primitives": [
        {
          "attributes": {
            "NORMAL": 17,
            "POSITION": 16,
            "TEXCOORD_0": 18
          },
          "indices": 19,
          "material": 0,
          "mode": 4
        }
      ]
    },
    {
      "name": "Object_5",
      "primitives": [
        {
          "attributes": {
            "NORMAL": 21,
            "POSITION": 20,
            "TEXCOORD_0": 22
          },
          "indices": 23,
          "material": 0,
          "mode": 4
        }
      ]
    },
    {
      "name": "Object_6",
      "primitives": [
        {
          "attributes": {
            "NORMAL": 25,
            "POSITION": 24,
            "TEXCOORD_0": 26
          },
          "indices": 27,
          "material": 0,
          "mode": 4
        }
      ]
    },
    {
      "name": "Object_7",
      "primitives": [
        {
          "attributes": {
            "NORMAL": 29,
            "POSITION": 28,
            "TEXCOORD_0": 30
          },
          "indices": 31,
          "material": 0,
          "mode": 4
        }
      ]
    },
    {
      "name": "Object_8",
      "primitives": [
        {
          "attributes": {
            "NORMAL": 33,
            "POSITION": 32,
            "TEXCOORD_0": 34
          },
          "indices": 35,
          "material": 0,
          "mode": 4
        }
      ]
    },
    {
      "name": "Object_9",
      "primitives": [
        {
          "attributes": {
            "NORMAL": 37,
            "POSITION": 36,
            "TEXCOORD_0": 38
          },
          "indices": 39,
          "material": 0,
          "mode": 4
        }
      ]
    },
    {
      "name": "Object_10",
      "primitives": [
        {
          "attributes": {
            "NORMAL": 41,
            "POSITION": 40,
            "TEXCOORD_0": 42
          },
          "indices": 43,
          "material": 0,
          "mode": 4
        }
      ]
    },
    {
      "name": "Object_11",
      "primitives": [
        {
          "attributes": {
            "NORMAL": 45,
            "POSITION": 44,
            "TEXCOORD_0": 46
          },
          "indices": 47,
          "material": 0,
          "mode": 4
        }
      ]
    },
    {
      "name": "Object_12",
      "primitives": [
        {
          "attributes": {
            "NORMAL": 49,
            "POSITION": 48,
            "TEXCOORD_0": 50
          },
          "indices": 51,
          "material": 0,
          "mode": 4
        }
      ]
    },
    {
      "name": "Object_13",
      "primitives": [
        {
          "attributes": {
            "NORMAL": 53,
            "POSITION": 52,
            "TEXCOORD_0": 54
          },
          "indices": 55,
          "material": 0,
          "mode": 4
        }
      ]
    },
    {
      "name": "Object_14",
      "primitives": [
        {
          "attributes": {
            "NORMAL": 57,
            "POSITION": 56,
            "TEXCOORD_0": 58
          },
          "indices": 59,
          "material": 0,
          "mode": 4
        }
      ]
    },
    {
      "name": "Object_15",
      "primitives": [
        {
          "attributes": {
            "NORMAL": 61,
            "POSITION": 60,
            "TEXCOORD_0": 62
          },
          "indices": 63,
          "material": 0,
          "mode": 4
        }
      ]
    },
    {
      "name": "Object_16",
      "primitives": [
        {
          "attributes": {
            "NORMAL": 65,
            "POSITION": 64,
            "TEXCOORD_0": 66
          },
          "indices": 67,
          "material": 0,
          "mode": 4
        }
      ]
    },
    {
      "name": "Object_17",
      "primitives": [
        {
          "attributes": {
            "NORMAL": 69,
            "POSITION": 68,
            "TEXCOORD_0": 70
          },
          "indices": 71,
          "material": 0,
          "mode": 4
        }
      ]
    },
    {
      "name": "Object_18",
      "primitives": [
        {
          "attributes": {
            "NORMAL": 73,
            "POSITION": 72,
            "TEXCOORD_0": 74
          },
          "indices": 75,
          "material": 0,
          "mode": 4
        }
      ]
    },
    {
      "name": "Object_19",
      "primitives": [
        {
          "attributes": {
            "NORMAL": 77,
            "POSITION": 76,
            "TEXCOORD_0": 78
          },
          "indices": 79,
          "material": 0,
          "mode": 4
        }
      ]
    },
    {
      "name": "Object_20",
      "primitives": [
        {
          "attributes": {
            "NORMAL": 81,
            "POSITION": 80,
            "TEXCOORD_0": 82
          },
          "indices": 83,
          "material": 0,
          "mode": 4
        }
      ]
    },
    {
      "name": "Object_21",
      "primitives": [
        {
          "attributes": {
            "NORMAL": 85,
            "POSITION": 84,
            "TEXCOORD_0": 86
          },
          "indices": 87,
          "material": 0,
          "mode": 4
        }
      ]
    },
    {
      "name": "Object_22",
      "primitives": [
        {
          "attributes": {
            "NORMAL": 89,
            "POSITION": 88,
            "TEXCOORD_0": 90
          },
          "indices": 91,
          "material": 0,
          "mode": 4
        }
      ]
    },
    {
      "name": "Object_23",
      "primitives": [
        {
          "attributes": {
            "NORMAL": 93,
            "POSITION": 92,
            "TEXCOORD_0": 94
          },
          "indices": 95,
          "material": 0,
          "mode": 4
        }
      ]
    },
    {
      "name": "Object_24",
      "primitives": [
        {
          "attributes": {
            "NORMAL": 97,
            "POSITION": 96,
            "TEXCOORD_0": 98
          },
          "indices": 99,
          "material": 0,
          "mode": 4
        }
      ]
    },
    {
      "name": "Object_25",
      "primitives": [
        {
          "attributes": {
            "NORMAL": 101,
            "POSITION": 100,
            "TEXCOORD_0": 102
          },
          "indices": 103,
          "material": 0,
          "mode": 4
        }
      ]
    },
    {
      "name": "Object_26",
      "primitives": [
        {
          "attributes": {
            "NORMAL": 105,
            "POSITION": 104,
            "TEXCOORD_0": 106
          },
          "indices": 107,
          "material": 0,
          "mode": 4
        }
      ]
    },
    {
      "name": "Object_27",
      "primitives": [
        {
          "attributes": {
            "NORMAL": 109,
            "POSITION": 108,
            "TEXCOORD_0": 110
          },
          "indices": 111,
          "material": 0,
          "mode": 4
        }
      ]
    },
    {
      "name": "Object_28",
      "primitives": [
        {
          "attributes": {
            "NORMAL": 113,
            "POSITION": 112,
            "TEXCOORD_0": 114
          },
          "indices": 115,
          "material": 0,
          "mode": 4
        }
      ]
    },
    {
      "name": "Object_29",
      "primitives": [
        {
          "attributes": {
            "NORMAL": 117,
            "POSITION": 116,
            "TEXCOORD_0": 118
          },
          "indices": 119,
          "material": 0,
          "mode": 4
        }
      ]
    },
    {
      "name": "Object_30",
      "primitives": [
        {
          "attributes": {
            "NORMAL": 121,
            "POSITION": 120,
            "TEXCOORD_0": 122
          },
          "indices": 123,
          "material": 0,
          "mode": 4
        }
      ]
    },
    {
      "name": "Object_31",
      "primitives": [
        {
          "attributes": {
            "NORMAL": 125,
            "POSITION": 124,
            "TEXCOORD_0": 126
          },
          "indices": 127,
          "material": 0,
          "mode": 4
        }
      ]
    },
    {
      "name": "Object_32",
      "primitives": [
        {
          "attributes": {
            "NORMAL": 129,
            "POSITION": 128,
            "TEXCOORD_0": 130
          },
          "indices": 131,
          "material": 0,
          "mode": 4
        }
      ]
    },
    {
      "name": "Object_33",
      "primitives": [
        {
          "attributes": {
            "NORMAL": 133,
            "POSITION": 132,
            "TEXCOORD_0": 134
          },
          "indices": 135,
          "material": 0,
          "mode": 4
        }
      ]
    },
    {
      "name": "Object_34",
      "primitives": [
        {
          "attributes": {
            "NORMAL": 137,
            "POSITION": 136,
            "TEXCOORD_0": 138
          },
          "indices": 139,
          "material": 0,
          "mode": 4
        }
      ]
    },
    {
      "name": "Object_35",
      "primitives": [
        {
          "attributes": {
            "NORMAL": 141,
            "POSITION": 140,
            "TEXCOORD_0": 142
          },
          "indices": 143,
          "material": 0,
          "mode": 4
        }
      ]
    },
    {
      "name": "Object_36",
      "primitives": [
        {
          "attributes": {
            "NORMAL": 145,
            "POSITION": 144,
            "TEXCOORD_0": 146
          },
          "indices": 147,
          "material": 0,
          "mode": 4
        }
      ]
    },
    {
      "name": "Object_37",
      "primitives": [
        {
          "attributes": {
            "NORMAL": 149,
            "POSITION": 148,
            "TEXCOORD_0": 150
          },
          "indices": 151,
          "material": 0,
          "mode": 4
        }
      ]
    },
    {
      "name": "Object_38",
      "primitives": [
        {
          "attributes": {
            "NORMAL": 153,
            "POSITION": 152,
            "TEXCOORD_0": 154
          },
          "indices": 155,
          "material": 0,
          "mode": 4
        }
      ]
    },
    {
      "name": "Object_39",
      "primitives": [
        {
          "attributes": {
            "NORMAL": 157,
            "POSITION": 156,
            "TEXCOORD_0": 158
          },
          "indices": 159,
          "material": 0,
          "mode": 4
        }
      ]
    },
    {
      "name": "Object_40",
      "primitives": [
        {
          "attributes": {
            "NORMAL": 161,
            "POSITION": 160,
            "TEXCOORD_0": 162
          },
          "indices": 163,
          "material": 0,
          "mode": 4
        }
      ]
    },
    {
      "name": "Object_41",
      "primitives": [
        {
          "attributes": {
            "NORMAL": 165,
            "POSITION": 164,
            "TEXCOORD_0": 166
          },
          "indices": 167,
          "material": 0,
          "mode": 4
        }
      ]
    },
    {
      "name": "Object_42",
      "primitives": [
        {
          "attributes": {
            "NORMAL": 169,
            "POSITION": 168,
            "TEXCOORD_0": 170
          },
          "indices": 171,
          "material": 0,
          "mode": 4
        }
      ]
    },
    {
      "name": "Object_43",
      "primitives": [
        {
          "attributes": {
            "NORMAL": 173,
            "POSITION": 172,
            "TEXCOORD_0": 174
          },
          "indices": 175,
          "material": 0,
          "mode": 4
        }
      ]
    },
    {
      "name": "Object_44",
      "primitives": [
        {
          "attributes": {
            "NORMAL": 177,
            "POSITION": 176,
            "TEXCOORD_0": 178
          },
          "indices": 179,
          "material": 0,
          "mode": 4
        }
      ]
    },
    {
      "name": "Object_45",
      "primitives": [
        {
          "attributes": {
            "NORMAL": 181,
            "POSITION": 180,
            "TEXCOORD_0": 182
          },
          "indices": 183,
          "material": 0,
          "mode": 4
        }
      ]
    },
    {
      "name": "Object_46",
      "primitives": [
        {
          "attributes": {
            "NORMAL": 185,
            "POSITION": 184,
            "TEXCOORD_0": 186
          },
          "indices": 187,
          "material": 0,
          "mode": 4
        }
      ]
    },
    {
      "name": "Object_47",
      "primitives": [
        {
          "attributes": {
            "NORMAL": 189,
            "POSITION": 188,
            "TEXCOORD_0": 190
          },
          "indices": 191,
          "material": 0,
          "mode": 4
        }
      ]
    }
  ],
  "nodes": [
    {
      "children": [
        1
      ],
      "matrix": [
        1.0,
        0.0,
        0.0,
        0.0,
        0.0,
        2.220446049250313e-16,
        -1.0,
        0.0,
        0.0,
        1.0,
        2.220446049250313e-16,
        0.0,
        0.0,
        0.0,
        0.0,
        1.0
      ],
      "name": "Sketchfab_model"
    },
    {
      "children": [
        2
      ],
      "name": "root"
    },
    {
      "children": [
        3,
        6,
        9,
        12,
        14,
        16,
        18,
        20,
        22,
        24,
        26,
        28,
        30,
        32,
        34,
        36,
        38,
        40,
        42,
        44,
        46,
        48,
        50,
        52,
        54,
        56,
        58,
        60,
        62,
        64,
        66,
        68,
        70,
        72,
        74,
        76,
        78,
        80,
        82,
        84,
        86,
        88,
        90,
        92,
        94,
        96,
        98,
        100
      ],
      "matrix": [
        1.0,
        0.0,
        0.0,
        0.0,
        0.0,
        2.220446049250313e-16,
        1.0,
        0.0,
        0.0,
        -1.0,
        2.220446049250313e-16,
        0.0,
        0.0,
        0.0,
        0.0,
        1.0
      ],
      "name": "GLTF_SceneRootNode"
    },
    {
      "children": [
        4
      ],
      "matrix": [
        1.0,
        0.0,
        0.0,
        0.0,
        0.0,
        1.0,
        0.0,
        0.0,
        0.0,
        0.0,
        1.0,
        0.0,
        31.508865356445313,
        7.528299808502197,
        15.73603630065918,
        1.0
      ],
      "name": "cluster_1"
    },
    {
      "children": [
        5
      ],
      "matrix": [
        0.7722214164793567,
        -0.1785297099397966,
        -0.6097550545911268,
        0.0,
        -0.035111409021087545,
        0.9462519183543964,
        -0.3215190444859818,
        0.0,
        0.6343825918853463,
        0.26969325108247877,
        0.7244475670698283,
        0.0,
        -1.3028907775878906,
        -7.385994911193848,
        2.114347457885742,
        1.0
      ],
      "name": "hill1.003_0"
    },
    {
      "mesh": 0,
      "name": "Object_5"
    },
    {
      "children": [
        7
      ],
      "matrix": [
        1.0,
        0.0,
        0.0,
        0.0,
        0.0,
        1.0,
        0.0,
        0.0,
        0.0,
        0.0,
        1.0,
        0.0,
        32.539756774902344,
        9.996280670166016,
        -19.149091720581055,
        1.0
      ],
      "name": "hill1.001_3"
    },
    {
      "children": [
        8
      ],
      "matrix": [
        1.0,
        0.0,
        0.0,
        0.0,
        0.0,
        1.0,
        0.0,
        0.0,
        0.0,
        0.0,
        1.0,
        0.0,
        0.0,
        -7.760024547576904,
        0.0,
        1.0
      ],
      "name": "hill1_2"
    },
    {
      "mesh": 1,
      "name": "Object_8"
    },
    {
      "children": [
        10
      ],
      "matrix": [
        1.0,
        0.0,
        0.0,
        0.0,
        0.0,
        1.0,
        0.0,
        0.0,
        0.0,
        0.0,
        1.0,
        0.0,
        31.49468231201172,
        11.877845764160156,
        -40.17470932006836,
        1.0
      ],
      "name": "hill.001_5"
    },
    {
      "children": [
        11
      ],
      "matrix": [
        1.0,
        0.0,
        0.0,
        0.0,
        0.0,
        1.0,
        0.0,
        0.0,
        0.0,
        0.0,
        1.0,
        0.0,
        0.0,
        -9.641590118408203,
        0.0,
        1.0
      ],
      "name": "hill_4"
    },
    {
      "mesh": 2,
      "name": "Object_11"
    },
    {
      "children": [
        13
      ],
      "matrix": [
        1.0,
        0.0,
        0.0,
        0.0,
        0.0,
        1.0,
        0.0,
        0.0,
        0.0,
        0.0,
        1.0,
        0.0,
        14.150906562805176,
        0.6682292819023132,
        -6.757339954376221,
        1.0
      ],
      "name": "bigrock_6"
    },
    {
      "mesh": 3,
      "name": "Object_13"
    },
    {
      "children": [
        15
      ],
      "matrix": [
        1.0,
        0.0,
        0.0,
        0.0,
        0.0,
        1.0,
        0.0,
        0.0,
        0.0,
        0.0,
        1.0,
        0.0,
        14.300605773925781,
        0.6086322069168091,
        -2.0277981758117676,
        1.0
      ],
      "name": "bigrock.002_7"
    },
    {
      "mesh": 4,
      "name": "Object_15"
    },
    {
      "children": [
        17
      ],
      "matrix": [
        1.0,
        0.0,
        0.0,
        0.0,
        0.0,
        1.0,
        0.0,
        0.0,
        0.0,
        0.0,
        1.0,
        0.0,
        14.434465408325195,
        0.7280376553535461,
        4.845949649810791,
        1.0
      ],
      "name": "bigrock.003_8"
    },
    {
      "mesh": 5,
      "name": "Object_17"
    },
    {
      "children": [
        19
      ],
      "matrix": [
        1.0,
        0.0,
        0.0,
        0.0,
        0.0,
        1.0,
        0.0,
        0.0,
        0.0,
        0.0,
        1.0,
        0.0,
        14.503957748413086,
        0.2616421580314636,
        -12.864423751831055,
        1.0
      ],
      "name": "flatrock_9"
    },
    {
      "mesh": 6,
      "name": "Object_19"
    },
    {
      "children": [
        21
      ],
      "matrix": [
        1.0,
        0.0,
        0.0,
        0.0,
        0.0,
        1.0,
        0.0,
        0.0,
        0.0,
        0.0,
        1.0,
        0.0,
        10.808260917663574,
        0.5324420928955078,
        4.693944454193115,
        1.0
      ],
      "name": "tallrock_10"
    },
    {
      "mesh": 7,
      "name": "Object_21"
    },
    {
      "children": [
        23
      ],
      "matrix": [
        1.0,
        0.0,
        0.0,
        0.0,
        0.0,
        1.0,
        0.0,
        0.0,
        0.0,
        0.0,
        1.0,
        0.0,
        19.212617874145508,
        0.2792476415634155,
        -18.211687088012695,
        1.0
      ],
      "name": "smallrock.004_11"
    },
    {
      "mesh": 8,
      "name": "Object_23"
    },
    {
      "children": [
        25
      ],
      "matrix": [
        1.0,
        0.0,
        0.0,
        0.0,
        0.0,
        1.0,
        0.0,
        0.0,
        0.0,
        0.0,
        1.0,
        0.0,
        14.22137451171875,
        0.7020978331565857,
        -18.027694702148438,
        1.0
      ],
      "name": "bigrock.001_12"
    },
    {
      "mesh": 9,
      "name": "Object_25"
    },
    {
      "children": [
        27
      ],
      "matrix": [
        1.0,
        0.0,
        0.0,
        0.0,
        0.0,
        1.0,
        0.0,
        0.0,
        0.0,
        0.0,
        1.0,
        0.0,
        18.713451385498047,
        0.2089051902294159,
        4.996692657470703,
        1.0
      ],
      "name": "smallrock.001_13"
    },
    {
      "mesh": 10,
      "name": "Object_27"
    },
    {
      "children": [
        29
      ],
      "matrix": [
        1.0,
        0.0,
        0.0,
        0.0,
        0.0,
        1.0,
        0.0,
        0.0,
        0.0,
        0.0,
        1.0,
        0.0,
        19.003738403320313,
        0.3370473086833954,
        -7.0359625816345215,
        1.0
      ],
      "name": "smallrock.002_14"
    },
    {
      "mesh": 11,
      "name": "Object_29"
    },
    {
      "children": [
        31
      ],
      "matrix": [
        1.0,
        0.0,
        0.0,
        0.0,
        0.0,
        1.0,
        0.0,
        0.0,
        0.0,
        0.0,
        1.0,
        0.0,
        19.20901870727539,
        0.2520347535610199,
        -12.535006523132324,
        1.0
      ],
      "name": "smallrock.003_15"
    },
    {
      "mesh": 12,
      "name": "Object_31"
    },
    {
      "children": [
        33
      ],
      "matrix": [
        1.0,
        0.0,
        0.0,
        0.0,
        0.0,
        1.0,
        0.0,
        0.0,
        0.0,
        0.0,
        1.0,
        0.0,
        18.750890731811523,
        0.37536174058914185,
        -2.0412933826446533,
        1.0
      ],
      "name": "smallrock_16"
    },
    {
      "mesh": 13,
      "name": "Object_33"
    },
    {
      "children": [
        35
      ],
      "matrix": [
        1.0,
        0.0,
        0.0,
        0.0,
        0.0,
        1.0,
        0.0,
        0.0,
        0.0,
        0.0,
        1.0,
        0.0,
        10.577293395996094,
        1.1311441659927368,
        -1.9339183568954468,
        1.0
      ],
      "name": "tallrock.001_17"
    },
    {
      "mesh": 14,
      "name": "Object_35"
    },
    {
      "children": [
        37
      ],
      "matrix": [
        1.0,
        0.0,
        0.0,
        0.0,
        0.0,
        1.0,
        0.0,
        0.0,
        0.0,
        0.0,
        1.0,
        0.0,
        10.4058198928833,
        1.201473593711853,
        -6.592077255249023,
        1.0
      ],
      "name": "tallrock.002_18"
    },
    {
      "mesh": 15,
      "name": "Object_37"
    },
    {
      "children": [
        39
      ],
      "matrix": [
        1.0,
        0.0,
        0.0,
        0.0,
        0.0,
        1.0,
        0.0,
        0.0,
        0.0,
        0.0,
        1.0,
        0.0,
        10.10254955291748,
        0.7740254402160645,
        -12.536334991455078,
        1.0
      ],
      "name": "tallrock.003_19"
    },
    {
      "mesh": 16,
      "name": "Object_39"
    },
    {
      "children": [
        41
      ],
      "matrix": [
        1.0,
        0.0,
        0.0,
        0.0,
        0.0,
        1.0,
        0.0,
        0.0,
        0.0,
        0.0,
        1.0,
        0.0,
        9.956374168395996,
        0.9883330464363098,
        -17.746158599853516,
        1.0
      ],
      "name": "tallrock.004_20"
    },
    {
      "mesh": 17,
      "name": "Object_41"
    },
    {
      "children": [
        43
      ],
      "matrix": [
        1.0,
        0.0,
        0.0,
        0.0,
        0.0,
        1.0,
        0.0,
        0.0,
        0.0,
        0.0,
        1.0,
        0.0,
        14.150906562805176,
        0.6682292819023132,
        22.09360694885254,
        1.0
      ],
      "name": "bigrock.004_21"
    },
    {
      "mesh": 18,
      "name": "Object_43"
    },
    {
      "children": [
        45
      ],
      "matrix": [
        1.0,
        0.0,
        0.0,
        0.0,
        0.0,
        1.0,
        0.0,
        0.0,
        0.0,
        0.0,
        1.0,
        0.0,
        14.300605773925781,
        0.6086322069168091,
        26.823148727416992,
        1.0
      ],
      "name": "bigrock.005_22"
    },
    {
      "mesh": 19,
      "name": "Object_45"
    },
    {
      "children": [
        47
      ],
      "matrix": [
        1.0,
        0.0,
        0.0,
        0.0,
        0.0,
        1.0,
        0.0,
        0.0,
        0.0,
        0.0,
        1.0,
        0.0,
        14.434465408325195,
        0.7280376553535461,
        33.696895599365234,
        1.0
      ],
      "name": "bigrock.006_23"
    },
    {
      "mesh": 20,
      "name": "Object_47"
    },
    {
      "children": [
        49
      ],
      "matrix": [
        1.0,
        0.0,
        0.0,
        0.0,
        0.0,
        1.0,
        0.0,
        0.0,
        0.0,
        0.0,
        1.0,
        0.0,
        14.503957748413086,
        0.2616421580314636,
        15.986520767211914,
        1.0
      ],
      "name": "flatrock.001_24"
    },
    {
      "mesh": 21,
      "name": "Object_49"
    },
    {
      "children": [
        51
      ],
      "matrix": [
        1.0,
        0.0,
        0.0,
        0.0,
        0.0,
        1.0,
        0.0,
        0.0,
        0.0,
        0.0,
        1.0,
        0.0,
        10.808260917663574,
        0.5324420928955078,
        33.544891357421875,
        1.0
      ],
      "name": "tallrock.005_25"
    },
    {
      "mesh": 22,
      "name": "Object_51"
    },
    {
      "children": [
        53
      ],
      "matrix": [
        1.0,
        0.0,
        0.0,
        0.0,
        0.0,
        1.0,
        0.0,
        0.0,
        0.0,
        0.0,
        1.0,
        0.0,
        19.212617874145508,
        0.2792476415634155,
        10.639257431030273,
        1.0
      ],
      "name": "smallrock.005_26"
    },
    {
      "mesh": 23,
      "name": "Object_53"
    },
    {
      "children": [
        55
      ],
      "matrix": [
        1.0,
        0.0,
        0.0,
        0.0,
        0.0,
        1.0,
        0.0,
        0.0,
        0.0,
        0.0,
        1.0,
        0.0,
        14.22137451171875,
        0.7020978331565857,
        10.823249816894531,
        1.0
      ],
      "name": "bigrock.007_27"
    },
    {
      "mesh": 24,
      "name": "Object_55"
    },
    {
      "children": [
        57
      ],
      "matrix": [
        1.0,
        0.0,
        0.0,
        0.0,
        0.0,
        1.0,
        0.0,
        0.0,
        0.0,
        0.0,
        1.0,
        0.0,
        18.713451385498047,
        0.2089051902294159,
        33.84764099121094,
        1.0
      ],
      "name": "smallrock.006_28"
    },
    {
      "mesh": 25,
      "name": "Object_57"
    },
    {
      "children": [
        59
      ],
      "matrix": [
        1.0,
        0.0,
        0.0,
        0.0,
        0.0,
        1.0,
        0.0,
        0.0,
        0.0,
        0.0,
        1.0,
        0.0,
        19.003738403320313,
        0.3370473086833954,
        21.814985275268555,
        1.0
      ],
      "name": "smallrock.007_29"
    },
    {
      "mesh": 26,
      "name": "Object_59"
    },
    {
      "children": [
        61
      ],
      "matrix": [
        1.0,
        0.0,
        0.0,
        0.0,
        0.0,
        1.0,
        0.0,
        0.0,
        0.0,
        0.0,
        1.0,
        0.0,
        19.20901870727539,
        0.2520347535610199,
        16.315937042236328,
        1.0
      ],
      "name": "smallrock.008_30"
    },
    {
      "mesh": 27,
      "name": "Object_61"
    },
    {
      "children": [
        63
      ],
      "matrix": [
        1.0,
        0.0,
        0.0,
        0.0,
        0.0,
        1.0,
        0.0,
        0.0,
        0.0,
        0.0,
        1.0,
        0.0,
        18.750890731811523,
        0.37536174058914185,
        26.809650421142578,
        1.0
      ],
      "name": "smallrock.009_31"
    },
    {
      "mesh": 28,
      "name": "Object_63"
    },
    {
      "children": [
        65
      ],
      "matrix": [
        1.0,
        0.0,
        0.0,
        0.0,
        0.0,
        1.0,
        0.0,
        0.0,
        0.0,
        0.0,
        1.0,
        0.0,
        10.577293395996094,
        1.1311441659927368,
        26.917024612426758,
        1.0
      ],
      "name": "tallrock.006_32"
    },
    {
      "mesh": 29,
      "name": "Object_65"
    },
    {
      "children": [
        67
      ],
      "matrix": [
        1.0,
        0.0,
        0.0,
        0.0,
        0.0,
        1.0,
        0.0,
        0.0,
        0.0,
        0.0,
        1.0,
        0.0,
        10.4058198928833,
        1.201473593711853,
        22.258867263793945,
        1.0
      ],
      "name": "tallrock.007_33"
    },
    {
      "mesh": 30,
      "name": "Object_67"
    },
    {
      "children": [
        69
      ],
      "matrix": [
        1.0,
        0.0,
        0.0,
        0.0,
        0.0,
        1.0,
        0.0,
        0.0,
        0.0,
        0.0,
        1.0,
        0.0,
        10.10254955291748,
        0.7740254402160645,
        16.314607620239258,
        1.0
      ],
      "name": "tallrock.008_34"
    },
    {
      "mesh": 31,
      "name": "Object_69"
    },
    {
      "children": [
        71
      ],
      "matrix": [
        1.0,
        0.0,
        0.0,
        0.0,
        0.0,
        1.0,
        0.0,
        0.0,
        0.0,
        0.0,
        1.0,
        0.0,
        9.956374168395996,
        0.9883330464363098,
        11.104784965515137,
        1.0
      ],
      "name": "tallrock.009_35"
    },
    {
      "mesh": 32,
      "name": "Object_71"
    },
    {
      "children": [
        73
      ],
      "matrix": [
        1.0,
        0.0,
        0.0,
        0.0,
        0.0,
        1.0,
        0.0,
        0.0,
        0.0,
        0.0,
        1.0,
        0.0,
        14.150906562805176,
        0.6682292819023132,
        -36.31906509399414,
        1.0
      ],
      "name": "bigrock.008_36"
    },
    {
      "mesh": 33,
      "name": "Object_73"
    },
    {
      "children": [
        75
      ],
      "matrix": [
        1.0,
        0.0,
        0.0,
        0.0,
        0.0,
        1.0,
        0.0,
        0.0,
        0.0,
        0.0,
        1.0,
        0.0,
        14.300605773925781,
        0.6086322069168091,
        -31.589519500732422,
        1.0
      ],
      "name": "bigrock.009_37"
    },
    {
      "mesh": 34,
      "name": "Object_75"
    },
    {
      "children": [
        77
      ],
      "matrix": [
        1.0,
        0.0,
        0.0,
        0.0,
        0.0,
        1.0,
        0.0,
        0.0,
        0.0,
        0.0,
        1.0,
        0.0,
        14.434465408325195,
        0.7280376553535461,
        -24.71578025817871,
        1.0
      ],
      "name": "bigrock.010_38"
    },
    {
      "mesh": 35,
      "name": "Object_77"
    },
    {
      "children": [
        79
      ],
      "matrix": [
        1.0,
        0.0,
        0.0,
        0.0,
        0.0,
        1.0,
        0.0,
        0.0,
        0.0,
        0.0,
        1.0,
        0.0,
        14.503957748413086,
        0.2616421580314636,
        -42.426151275634766,
        1.0
      ],
      "name": "flatrock.002_39"
    },
    {
      "mesh": 36,
      "name": "Object_79"
    },
    {
      "children": [
        81
      ],
      "matrix": [
        1.0,
        0.0,
        0.0,
        0.0,
        0.0,
        1.0,
        0.0,
        0.0,
        0.0,
        0.0,
        1.0,
        0.0,
        10.808260917663574,
        0.5324420928955078,
        -24.867782592773438,
        1.0
      ],
      "name": "tallrock.010_40"
    },
    {
      "mesh": 37,
      "name": "Object_81"
    },
    {
      "children": [
        83
      ],
      "matrix": [
        1.0,
        0.0,
        0.0,
        0.0,
        0.0,
        1.0,
        0.0,
        0.0,
        0.0,
        0.0,
        1.0,
        0.0,
        19.212617874145508,
        0.2792476415634155,
        -47.77341079711914,
        1.0
      ],
      "name": "smallrock.010_41"
    },
    {
      "mesh": 38,
      "name": "Object_83"
    },
    {
      "children": [
        85
      ],
      "matrix": [
        1.0,
        0.0,
        0.0,
        0.0,
        0.0,
        1.0,
        0.0,
        0.0,
        0.0,
        0.0,
        1.0,
        0.0,
        14.22137451171875,
        0.7020978331565857,
        -47.58942413330078,
        1.0
      ],
      "name": "bigrock.011_42"
    },
    {
      "mesh": 39,
      "name": "Object_85"
    },
    {
      "children": [
        87
      ],
      "matrix": [
        1.0,
        0.0,
        0.0,
        0.0,
        0.0,
        1.0,
        0.0,
        0.0,
        0.0,
        0.0,
        1.0,
        0.0,
        18.713451385498047,
        0.2089051902294159,
        -24.565031051635742,
        1.0
      ],
      "name": "smallrock.011_43"
    },
    {
      "mesh": 40,
      "name": "Object_87"
    },
    {
      "children": [
        89
      ],
      "matrix": [
        1.0,
        0.0,
        0.0,
        0.0,
        0.0,
        1.0,
        0.0,
        0.0,
        0.0,
        0.0,
        1.0,
        0.0,
        19.003738403320313,
        0.3370473086833954,
        -36.597686767578125,
        1.0
      ],
      "name": "smallrock.012_44"
    },
    {
      "mesh": 41,
      "name": "Object_89"
    },
    {
      "children": [
        91
      ],
      "matrix": [
        1.0,
        0.0,
        0.0,
        0.0,
        0.0,
        1.0,
        0.0,
        0.0,
        0.0,
        0.0,
        1.0,
        0.0,
        19.20901870727539,
        0.2520347535610199,
        -42.09673309326172,
        1.0
      ],
      "name": "smallrock.013_45"
    },
    {
      "mesh": 42,
      "name": "Object_91"
    },
    {
      "children": [
        93
      ],
      "matrix": [
        1.0,
        0.0,
        0.0,
        0.0,
        0.0,
        1.0,
        0.0,
        0.0,
        0.0,
        0.0,
        1.0,
        0.0,
        18.750890731811523,
        0.37536174058914185,
        -31.603015899658203,
        1.0
      ],
      "name": "smallrock.014_46"
    },
    {
      "mesh": 43,
      "name": "Object_93"
    },
    {
      "children": [
        95
      ],
      "matrix": [
        1.0,
        0.0,
        0.0,
        0.0,
        0.0,
        1.0,
        0.0,
        0.0,
        0.0,
        0.0,
        1.0,
        0.0,
        10.577293395996094,
        1.1311441659927368,
        -31.49563980102539,
        1.0
      ],
      "name": "tallrock.011_47"
    },
    {
      "mesh": 44,
      "name": "Object_95"
    },
    {
      "children": [
        97
      ],
      "matrix": [
        1.0,
        0.0,
        0.0,
        0.0,
        0.0,
        1.0,
        0.0,
        0.0,
        0.0,
        0.0,
        1.0,
        0.0,
        10.4058198928833,
        1.201473593711853,
        -36.153804779052734,
        1.0
      ],
      "name": "tallrock.012_48"
    },
    {
      "mesh": 45,
      "name": "Object_97"
    },
    {
      "children": [
        99
      ],
      "matrix": [
        1.0,
        0.0,
        0.0,
        0.0,
        0.0,
        1.0,
        0.0,
        0.0,
        0.0,
        0.0,
        1.0,
        0.0,
        10.10254955291748,
        0.7740254402160645,
        -42.09806442260742,
        1.0
      ],
      "name": "tallrock.013_49"
    },
    {
      "mesh": 46,
      "name": "Object_99"
    },
    {
      "children": [
        101
      ],
      "matrix": [
        1.0,
        0.0,
        0.0,
        0.0,
        0.0,
        1.0,
        0.0,
        0.0,
        0.0,
        0.0,
        1.0,
        0.0,
        9.956374168395996,
        0.9883330464363098,
        -47.30788803100586,
        1.0
      ],
      "name": "tallrock.014_50"
    },
    {
      "mesh": 47,
      "name": "Object_101"
    }
  ],
  "samplers": [
    {
      "magFilter": 9729,
      "minFilter": 9987,
      "wrapS": 10497,
      "wrapT": 10497
    }
  ],
  "scene": 0,
  "scenes": [
    {
      "name": "Sketchfab_Scene",
      "nodes": [
        0
      ]
    }
  ],
  "textures": [
    {
      "sampler": 0,
      "source": 0
    }
  ]
}
