{
    "asset" : {
        "generator" : "Khronos glTF Blender I/O v3.2.43",
        "version" : "2.0"
    },
    "scene" : 0,
    "scenes" : [
        {
            "name" : "Scene",
            "nodes" : [
                0,
                1,
                2,
                3,
                4,
                5,
                6,
                7,
                8,
                9,
                10,
                11,
                12,
                13
            ]
        }
    ],
    "nodes" : [
        {
            "mesh" : 0,
            "name" : "S_CaveRock01",
            "translation" : [
                -32.2324104309082,
                0.31487247347831726,
                -14.41930866241455
            ]
        },
        {
            "mesh" : 1,
            "name" : "S_CaveRock02",
            "translation" : [
                -25.946819305419922,
                0.0755351111292839,
                -14.305766105651855
            ]
        },
        {
            "mesh" : 2,
            "name" : "S_CaveRock03",
            "translation" : [
                -18.110780715942383,
                0.03196096420288086,
                -14.459878921508789
            ]
        },
        {
            "mesh" : 3,
            "name" : "S_CaveRockColumn",
            "translation" : [
                -12.410370826721191,
                0.029773663729429245,
                -14.398682594299316
            ]
        },
        {
            "mesh" : 4,
            "name" : "S_CaveRockSpear01",
            "translation" : [
                -8.252679824829102,
                0.029224535450339317,
                -14.402363777160645
            ]
        },
        {
            "mesh" : 5,
            "name" : "S_CaveRockSpear03",
            "translation" : [
                -4.639415264129639,
                0.03991217166185379,
                -14.4753999710083
            ]
        },
        {
            "mesh" : 6,
            "name" : "S_CaveRockSpear04",
            "translation" : [
                -1.1745028495788574,
                0.07143878191709518,
                -14.3900728225708
            ]
        },
        {
            "mesh" : 7,
            "name" : "S_CaveTopSpears01",
            "translation" : [
                1.3185744285583496,
                7.357160568237305,
                0.14453957974910736
            ]
        },
        {
            "mesh" : 8,
            "name" : "S_CaveTopSpears02",
            "translation" : [
                11.420100212097168,
                7.421293258666992,
                -0.3885004222393036
            ]
        },
        {
            "mesh" : 9,
            "name" : "S_CaveWallCorner01",
            "translation" : [
                -17.458099365234375,
                0.029864255338907242,
                0.7081222534179688
            ]
        },
        {
            "mesh" : 10,
            "name" : "S_CaveWallCorner02",
            "translation" : [
                -6.4493560791015625,
                0.014488319866359234,
                0.975245475769043
            ]
        },
        {
            "mesh" : 11,
            "name" : "S_CaveWall01",
            "translation" : [
                6.368203163146973,
                0.028121449053287506,
                -13.849609375
            ]
        },
        {
            "mesh" : 12,
            "name" : "S_CaveWall02",
            "translation" : [
                15.862013816833496,
                0.030007297173142433,
                -14.024897575378418
            ]
        },
        {
            "mesh" : 13,
            "name" : "S_CaveWall03",
            "translation" : [
                26.413681030273438,
                0.036629900336265564,
                -13.94723129272461
            ]
        }
    ],
    "materials" : [
        {
            "doubleSided" : true,
            "name" : "T_CaveSetGround",
            "normalTexture" : {
                "index" : 0,
                "scale" : 0.800000011920929
            },
            "pbrMetallicRoughness" : {
                "baseColorTexture" : {
                    "index" : 1
                },
                "metallicFactor" : 0,
                "roughnessFactor" : 0.5
            }
        },
        {
            "doubleSided" : true,
            "name" : "T_CaveSetTop",
            "normalTexture" : {
                "index" : 2,
                "scale" : 0.800000011920929
            },
            "pbrMetallicRoughness" : {
                "baseColorTexture" : {
                    "index" : 3
                },
                "metallicFactor" : 0,
                "roughnessFactor" : 0.5
            }
        },
        {
            "doubleSided" : true,
            "name" : "T_CaveSetWall02",
            "normalTexture" : {
                "index" : 4,
                "scale" : 0.800000011920929
            },
            "pbrMetallicRoughness" : {
                "baseColorTexture" : {
                    "index" : 5
                },
                "metallicFactor" : 0,
                "roughnessFactor" : 0.5
            }
        },
        {
            "doubleSided" : true,
            "name" : "T_CaveSetWall01",
            "normalTexture" : {
                "index" : 6,
                "scale" : 0.800000011920929
            },
            "pbrMetallicRoughness" : {
                "baseColorTexture" : {
                    "index" : 7
                },
                "metallicFactor" : 0,
                "roughnessFactor" : 0.5
            }
        }
    ],
    "meshes" : [
        {
            "name" : "S_CaveRock01",
            "primitives" : [
                {
                    "attributes" : {
                        "POSITION" : 0,
                        "NORMAL" : 1,
                        "TEXCOORD_0" : 2,
                        "COLOR_0" : 3
                    },
                    "indices" : 4,
                    "material" : 0
                }
            ]
        },
        {
            "name" : "S_CaveRock02",
            "primitives" : [
                {
                    "attributes" : {
                        "POSITION" : 5,
                        "NORMAL" : 6,
                        "TEXCOORD_0" : 7,
                        "COLOR_0" : 8
                    },
                    "indices" : 9,
                    "material" : 0
                }
            ]
        },
        {
            "name" : "S_CaveRock03",
            "primitives" : [
                {
                    "attributes" : {
                        "POSITION" : 10,
                        "NORMAL" : 11,
                        "TEXCOORD_0" : 12,
                        "COLOR_0" : 13
                    },
                    "indices" : 14,
                    "material" : 0
                }
            ]
        },
        {
            "name" : "S_CaveRockColumn.001",
            "primitives" : [
                {
                    "attributes" : {
                        "POSITION" : 15,
                        "NORMAL" : 16,
                        "TEXCOORD_0" : 17,
                        "COLOR_0" : 18
                    },
                    "indices" : 19,
                    "material" : 0
                }
            ]
        },
        {
            "name" : "S_CaveRockSpear01",
            "primitives" : [
                {
                    "attributes" : {
                        "POSITION" : 20,
                        "NORMAL" : 21,
                        "TEXCOORD_0" : 22,
                        "COLOR_0" : 23
                    },
                    "indices" : 24,
                    "material" : 0
                }
            ]
        },
        {
            "name" : "S_CaveRockSpear03",
            "primitives" : [
                {
                    "attributes" : {
                        "POSITION" : 25,
                        "NORMAL" : 26,
                        "TEXCOORD_0" : 27,
                        "COLOR_0" : 28
                    },
                    "indices" : 29,
                    "material" : 0
                }
            ]
        },
        {
            "name" : "S_CaveRockSpear04",
            "primitives" : [
                {
                    "attributes" : {
                        "POSITION" : 30,
                        "NORMAL" : 31,
                        "TEXCOORD_0" : 32,
                        "COLOR_0" : 33
                    },
                    "indices" : 34,
                    "material" : 0
                }
            ]
        },
        {
            "name" : "S_CaveTopSpears01",
            "primitives" : [
                {
                    "attributes" : {
                        "POSITION" : 35,
                        "NORMAL" : 36,
                        "TEXCOORD_0" : 37,
                        "COLOR_0" : 38
                    },
                    "indices" : 39,
                    "material" : 1
                }
            ]
        },
        {
            "name" : "S_CaveTopSpears02",
            "primitives" : [
                {
                    "attributes" : {
                        "POSITION" : 40,
                        "NORMAL" : 41,
                        "TEXCOORD_0" : 42,
                        "COLOR_0" : 43
                    },
                    "indices" : 44,
                    "material" : 1
                }
            ]
        },
        {
            "name" : "S_CaveWallCorner01",
            "primitives" : [
                {
                    "attributes" : {
                        "POSITION" : 45,
                        "NORMAL" : 46,
                        "TEXCOORD_0" : 47,
                        "COLOR_0" : 48
                    },
                    "indices" : 49,
                    "material" : 2
                }
            ]
        },
        {
            "name" : "S_CaveWallCorner02",
            "primitives" : [
                {
                    "attributes" : {
                        "POSITION" : 50,
                        "NORMAL" : 51,
                        "TEXCOORD_0" : 52,
                        "COLOR_0" : 53
                    },
                    "indices" : 54,
                    "material" : 2
                }
            ]
        },
        {
            "name" : "S_CaveWall01",
            "primitives" : [
                {
                    "attributes" : {
                        "POSITION" : 55,
                        "NORMAL" : 56,
                        "TEXCOORD_0" : 57,
                        "COLOR_0" : 58
                    },
                    "indices" : 59,
                    "material" : 3
                }
            ]
        },
        {
            "name" : "S_CaveWall02",
            "primitives" : [
                {
                    "attributes" : {
                        "POSITION" : 60,
                        "NORMAL" : 61,
                        "TEXCOORD_0" : 62,
                        "COLOR_0" : 63
                    },
                    "indices" : 64,
                    "material" : 3
                }
            ]
        },
        {
            "name" : "S_CaveWall03",
            "primitives" : [
                {
                    "attributes" : {
                        "POSITION" : 65,
                        "NORMAL" : 66,
                        "TEXCOORD_0" : 67,
                        "COLOR_0" : 68
                    },
                    "indices" : 69,
                    "material" : 3
                }
            ]
        }
    ],
    "textures" : [
        {
            "sampler" : 0,
            "source" : 0
        },
        {
            "sampler" : 0,
            "source" : 1
        },
        {
            "sampler" : 0,
            "source" : 2
        },
        {
            "sampler" : 0,
            "source" : 3
        },
        {
            "sampler" : 0,
            "source" : 4
        },
        {
            "sampler" : 0,
            "source" : 5
        },
        {
            "sampler" : 0,
            "source" : 6
        },
        {
            "sampler" : 0,
            "source" : 7
        }
    ],
    "images" : [
        {
            "mimeType" : "image/png",
            "name" : "T_CaveSetGround_Normal",
            "uri" : "T_CaveSetGround_Normal.png"
        },
        {
            "mimeType" : "image/png",
            "name" : "T_CaveSetGround_BaseMap",
            "uri" : "T_CaveSetGround_BaseMap.png"
        },
        {
            "mimeType" : "image/png",
            "name" : "T_CaveSetTop_Normal",
            "uri" : "T_CaveSetTop_Normal.png"
        },
        {
            "mimeType" : "image/png",
            "name" : "T_CaveSetTop_BaseMap",
            "uri" : "T_CaveSetTop_BaseMap.png"
        },
        {
            "mimeType" : "image/png",
            "name" : "T_CaveSetWall02_Normal",
            "uri" : "T_CaveSetWall02_Normal.png"
        },
        {
            "mimeType" : "image/png",
            "name" : "T_CaveSetWall02_BaseMap",
            "uri" : "T_CaveSetWall02_BaseMap.png"
        },
        {
            "mimeType" : "image/png",
            "name" : "T_CaveSetWall01_Normal",
            "uri" : "T_CaveSetWall01_Normal.png"
        },
        {
            "mimeType" : "image/png",
            "name" : "T_CaveSetWall01_BaseMap",
            "uri" : "T_CaveSetWall01_BaseMap.png"
        }
    ],
    "accessors" : [
        {
            "bufferView" : 0,
            "componentType" : 5126,
            "count" : 202,
            "max" : [
                1.2866935729980469,
                1.5904779434204102,
                1.2771825790405273
            ],
            "min" : [
                -1.4251327514648438,
                -1.509163737297058,
                -1.2995529174804688
            ],
            "type" : "VEC3"
        },
        {
            "bufferView" : 1,
            "componentType" : 5126,
            "count" : 202,
            "type" : "VEC3"
        },
        {
            "bufferView" : 2,
            "componentType" : 5126,
            "count" : 202,
            "type" : "VEC2"
        },
        {
            "bufferView" : 3,
            "componentType" : 5123,
            "count" : 202,
            "normalized" : true,
            "type" : "VEC4"
        },
        {
            "bufferView" : 4,
            "componentType" : 5123,
            "count" : 1050,
            "type" : "SCALAR"
        },
        {
            "bufferView" : 5,
            "componentType" : 5126,
            "count" : 185,
            "max" : [
                3.3300247192382812,
                1.6390628814697266,
                2.3590145111083984
            ],
            "min" : [
                -2.879405975341797,
                -0.0373639278113842,
                -2.7070207595825195
            ],
            "type" : "VEC3"
        },
        {
            "bufferView" : 6,
            "componentType" : 5126,
            "count" : 185,
            "type" : "VEC3"
        },
        {
            "bufferView" : 7,
            "componentType" : 5126,
            "count" : 185,
            "type" : "VEC2"
        },
        {
            "bufferView" : 8,
            "componentType" : 5123,
            "count" : 185,
            "normalized" : true,
            "type" : "VEC4"
        },
        {
            "bufferView" : 9,
            "componentType" : 5123,
            "count" : 990,
            "type" : "SCALAR"
        },
        {
            "bufferView" : 10,
            "componentType" : 5126,
            "count" : 82,
            "max" : [
                1.6972503662109375,
                0.7604739665985107,
                1.5648479461669922
            ],
            "min" : [
                -1.6523752212524414,
                -0.03356412053108215,
                -1.6346359252929688
            ],
            "type" : "VEC3"
        },
        {
            "bufferView" : 11,
            "componentType" : 5126,
            "count" : 82,
            "type" : "VEC3"
        },
        {
            "bufferView" : 12,
            "componentType" : 5126,
            "count" : 82,
            "type" : "VEC2"
        },
        {
            "bufferView" : 13,
            "componentType" : 5123,
            "count" : 82,
            "normalized" : true,
            "type" : "VEC4"
        },
        {
            "bufferView" : 14,
            "componentType" : 5123,
            "count" : 426,
            "type" : "SCALAR"
        },
        {
            "bufferView" : 15,
            "componentType" : 5126,
            "count" : 158,
            "max" : [
                0.868126392364502,
                5.589827537536621,
                0.9292201995849609
            ],
            "min" : [
                -0.8563308715820312,
                -0.0040659792721271515,
                -0.8147468566894531
            ],
            "type" : "VEC3"
        },
        {
            "bufferView" : 16,
            "componentType" : 5126,
            "count" : 158,
            "type" : "VEC3"
        },
        {
            "bufferView" : 17,
            "componentType" : 5126,
            "count" : 158,
            "type" : "VEC2"
        },
        {
            "bufferView" : 18,
            "componentType" : 5123,
            "count" : 158,
            "normalized" : true,
            "type" : "VEC4"
        },
        {
            "bufferView" : 19,
            "componentType" : 5123,
            "count" : 756,
            "type" : "SCALAR"
        },
        {
            "bufferView" : 20,
            "componentType" : 5126,
            "count" : 158,
            "max" : [
                0.4961817264556885,
                3.5381276607513428,
                0.5830802917480469
            ],
            "min" : [
                -0.5508975982666016,
                -0.029383886605501175,
                -0.4693717956542969
            ],
            "type" : "VEC3"
        },
        {
            "bufferView" : 21,
            "componentType" : 5126,
            "count" : 158,
            "type" : "VEC3"
        },
        {
            "bufferView" : 22,
            "componentType" : 5126,
            "count" : 158,
            "type" : "VEC2"
        },
        {
            "bufferView" : 23,
            "componentType" : 5123,
            "count" : 158,
            "normalized" : true,
            "type" : "VEC4"
        },
        {
            "bufferView" : 24,
            "componentType" : 5123,
            "count" : 756,
            "type" : "SCALAR"
        },
        {
            "bufferView" : 25,
            "componentType" : 5126,
            "count" : 242,
            "max" : [
                0.6677836775779724,
                2.5591211318969727,
                0.5867080688476562
            ],
            "min" : [
                -0.46199947595596313,
                0.005113337188959122,
                -0.6947669982910156
            ],
            "type" : "VEC3"
        },
        {
            "bufferView" : 26,
            "componentType" : 5126,
            "count" : 242,
            "type" : "VEC3"
        },
        {
            "bufferView" : 27,
            "componentType" : 5126,
            "count" : 242,
            "type" : "VEC2"
        },
        {
            "bufferView" : 28,
            "componentType" : 5123,
            "count" : 242,
            "normalized" : true,
            "type" : "VEC4"
        },
        {
            "bufferView" : 29,
            "componentType" : 5123,
            "count" : 1089,
            "type" : "SCALAR"
        },
        {
            "bufferView" : 30,
            "componentType" : 5126,
            "count" : 338,
            "max" : [
                0.6093630790710449,
                1.0758403539657593,
                0.6055049896240234
            ],
            "min" : [
                -0.5740065574645996,
                -0.009496919810771942,
                -0.5782060623168945
            ],
            "type" : "VEC3"
        },
        {
            "bufferView" : 31,
            "componentType" : 5126,
            "count" : 338,
            "type" : "VEC3"
        },
        {
            "bufferView" : 32,
            "componentType" : 5126,
            "count" : 338,
            "type" : "VEC2"
        },
        {
            "bufferView" : 33,
            "componentType" : 5123,
            "count" : 338,
            "normalized" : true,
            "type" : "VEC4"
        },
        {
            "bufferView" : 34,
            "componentType" : 5123,
            "count" : 1377,
            "type" : "SCALAR"
        },
        {
            "bufferView" : 35,
            "componentType" : 5126,
            "count" : 702,
            "max" : [
                2.436296224594116,
                0.10117769241333008,
                1.7647433280944824
            ],
            "min" : [
                -2.101090908050537,
                -2.501152515411377,
                -1.9674564599990845
            ],
            "type" : "VEC3"
        },
        {
            "bufferView" : 36,
            "componentType" : 5126,
            "count" : 702,
            "type" : "VEC3"
        },
        {
            "bufferView" : 37,
            "componentType" : 5126,
            "count" : 702,
            "type" : "VEC2"
        },
        {
            "bufferView" : 38,
            "componentType" : 5123,
            "count" : 702,
            "normalized" : true,
            "type" : "VEC4"
        },
        {
            "bufferView" : 39,
            "componentType" : 5123,
            "count" : 3546,
            "type" : "SCALAR"
        },
        {
            "bufferView" : 40,
            "componentType" : 5126,
            "count" : 3032,
            "max" : [
                5.664525032043457,
                0.09216165542602539,
                4.58168888092041
            ],
            "min" : [
                -5.292636394500732,
                -5.909564971923828,
                -4.281188011169434
            ],
            "type" : "VEC3"
        },
        {
            "bufferView" : 41,
            "componentType" : 5126,
            "count" : 3032,
            "type" : "VEC3"
        },
        {
            "bufferView" : 42,
            "componentType" : 5126,
            "count" : 3032,
            "type" : "VEC2"
        },
        {
            "bufferView" : 43,
            "componentType" : 5123,
            "count" : 3032,
            "normalized" : true,
            "type" : "VEC4"
        },
        {
            "bufferView" : 44,
            "componentType" : 5123,
            "count" : 15576,
            "type" : "SCALAR"
        },
        {
            "bufferView" : 45,
            "componentType" : 5126,
            "count" : 921,
            "max" : [
                4.210933685302734,
                6.439737796783447,
                2.334723472595215
            ],
            "min" : [
                -4.022613525390625,
                -0.05752912163734436,
                -0.8809032440185547
            ],
            "type" : "VEC3"
        },
        {
            "bufferView" : 46,
            "componentType" : 5126,
            "count" : 921,
            "type" : "VEC3"
        },
        {
            "bufferView" : 47,
            "componentType" : 5126,
            "count" : 921,
            "type" : "VEC2"
        },
        {
            "bufferView" : 48,
            "componentType" : 5123,
            "count" : 921,
            "normalized" : true,
            "type" : "VEC4"
        },
        {
            "bufferView" : 49,
            "componentType" : 5123,
            "count" : 5220,
            "type" : "SCALAR"
        },
        {
            "bufferView" : 50,
            "componentType" : 5126,
            "count" : 873,
            "max" : [
                3.4613876342773438,
                6.655160903930664,
                1.9373693466186523
            ],
            "min" : [
                -3.9690895080566406,
                -0.06506183743476868,
                -1.0971202850341797
            ],
            "type" : "VEC3"
        },
        {
            "bufferView" : 51,
            "componentType" : 5126,
            "count" : 873,
            "type" : "VEC3"
        },
        {
            "bufferView" : 52,
            "componentType" : 5126,
            "count" : 873,
            "type" : "VEC2"
        },
        {
            "bufferView" : 53,
            "componentType" : 5123,
            "count" : 873,
            "normalized" : true,
            "type" : "VEC4"
        },
        {
            "bufferView" : 54,
            "componentType" : 5123,
            "count" : 4692,
            "type" : "SCALAR"
        },
        {
            "bufferView" : 55,
            "componentType" : 5126,
            "count" : 795,
            "max" : [
                3.8588476181030273,
                6.024783611297607,
                1.0127382278442383
            ],
            "min" : [
                -3.90714168548584,
                -0.022966258227825165,
                -1.639155387878418
            ],
            "type" : "VEC3"
        },
        {
            "bufferView" : 56,
            "componentType" : 5126,
            "count" : 795,
            "type" : "VEC3"
        },
        {
            "bufferView" : 57,
            "componentType" : 5126,
            "count" : 795,
            "type" : "VEC2"
        },
        {
            "bufferView" : 58,
            "componentType" : 5123,
            "count" : 795,
            "normalized" : true,
            "type" : "VEC4"
        },
        {
            "bufferView" : 59,
            "componentType" : 5123,
            "count" : 4296,
            "type" : "SCALAR"
        },
        {
            "bufferView" : 60,
            "componentType" : 5126,
            "count" : 698,
            "max" : [
                3.4802322387695312,
                6.362754821777344,
                1.734689712524414
            ],
            "min" : [
                -3.314910888671875,
                -0.021364960819482803,
                -1.5526866912841797
            ],
            "type" : "VEC3"
        },
        {
            "bufferView" : 61,
            "componentType" : 5126,
            "count" : 698,
            "type" : "VEC3"
        },
        {
            "bufferView" : 62,
            "componentType" : 5126,
            "count" : 698,
            "type" : "VEC2"
        },
        {
            "bufferView" : 63,
            "componentType" : 5123,
            "count" : 698,
            "normalized" : true,
            "type" : "VEC4"
        },
        {
            "bufferView" : 64,
            "componentType" : 5123,
            "count" : 3756,
            "type" : "SCALAR"
        },
        {
            "bufferView" : 65,
            "componentType" : 5126,
            "count" : 748,
            "max" : [
                4.424854278564453,
                6.50754451751709,
                1.3132543563842773
            ],
            "min" : [
                -4.440525054931641,
                -0.10874728113412857,
                -1.7425718307495117
            ],
            "type" : "VEC3"
        },
        {
            "bufferView" : 66,
            "componentType" : 5126,
            "count" : 748,
            "type" : "VEC3"
        },
        {
            "bufferView" : 67,
            "componentType" : 5126,
            "count" : 748,
            "type" : "VEC2"
        },
        {
            "bufferView" : 68,
            "componentType" : 5123,
            "count" : 748,
            "normalized" : true,
            "type" : "VEC4"
        },
        {
            "bufferView" : 69,
            "componentType" : 5123,
            "count" : 4248,
            "type" : "SCALAR"
        }
    ],
    "bufferViews" : [
        {
            "buffer" : 0,
            "byteLength" : 2424,
            "byteOffset" : 0
        },
        {
            "buffer" : 0,
            "byteLength" : 2424,
            "byteOffset" : 2424
        },
        {
            "buffer" : 0,
            "byteLength" : 1616,
            "byteOffset" : 4848
        },
        {
            "buffer" : 0,
            "byteLength" : 1616,
            "byteOffset" : 6464
        },
        {
            "buffer" : 0,
            "byteLength" : 2100,
            "byteOffset" : 8080
        },
        {
            "buffer" : 0,
            "byteLength" : 2220,
            "byteOffset" : 10180
        },
        {
            "buffer" : 0,
            "byteLength" : 2220,
            "byteOffset" : 12400
        },
        {
            "buffer" : 0,
            "byteLength" : 1480,
            "byteOffset" : 14620
        },
        {
            "buffer" : 0,
            "byteLength" : 1480,
            "byteOffset" : 16100
        },
        {
            "buffer" : 0,
            "byteLength" : 1980,
            "byteOffset" : 17580
        },
        {
            "buffer" : 0,
            "byteLength" : 984,
            "byteOffset" : 19560
        },
        {
            "buffer" : 0,
            "byteLength" : 984,
            "byteOffset" : 20544
        },
        {
            "buffer" : 0,
            "byteLength" : 656,
            "byteOffset" : 21528
        },
        {
            "buffer" : 0,
            "byteLength" : 656,
            "byteOffset" : 22184
        },
        {
            "buffer" : 0,
            "byteLength" : 852,
            "byteOffset" : 22840
        },
        {
            "buffer" : 0,
            "byteLength" : 1896,
            "byteOffset" : 23692
        },
        {
            "buffer" : 0,
            "byteLength" : 1896,
            "byteOffset" : 25588
        },
        {
            "buffer" : 0,
            "byteLength" : 1264,
            "byteOffset" : 27484
        },
        {
            "buffer" : 0,
            "byteLength" : 1264,
            "byteOffset" : 28748
        },
        {
            "buffer" : 0,
            "byteLength" : 1512,
            "byteOffset" : 30012
        },
        {
            "buffer" : 0,
            "byteLength" : 1896,
            "byteOffset" : 31524
        },
        {
            "buffer" : 0,
            "byteLength" : 1896,
            "byteOffset" : 33420
        },
        {
            "buffer" : 0,
            "byteLength" : 1264,
            "byteOffset" : 35316
        },
        {
            "buffer" : 0,
            "byteLength" : 1264,
            "byteOffset" : 36580
        },
        {
            "buffer" : 0,
            "byteLength" : 1512,
            "byteOffset" : 37844
        },
        {
            "buffer" : 0,
            "byteLength" : 2904,
            "byteOffset" : 39356
        },
        {
            "buffer" : 0,
            "byteLength" : 2904,
            "byteOffset" : 42260
        },
        {
            "buffer" : 0,
            "byteLength" : 1936,
            "byteOffset" : 45164
        },
        {
            "buffer" : 0,
            "byteLength" : 1936,
            "byteOffset" : 47100
        },
        {
            "buffer" : 0,
            "byteLength" : 2178,
            "byteOffset" : 49036
        },
        {
            "buffer" : 0,
            "byteLength" : 4056,
            "byteOffset" : 51216
        },
        {
            "buffer" : 0,
            "byteLength" : 4056,
            "byteOffset" : 55272
        },
        {
            "buffer" : 0,
            "byteLength" : 2704,
            "byteOffset" : 59328
        },
        {
            "buffer" : 0,
            "byteLength" : 2704,
            "byteOffset" : 62032
        },
        {
            "buffer" : 0,
            "byteLength" : 2754,
            "byteOffset" : 64736
        },
        {
            "buffer" : 0,
            "byteLength" : 8424,
            "byteOffset" : 67492
        },
        {
            "buffer" : 0,
            "byteLength" : 8424,
            "byteOffset" : 75916
        },
        {
            "buffer" : 0,
            "byteLength" : 5616,
            "byteOffset" : 84340
        },
        {
            "buffer" : 0,
            "byteLength" : 5616,
            "byteOffset" : 89956
        },
        {
            "buffer" : 0,
            "byteLength" : 7092,
            "byteOffset" : 95572
        },
        {
            "buffer" : 0,
            "byteLength" : 36384,
            "byteOffset" : 102664
        },
        {
            "buffer" : 0,
            "byteLength" : 36384,
            "byteOffset" : 139048
        },
        {
            "buffer" : 0,
            "byteLength" : 24256,
            "byteOffset" : 175432
        },
        {
            "buffer" : 0,
            "byteLength" : 24256,
            "byteOffset" : 199688
        },
        {
            "buffer" : 0,
            "byteLength" : 31152,
            "byteOffset" : 223944
        },
        {
            "buffer" : 0,
            "byteLength" : 11052,
            "byteOffset" : 255096
        },
        {
            "buffer" : 0,
            "byteLength" : 11052,
            "byteOffset" : 266148
        },
        {
            "buffer" : 0,
            "byteLength" : 7368,
            "byteOffset" : 277200
        },
        {
            "buffer" : 0,
            "byteLength" : 7368,
            "byteOffset" : 284568
        },
        {
            "buffer" : 0,
            "byteLength" : 10440,
            "byteOffset" : 291936
        },
        {
            "buffer" : 0,
            "byteLength" : 10476,
            "byteOffset" : 302376
        },
        {
            "buffer" : 0,
            "byteLength" : 10476,
            "byteOffset" : 312852
        },
        {
            "buffer" : 0,
            "byteLength" : 6984,
            "byteOffset" : 323328
        },
        {
            "buffer" : 0,
            "byteLength" : 6984,
            "byteOffset" : 330312
        },
        {
            "buffer" : 0,
            "byteLength" : 9384,
            "byteOffset" : 337296
        },
        {
            "buffer" : 0,
            "byteLength" : 9540,
            "byteOffset" : 346680
        },
        {
            "buffer" : 0,
            "byteLength" : 9540,
            "byteOffset" : 356220
        },
        {
            "buffer" : 0,
            "byteLength" : 6360,
            "byteOffset" : 365760
        },
        {
            "buffer" : 0,
            "byteLength" : 6360,
            "byteOffset" : 372120
        },
        {
            "buffer" : 0,
            "byteLength" : 8592,
            "byteOffset" : 378480
        },
        {
            "buffer" : 0,
            "byteLength" : 8376,
            "byteOffset" : 387072
        },
        {
            "buffer" : 0,
            "byteLength" : 8376,
            "byteOffset" : 395448
        },
        {
            "buffer" : 0,
            "byteLength" : 5584,
            "byteOffset" : 403824
        },
        {
            "buffer" : 0,
            "byteLength" : 5584,
            "byteOffset" : 409408
        },
        {
            "buffer" : 0,
            "byteLength" : 7512,
            "byteOffset" : 414992
        },
        {
            "buffer" : 0,
            "byteLength" : 8976,
            "byteOffset" : 422504
        },
        {
            "buffer" : 0,
            "byteLength" : 8976,
            "byteOffset" : 431480
        },
        {
            "buffer" : 0,
            "byteLength" : 5984,
            "byteOffset" : 440456
        },
        {
            "buffer" : 0,
            "byteLength" : 5984,
            "byteOffset" : 446440
        },
        {
            "buffer" : 0,
            "byteLength" : 8496,
            "byteOffset" : 452424
        }
    ],
    "samplers" : [
        {
            "magFilter" : 9729,
            "minFilter" : 9987
        }
    ],
    "buffers" : [
        {
            "byteLength" : 460920,
            "uri" : "CaveRocks.bin"
        }
    ]
}
