# File exported by ZBrush version 4.73
# www.zbrush.com
#Vertex Count 552
#UV Vertex Count 678
#Face Count 566
#Auto scale x=1.545515 y=1.545515 z=1.545515
#Auto offset x=-0.000000 y=-0.000000 z=-0.000000
mtllib BROKRAIL.mtl
usemtl defaultMat
v -0.38664815 0.1464033 0.90629683
v -0.39298462 0.13843116 0.89606143
v -0.38569996 0.13966906 0.90407426
v -0.39779136 0.1243302 0.90702149
v -0.38704022 0.12435684 0.90721579
v -0.2911531 0.14512405 0.89837772
v -0.29083003 0.138635 0.89738086
v -0.27938346 0.13830673 0.89525594
v -0.29133484 0.12322222 0.89893855
v -0.27856854 0.12235948 0.89264462
v -0.35098239 0.10337019 0.89451115
v -0.35790896 0.10433869 0.9028919
v -0.32012064 0.10325642 0.89352655
v -0.31776199 0.10364049 0.89685011
v -0.36382255 0.05627798 0.90418726
v -0.35667862 0.05680629 0.90224476
v -0.32082644 0.05684955 0.90293193
v -0.31042515 0.05547887 0.89134841
v 0.28228239 0.13974183 0.90454531
v 0.2792172 0.1226444 0.89472319
v 0.2891851 0.14414311 0.89230532
v 0.29341713 0.13986825 0.9053636
v 0.38284568 0.14496349 0.89738379
v 0.39087285 0.13768728 0.89124629
v 0.38297256 0.13868141 0.89768122
v 0.29324464 0.12402999 0.90483139
v 0.39172169 0.12243312 0.89318177
v 0.38647352 0.12417475 0.90588749
v 0.32367882 0.10440413 0.9034582
v 0.31719752 0.10345638 0.89525694
v 0.35437529 0.10436947 0.90315831
v 0.35821051 0.10442659 0.90365258
v 0.31041896 0.05547776 0.89133067
v 0.32037917 0.0567703 0.90167313
v 0.35948948 0.05560772 0.89341857
v 0.35334638 0.05627559 0.89381565
v -0.38766487 0.04402931 0.8985262
v -0.49344575 0.03354395 0.80774064
v -0.39604315 0.03895185 0.90675453
v -0.38262805 0.03786794 0.8996049
v -0.49291404 0.0335078 0.71921953
v -0.37478981 0.04089201 0.89495404
v -0.29976196 0.04126357 0.90308581
v -0.28685574 0.04403714 0.89868594
v -0.29117506 0.0376686 0.8948692
v -0.28143524 0.03850947 0.89645651
v -0.39372744 0.02597776 0.89584438
v -0.5158391 0.0159598 0.80924495
v -0.49497355 0.01597946 0.83856284
v -0.51000438 0.01577928 0.71317721
v -0.49509634 0.01598342 0.69414039
v -0.28227359 0.0263081 0.90723653
v -0.49266389 0.0334908 0.54745669
v -0.49512361 0.033658 0.46214626
v -0.49450242 0.01596425 0.57772908
v -0.51598809 0.01596441 0.54950533
v -0.51872852 0.0160492 0.46402266
v -0.5121976 -0 0.80353222
v -0.4963285 -0 0.8408583
v -0.51515529 -0 0.72038015
v -0.48993696 -0 0.68690675
v -0.49625086 -0.0278734 0.81233241
v -0.38203297 -0.03615129 0.89397099
v -0.49610539 -0.02786523 0.7238761
v -0.28866047 -0.03610665 0.89286715
v -0.49436852 -0 0.57757266
v -0.51650256 -0 0.55005324
v -0.51902965 -0 0.464292
v -0.49016573 -0.02753161 0.54468065
v -0.49368945 -0.02772953 0.46080762
v -0.49217545 0.03359538 0.29291916
v -0.49488469 0.03448098 0.20491451
v -0.49600257 0.01601268 0.43458653
v -0.49153869 0.01587703 0.32068641
v -0.51360504 0.01590028 0.29303501
v -0.51828297 0.01657643 0.20672502
v -0.49598387 0.03495657 0.04734081
v -0.49966123 0.0173797 0.17861856
v -0.49806378 0.01772104 0.07407374
v -0.51280745 0.0168095 0.04580641
v -0.49428337 -0 0.43308018
v -0.49038463 0.00000568 0.31993554
v -0.51194345 0.00000662 0.29208856
v -0.51991578 0.00057371 0.20760013
v -0.49221761 -0.02753955 0.29298866
v -0.49464338 -0.02668004 0.20618469
v -0.4946435 0.00136466 0.17745059
v -0.49732524 0.00188128 0.07438566
v -0.51934335 0.00099763 0.04586028
v -0.49841743 -0.02606326 0.04828189
v 0.27808206 0.02591745 0.89376482
v 0.2958075 0.04071922 0.89117232
v 0.28835585 0.04426743 0.90338562
v 0.3761048 0.04103549 0.89809411
v 0.38536436 0.04376803 0.89319411
v 0.29189361 0.03776155 0.8970775
v 0.28409716 0.03887371 0.90493544
v 0.39492936 0.03884231 0.90420454
v 0.38066819 0.03767397 0.89499701
v 0.4918677 0.03343667 0.8051574
v 0.49216651 0.03345699 0.7181288
v 0.39247682 0.02589524 0.89299881
v 0.51204893 0.01584254 0.80329897
v 0.4959239 0.01601014 0.84017282
v 0.51758928 0.01601395 0.72378377
v 0.4949538 0.01597882 0.69394054
v 0.49546145 0.03368097 0.55056536
v 0.49415675 0.03359228 0.46124381
v 0.49128218 0.01586029 0.57396687
v 0.51117915 0.01581563 0.54438404
v 0.51485393 0.01592932 0.46055667
v 0.51829589 -0 0.81309918
v 0.49070369 -0 0.83132897
v 0.51433892 -0 0.71923851
v 0.49301469 -0 0.69122177
v 0.2890325 -0.03615318 0.89401789
v 0.38748014 -0.03666675 0.90671759
v 0.49405101 -0.02774984 0.80873141
v 0.49537923 -0.02782445 0.72281653
v 0.49344548 -0 0.57649427
v 0.51598839 -0 0.54950567
v 0.51344661 -0 0.45929776
v 0.49350661 -0.02771926 0.54839308
v 0.49005431 -0.02752536 0.45741461
v 0.49444947 0.03418525 0.29451943
v 0.48651143 0.03793624 0.20689533
v 0.49516881 0.01598576 0.43385597
v 0.49722944 0.01608148 0.32441563
v 0.51038044 0.01604643 0.29126293
v 0.50951748 0.01930147 0.20595609
v 0.48673307 0.04522401 0.06219264
v 0.48872987 0.02178465 0.18184256
v 0.48364592 0.02654816 0.08675592
v 0.50615146 0.02583629 0.05855839
v 0.49507035 -0 0.4337697
v 0.49599706 0.00001046 0.32360481
v 0.50979678 0.00018434 0.29091458
v 0.51081994 0.00315186 0.20639187
v 0.49162388 -0.02742765 0.29274808
v 0.49275094 -0.02454556 0.208864
v 0.4876789 0.00551859 0.18159649
v 0.49098349 0.0102907 0.08659531
v 0.51083525 0.00962446 0.05818152
v 0.48878356 -0.0174139 0.06182751
v -0.39179655 0.04941093 -0.91496736
v -0.403413 0.04237745 -0.9176383
v -0.39578935 0.04509065 -0.91809724
v -0.40504343 0.03143787 -0.91621313
v -0.39162454 0.03367864 -0.90882446
v -0.29265726 0.08400851 -0.90942818
v -0.29863199 0.07981588 -0.91416295
v -0.28326945 0.08427174 -0.91328372
v -0.30496393 0.06811843 -0.91464649
v -0.28727363 0.07223269 -0.90909658
v -0.37325515 0.02940912 -0.91456936
v -0.37704636 0.02829247 -0.91552796
v -0.33825758 0.04009482 -0.90572721
v -0.3402157 0.04199162 -0.9139422
v -0.37697644 -0.00591532 -0.91301877
v -0.36973841 -0.00366864 -0.91005063
v -0.34128954 0.00789178 -0.91562276
v -0.33426104 0.00967158 -0.91473967
v 0.23399764 0.0745026 -0.74511682
v 0.23584082 0.06330729 -0.73420513
v 0.24476137 0.08280129 -0.74673915
v 0.24544193 0.07854956 -0.74213396
v 0.341417 0.09149443 -0.72177362
v 0.35961617 0.08305201 -0.73267197
v 0.34082254 0.085701 -0.71582578
v 0.25104123 0.06790909 -0.74351872
v 0.36284173 0.06739863 -0.72989165
v 0.34546634 0.07095984 -0.71597295
v 0.28648448 0.06065829 -0.72440738
v 0.28203749 0.06021773 -0.72354605
v 0.32337285 0.05965723 -0.72919253
v 0.32031484 0.05873046 -0.71216917
v 0.2909813 0.01258582 -0.73012968
v 0.2964493 0.01333801 -0.72614849
v 0.34939473 0.00296202 -0.74099587
v 0.33787107 0.00572066 -0.73066761
v -0.48592163 0.0340774 -0.02850866
v -0.46153221 0.00374209 -0.1854217
v -0.48392433 0.01661714 -0.0548525
v -0.51547751 0.01633151 -0.03309099
v -0.47426951 -0.01603509 -0.16053797
v -0.49779073 -0.02057113 -0.19519558
v -0.45464093 0.00523353 -0.2795191
v -0.4280346 -0.0112749 -0.47206414
v -0.47911855 -0.02030325 -0.28245547
v -0.45417134 -0.01496956 -0.3100538
v -0.44074548 -0.0257158 -0.44139494
v -0.45457683 -0.03688226 -0.47371234
v -0.48772457 0.00082996 -0.05581563
v -0.50767487 0.00060192 -0.03132524
v -0.47954193 -0.03261298 -0.16284828
v -0.49914834 -0.03704505 -0.19499887
v -0.49057515 -0.02646199 -0.0291024
v -0.47106103 -0.05925277 -0.19128263
v -0.48654783 -0.03812685 -0.28549243
v -0.46283351 -0.0331903 -0.31452137
v -0.44009036 -0.04316806 -0.43637288
v -0.46229933 -0.05511651 -0.47687905
v -0.46022716 -0.05949501 -0.28134012
v -0.43847054 -0.07756173 -0.46981068
v -0.40732608 -0.05630633 -0.58413416
v -0.43349692 -0.08980998 -0.77228942
v -0.43768841 -0.07192904 -0.58185972
v -0.41649285 -0.08993752 -0.62784985
v -0.45091759 -0.108912 -0.76981949
v -0.42900064 -0.1082301 -0.75075166
v -0.45370947 -0.06910234 -0.83671173
v -0.39759236 -0.02088082 -0.91617202
v -0.39628589 -0.02570326 -0.91092971
v -0.3870101 -0.02375526 -0.90879361
v -0.38229298 -0.01999181 -0.90772594
v -0.31363828 0.00367341 -0.90946759
v -0.3036219 0.01006254 -0.91268509
v -0.30737086 0.00319133 -0.91013664
v -0.29439407 0.00734389 -0.90722689
v -0.47120558 -0.08957597 -0.83964361
v -0.45936625 -0.07694594 -0.860306
v -0.39903458 -0.03565447 -0.9145419
v -0.29542724 -0.00206485 -0.91562523
v -0.44267109 -0.0856946 -0.57877994
v -0.42024603 -0.10276575 -0.62232875
v -0.45426668 -0.12191936 -0.76853261
v -0.42769969 -0.12013989 -0.74437651
v -0.42733223 -0.10944655 -0.57819438
v -0.43913711 -0.13868527 -0.76588234
v -0.46763527 -0.10280842 -0.83339928
v -0.45750235 -0.09076684 -0.8570821
v -0.45333021 -0.12075659 -0.83408892
v -0.36317733 -0.07750998 -0.90772424
v -0.27048757 -0.04623589 -0.91599893
v 0.49194811 0.04608759 -0.01119894
v 0.49970053 0.00897329 -0.15065049
v 0.49630752 0.02798661 -0.03780794
v 0.51406868 0.0265798 -0.0157517
v 0.51188946 -0.00761862 -0.13497015
v 0.5312143 -0.01282803 -0.16202599
v 0.49976316 -0.00217315 -0.2131183
v 0.50688387 -0.04459759 -0.32689204
v 0.52749308 -0.01820668 -0.22711332
v 0.4990692 -0.0252172 -0.2317973
v 0.50144924 -0.0522831 -0.30453893
v 0.52517244 -0.05019474 -0.34073642
v 0.49550653 0.01164557 -0.03760728
v 0.51408677 0.0103104 -0.01579187
v 0.51583251 -0.02391959 -0.13693324
v 0.53951583 -0.02926479 -0.16660257
v 0.48837977 -0.01629164 -0.01060948
v 0.51902861 -0.05284963 -0.16156355
v 0.52418217 -0.03236301 -0.22525464
v 0.50086076 -0.03831495 -0.23475364
v 0.50299343 -0.06352689 -0.30936096
v 0.52887429 -0.06145431 -0.34681095
v 0.51626391 -0.0577134 -0.22852866
v 0.51912117 -0.08851889 -0.35268042
v 0.26280973 -0.02819 -0.7340133
v 0.50485024 -0.05593896 -0.40829186
v 0.49985989 -0.01900667 -0.54307298
v 0.52502639 -0.06033751 -0.41732202
v 0.51203783 -0.07195436 -0.4458351
v 0.52209408 -0.02957298 -0.55012597
v 0.51012359 -0.04882632 -0.53611001
v 0.27817071 -0.00577356 -0.73004522
v 0.26856317 -0.0058781 -0.74077504
v 0.37170097 -0.01694045 -0.74723403
v 0.3768511 -0.01483549 -0.73315667
v 0.27642302 -0.01122612 -0.74110609
v 0.26526927 -0.01368217 -0.74235602
v 0.3893199 -0.02162479 -0.74543955
v 0.37601093 -0.02098629 -0.74107377
v 0.49400777 -0.00142096 -0.63047077
v 0.39735078 -0.03522219 -0.7500914
v 0.52206064 -0.02235738 -0.64121563
v 0.5094648 -0.02763939 -0.68474882
v 0.5338921 -0.07291024 -0.42874229
v 0.51288836 -0.08324275 -0.44855414
v 0.53553606 -0.04538618 -0.56846694
v 0.51350994 -0.06309066 -0.54185039
v 0.51733034 -0.09998644 -0.43078765
v 0.50952628 -0.07697407 -0.56000008
v 0.53354929 -0.03988741 -0.65414244
v 0.51350743 -0.04536584 -0.68663209
v 0.29930293 -0.09903033 -0.75997168
v 0.40792984 -0.10350939 -0.7687303
v 0.51570189 -0.07066132 -0.65402335
v 0.31752186 0.06928925 -0.05067729
v 0.31786959 0.11535624 -0.05150754
v 0.39334055 0.14302107 -0.06675919
v 0.3824184 0.15016178 -0.06536983
v 0.36085198 0.06450462 -0.05587199
v 0.35602766 0.11267826 -0.05736993
v 0.28543917 0.05382681 -0.04726908
v 0.28869525 0.05884587 -0.04684886
v 0.28308005 0.15270075 -0.0520336
v 0.2957907 0.15909133 -0.05466673
v 0.39439391 0.04404267 -0.06265892
v 0.39155967 0.05023971 -0.06253254
v 0.39426579 0.12806325 -0.06575657
v 0.28065381 0.13662948 -0.04936959
v 0.28305608 0.04115578 -0.04730499
v 0.29532426 -0.02452842 -0.0509605
v 0.39051738 -0.03302868 -0.06603232
v 0.3936989 0.03088618 -0.06194603
v -0.28832014 0.10478223 -0.06876143
v -0.28648498 0.05908882 -0.06634094
v -0.3554099 0.13868753 -0.08399342
v -0.36351452 0.13040559 -0.08393937
v -0.32384369 0.10059862 -0.07357573
v -0.33630135 0.05462794 -0.07514012
v -0.25967408 0.04879776 -0.06178898
v -0.2588111 0.04406241 -0.06333762
v -0.25918045 0.14611229 -0.06802388
v -0.24784361 0.14015938 -0.06578076
v -0.36441438 0.04001686 -0.08054687
v -0.37134932 0.03414503 -0.08235649
v -0.36285712 0.11518803 -0.08235357
v -0.25022401 0.12593711 -0.06576758
v -0.27163732 -0.03050013 -0.06478177
v -0.2555107 0.03172134 -0.06187803
v -0.37092725 0.02134452 -0.08116589
v -0.36727869 -0.03988997 -0.08276942
v -0.29183934 0.10262257 -0.35086476
v -0.2886272 0.06116587 -0.35029302
v -0.25909545 0.0520833 -0.34226203
v -0.25596983 0.04766126 -0.34576874
v -0.25518924 0.14312048 -0.34931633
v -0.24770675 0.13952536 -0.35463264
v -0.2515397 0.12478832 -0.3539081
v -0.34122406 0.1346256 -0.357941
v -0.35648471 0.02671002 -0.35366015
v -0.35828289 0.03874667 -0.35906178
v 0.30695807 0.02655463 -0.20728466
v 0.33263856 0.07211707 -0.20774716
v 0.26050106 0.0242298 -0.20704105
v 0.26569604 0.02734092 -0.20476659
v 0.30452144 0.1220938 -0.21360801
v 0.31676918 0.12510014 -0.21414717
v 0.2980485 0.10536814 -0.2091018
v 0.40310648 0.1096705 -0.2239
v 0.38084301 -0.01131217 -0.21519736
v 0.38356937 -0.02354879 -0.21832819
v 0.40894663 0.10093834 -0.22304854
v 0.35109392 0.01089744 -0.20751708
v 0.36893793 0.06325696 -0.21193701
v 0.38204111 -0.00601799 -0.21802211
v 0.40600102 0.08193933 -0.22004076
v 0.25764299 0.01306708 -0.21072679
v 0.271518 -0.05149674 -0.2244773
v 0.3846478 -0.07934118 -0.24073855
v -0.35069804 0.12812876 -0.35869802
v -0.32745889 0.09972591 -0.35738145
v -0.3326433 0.05710338 -0.35610749
v -0.35425488 0.04420856 -0.35866181
v -0.35742437 0.1150405 -0.36393041
v -0.25229361 -0.02190355 -0.34588825
v -0.25432269 0.03657111 -0.34835244
v -0.34265401 -0.03202508 -0.35427517
v 0.40828249 0.13529493 -0.15565787
v 0.39573547 0.14176241 -0.15252967
v 0.36149245 0.04916007 -0.14273975
v 0.36559964 0.10048102 -0.1446147
v 0.38415805 0.02931656 -0.14610343
v 0.38262396 0.03520058 -0.14630453
v 0.40084341 0.11773183 -0.15056856
v 0.27234655 0.02764652 -0.13760059
v 0.29578266 -0.0363971 -0.14617111
v 0.39535837 -0.04468776 -0.16036867
v 0.3896773 0.01665384 -0.1486514
v 0.27686613 0.03990395 -0.13648298
v -0.30824069 0.14810641 -0.19501148
v -0.32207603 0.14141399 -0.1975425
v -0.28741347 0.11114811 -0.18705864
v -0.30667102 0.06533145 -0.18872544
v -0.34154898 0.05055591 -0.1977363
v -0.34991352 0.04444235 -0.20050661
v -0.32662859 0.12702011 -0.19781019
v -0.25497139 -0.02145751 -0.18817813
v -0.23973759 0.04025829 -0.18806883
v -0.35329111 0.03110844 -0.19918872
v -0.35364454 -0.03108783 -0.20593133
v -0.23736785 0.05226158 -0.18649785
v -0.25159886 0.1128009 -0.18581913
v -0.25950013 0.06826696 -0.18569747
v -0.24194211 0.05778975 -0.18908596
v -0.21893854 0.15190124 -0.18985055
v -0.21130679 0.1463126 -0.19032865
v -0.21564788 0.13223825 -0.19058198
v 0.31262229 0.05386369 -0.1369929
v 0.32593668 0.10266788 -0.13795511
v 0.28632478 0.04514279 -0.13869026
v 0.29416051 0.14272762 -0.1392841
v 0.30744464 0.14900087 -0.1414539
v 0.29297173 0.12716279 -0.13886441
v -0.31667718 0.03367653 -0.55806228
v -0.30281521 -0.00158544 -0.55499854
v -0.27223236 -0.00441574 -0.54575546
v -0.26474496 -0.00673062 -0.54215171
v -0.28752124 0.0770595 -0.55594554
v -0.27702221 0.07344281 -0.55626587
v -0.28022075 0.05808883 -0.55851119
v -0.3613508 0.07429729 -0.55225301
v -0.35128536 -0.02486396 -0.54641953
v -0.35397482 -0.01572802 -0.54992022
v 0.28326557 0.01990255 -0.28701134
v 0.29898325 0.07012639 -0.28787786
v 0.24236204 0.02323064 -0.28566771
v 0.24865837 0.02570624 -0.28571069
v 0.26885959 0.12540101 -0.29769348
v 0.28331646 0.12586399 -0.29706863
v 0.25907507 0.1101485 -0.28935934
v 0.38803507 0.09414973 -0.31181832
v 0.38086214 -0.0379027 -0.30925735
v 0.3840415 -0.0510396 -0.31352223
v 0.39169442 0.08271627 -0.30701704
v 0.34850362 -0.00923621 -0.29949599
v 0.3433332 0.05053805 -0.29248704
v 0.37657369 -0.03122111 -0.30755616
v 0.39132153 0.062378 -0.30780998
v 0.23967873 0.01125888 -0.28690015
v 0.26618302 -0.06263647 -0.31636341
v 0.38728746 -0.10716692 -0.34681511
v -0.37073241 0.06968881 -0.55585618
v -0.34395701 0.03301276 -0.55510506
v -0.33571773 -0.00395749 -0.54828436
v -0.34970195 -0.01165261 -0.54655327
v -0.36805268 0.05434665 -0.55206319
v -0.23608889 -0.05539532 -0.52890256
v -0.25823456 -0.0142407 -0.54062819
v -0.32535556 -0.0718456 -0.53949897
v -0.28726769 0.01004675 -0.70808562
v -0.27794153 -0.02025829 -0.70715541
v -0.24816683 -0.01723426 -0.70382799
v -0.2388787 -0.01843273 -0.69432574
v -0.24453173 0.05640915 -0.69837056
v -0.23691172 0.05669114 -0.70652184
v -0.24131865 0.04299973 -0.70605905
v -0.3331211 0.02439564 -0.70797918
v -0.33753142 -0.06560298 -0.70205942
v -0.33757203 -0.05650492 -0.70325922
v 0.28219102 0.00889924 -0.4280469
v 0.27711739 0.06096472 -0.42352115
v 0.24647331 0.00287419 -0.42588121
v 0.25211734 0.00690767 -0.42785665
v 0.24132997 0.10599353 -0.41355954
v 0.2552541 0.10850393 -0.41405076
v 0.23524805 0.09209622 -0.41406834
v 0.35146169 0.08574414 -0.43031941
v 0.385416 -0.04680306 -0.45491999
v 0.39549046 -0.06269502 -0.46803142
v 0.36053308 0.07624892 -0.43273817
v 0.34127373 -0.01227118 -0.4350034
v 0.32155669 0.04725695 -0.42470124
v 0.38109253 -0.03921636 -0.4557423
v 0.36155269 0.05842619 -0.43388339
v 0.24667945 -0.01054222 -0.42807779
v 0.281113 -0.0877035 -0.46828677
v 0.39200268 -0.12192618 -0.49493302
v -0.34024428 0.01699279 -0.70634359
v -0.31781681 -0.00274016 -0.7052018
v -0.31913678 -0.03696289 -0.70659288
v -0.33835762 -0.05227248 -0.70906497
v -0.34690042 0.00368181 -0.71309121
v -0.22195303 -0.06815005 -0.67812469
v -0.23687343 -0.02653678 -0.69904069
v -0.31344273 -0.10299875 -0.68887078
v -0.33425202 0.03121172 -0.82825964
v -0.32967193 -0.001699 -0.82674453
v -0.30199844 0.00196661 -0.83183226
v -0.29069501 0.00015986 -0.82403463
v -0.27606393 0.07832147 -0.82033467
v -0.2646977 0.07868095 -0.82106303
v -0.27548922 0.06653241 -0.82349741
v -0.38254027 0.0347119 -0.83146079
v -0.38742831 -0.05172565 -0.81963662
v -0.39211819 -0.04306842 -0.8248247
v 0.3006249 0.03512055 -0.56609547
v 0.29566747 0.07997742 -0.56630365
v 0.26931658 0.01139724 -0.57725356
v 0.27426158 0.01867367 -0.57633121
v 0.2371087 0.09281108 -0.57858302
v 0.24620888 0.09953623 -0.57098119
v 0.24219045 0.08273452 -0.5757587
v 0.35596395 0.11201293 -0.57500268
v 0.38950113 -0.00338949 -0.58414207
v 0.39377372 -0.016797 -0.58745949
v 0.36737746 0.10472204 -0.5727542
v 0.35118926 0.02373279 -0.56705249
v 0.33598811 0.08069187 -0.56049195
v 0.38249476 0.00297534 -0.57980418
v 0.37397776 0.09061544 -0.5759206
v 0.26788868 -0.0035974 -0.57804178
v 0.28881672 -0.07897589 -0.60012603
v 0.38637973 -0.08467152 -0.6042105
v -0.39224854 0.02589433 -0.83073729
v -0.36879388 0.01359911 -0.82639319
v -0.37173895 -0.02165058 -0.82433707
v -0.3929572 -0.03830211 -0.82891611
v -0.39209717 0.01395075 -0.82487391
v -0.26159867 -0.05068596 -0.82899309
v -0.28791699 -0.00834818 -0.82798505
v -0.36116321 -0.0882751 -0.82922688
v -0.11462944 0.0123002 -0.77575182
v -0.10857646 0.02123202 -0.74269864
v -0.10398174 0.00881818 -0.65121218
v -0.10735031 -0.0062376 -0.62833266
v -0.10830581 -0.01956444 -0.62528404
v -0.11439411 -0.02526277 -0.74704583
v -0.1175259 0.00002584 -0.78356202
v -0.10919209 -0.04092189 -0.65350109
v 0.07305702 -0.10405942 -0.69420618
v 0.06285894 -0.06829377 -0.62695642
v 0.03753655 -0.02050567 -0.51170731
v 0.03030462 -0.02369141 -0.48959225
v 0.07189874 -0.14295739 -0.66985131
v 0.07432776 -0.12243775 -0.70147985
v 0.04701909 -0.09619734 -0.54621065
v 0.03263777 -0.04316084 -0.49663641
v -0.11581209 0.01273571 -0.37816682
v -0.11637777 -0.00479648 -0.3804096
v -0.11418432 0.03065766 -0.39522983
v -0.10667478 0.02744045 -0.46889523
v -0.1019347 0.01078183 -0.4918702
v -0.10335274 -0.00531851 -0.50292914
v -0.11294311 -0.03536053 -0.40328407
v -0.10558962 -0.03703836 -0.48049263
v 0.04860817 0.01712466 -0.30323377
v 0.048435 0.00306946 -0.30812971
v 0.04479414 0.03816242 -0.31239213
v 0.05675023 0.03799475 -0.3532129
v 0.06600921 0.01645989 -0.371146
v 0.06676317 0.00083149 -0.37297192
v 0.04620163 -0.01697518 -0.31946824
v 0.06206502 -0.02258267 -0.36793332
v 0.00334385 -0.02783935 -0.22182017
v -0.00772757 0.00589745 -0.24288719
v 0.00483379 0.03372437 -0.21548621
v 0.02599874 -0.01439174 -0.16653394
v -0.00592986 0.02196909 -0.24176173
v 0.00974082 -0.04986604 -0.14981331
v 0.01451117 -0.03191037 -0.13872857
v 0.00819128 -0.03942276 -0.13202505
v -0.05819566 -0.00550483 -0.5496167
v -0.05811305 0.00922585 -0.55389474
v -0.03704283 0.01089928 -0.6130862
v -0.0397247 0.0211848 -0.6124521
v -0.05176769 0.02084032 -0.56503089
v -0.04126228 -0.03459342 -0.62645163
v -0.03791431 -0.00364172 -0.62210526
v -0.05267001 -0.03723671 -0.57405588
# The following MRGB block contains ZBrush Vertex Color (Polypaint) and masking output as 4 hexadecimal values per vertex. The vertex color format is MMRRGGBB with up to 64 entries per MRGB line.
#MRGB ff343434ff343434ff343434ff343434ff343434ff343434ff343434ff343434ff343434ff343434ff343434ff343434ff343434ff343434ff343434ff343434ff343434ff343434ff343434ff343434ff343434ff343434ff343434ff343434ff343434ff343434ff343434ff343434ff343434ff343434ff343434ff343434ff343434ff343434ff343434ff343434ff343434ff352319ff343434ff343434ff352319ff343434ff343434ff343434ff343434ff343434ff343434ff352319ff352319ff352319ff352319ff343434ff352319ff352319ff352319ff352319ff352319ff352319ff352319ff352319ff352319ff352319ff343434ff352319
#MRGB ff343434ff352319ff352319ff352319ff352319ff352319ff352319ff352319ff352319ff352319ff352319ff352319ff352319ff352319ff352319ff352319ff352319ff352319ff352319ff352319ff352319ff352319ff352319ff352319ff352319ff352319ff343434ff343434ff343434ff343434ff343434ff343434ff343434ff343434ff343434ff352319ff352319ff343434ff352319ff352319ff352319ff352319ff352319ff352319ff352319ff352319ff352319ff352319ff352319ff352319ff352319ff343434ff343434ff352319ff352319ff352319ff352319ff352319ff352319ff352319ff352319ff352319ff352319ff352319
#MRGB ff352319ff352319ff352319ff352319ff352319ff352319ff352319ff352319ff352319ff352319ff352319ff352319ff352319ff352319ff352319ff352319ff343434ff343434ff343434ff343434ff343434ff343434ff343434ff343434ff343434ff343434ff343434ff343434ff343434ff343434ff343434ff343434ff343434ff343434ff343434ff343434ff343434ff343434ff343434ff343434ff343434ff343434ff343434ff343434ff343434ff343434ff343434ff343434ff343434ff343434ff343434ff343434ff352319ff352319ff352319ff352319ff352319ff352319ff352319ff352319ff352319ff352319ff352319ff352319
#MRGB ff352319ff352319ff352319ff352319ff352319ff352319ff352319ff352319ff352319ff352319ff352319ff352319ff352319ff352319ff352319ff352319ff352319ff352319ff352319ff343434ff343434ff343434ff343434ff343434ff343434ff343434ff343434ff352319ff352319ff343434ff343434ff352319ff352319ff352319ff352319ff352319ff352319ff352319ff352319ff352319ff343434ff343434ff352319ff352319ff352319ff352319ff352319ff352319ff352319ff352319ff352319ff352319ff352319ff352319ff352319ff352319ff352319ff352319ff352319ff352319ff352319ff352319ff352319ff352319
#MRGB ff352319ff352319ff343434ff352319ff352319ff352319ff352319ff352319ff352319ff343434ff343434ff343434ff343434ff343434ff343434ff343434ff343434ff352319ff343434ff352319ff352319ff352319ff352319ff352319ff352319ff352319ff352319ff352319ff352319ff343434ff343434ff352319ff343434ff343434ff343434ff343434ff343434ff343434ff343434ff343434ff343434ff343434ff343434ff343434ff343434ff343434ff343434ff343434ff343434ff343434ff343434ff343434ff343434ff343434ff343434ff343434ff343434ff343434ff343434ff343434ff343434ff343434ff343434ff343434
#MRGB ff343434ff343434ff343434ff343434ff343434ff343434ff343434ff343434ff343434ff343434ff343434ff343434ff343434ff343434ff343434ff343434ff343434ff343434ff343434ff343434ff343434ff343434ff343434ff343434ff343434ff343434ff343434ff343434ff343434ff343434ff343434ff343434ff343434ff343434ff343434ff343434ff343434ff343434ff343434ff343434ff343434ff343434ff343434ff343434ff343434ff343434ff343434ff343434ff343434ff343434ff343434ff343434ff343434ff343434ff343434ff343434ff343434ff343434ff343434ff343434ff343434ff343434ff343434ff343434
#MRGB ff343434ff343434ff343434ff343434ff343434ff343434ff343434ff343434ff343434ff343434ff343434ff343434ff343434ff343434ff343434ff343434ff343434ff343434ff343434ff343434ff343434ff343434ff343434ff343434ff343434ff343434ff343434ff343434ff343434ff343434ff343434ff343434ff343434ff343434ff343434ff343434ff343434ff343434ff343434ff343434ff343434ff343434ff343434ff343434ff343434ff343434ff343434ff343434ff343434ff343434ff343434ff343434ff343434ff343434ff343434ff343434ff343434ff343434ff343434ff343434ff343434ff343434ff343434ff343434
#MRGB ff343434ff343434ff343434ff343434ff343434ff343434ff343434ff343434ff343434ff343434ff343434ff343434ff343434ff343434ff343434ff343434ff343434ff343434ff343434ff343434ff343434ff343434ff343434ff343434ff343434ff343434ff343434ff343434ff343434ff343434ff343434ff343434ff343434ff343434ff343434ff343434ff343434ff343434ff343434ff343434ff343434ff343434ff343434ff343434ff343434ff343434ff343434ff343434ff343434ff343434ff343434ff343434ff343434ff343434ff343434ff343434ff352319ff352319ff352319ff352319ff352319ff352319ff352319ff352319
#MRGB ff352319ff352319ff352319ff352319ff352319ff352319ff352319ff352319ff352319ff352319ff352319ff352319ff352319ff352319ff352319ff352319ff352319ff352319ff352319ff352319ff352319ff352319ff352319ff352319ff352319ff352319ff352319ff352319ff352319ff352319ff352319ff352319ff352319ff352319ff352319ff352319ff352319ff352319ff352319ff352319
# End of MRGB block 
vt 0.95715 0.86266
vt 0.95456 0.86156
vt 0.95916 0.84455
vt 0.96299 0.84606
vt 0.94182 0.85688
vt 0.94835 0.84052
vt 0.63223 0.13404
vt 0.68265 0.30751
vt 0.66981 0.32219
vt 0.61913 0.13738
vt 0.97966 0.83481
vt 0.97581 0.83478
vt 0.97672 0.83235
vt 0.67009 0.13369
vt 0.65179 0.12552
vt 0.65721 0.11864
vt 0.67654 0.13305
vt 0.68256 0.13192
vt 0.77754 0.28792
vt 0.77197 0.29708
vt 0.67729 0.13841
vt 0.96556 0.87523
vt 0.9604 0.87287
vt 0.95849 0.8699
vt 0.96348 0.87105
vt 0.92816 0.86179
vt 0.93242 0.85997
vt 0.86161 0.47949
vt 0.79362 0.3617
vt 0.79768 0.35859
vt 0.8662 0.47738
vt 0.63695 0.13504
vt 0.4647 0.90822
vt 0.82489 0.88358
vt 0.82334 0.89501
vt 0.46316 0.92303
vt 0.97478 0.84058
vt 0.97882 0.84126
vt 0.46281 0.87878
vt 0.8313 0.85943
vt 0.94143 0.82959
vt 0.94314 0.82422
vt 0.94408 0.82199
vt 0.92732 0.85855
vt 0.93659 0.85398
vt 0.95094 0.89835
vt 0.91897 0.88778
vt 0.46851 0.9815
vt 0.47317 0.99804
vt 0.44405 0.96003
vt 0.45508 0.95001
vt 0.45372 0.9364
vt 0.45929 0.94649
vt 0.46984 0.97517
vt 0.82221 0.89971
vt 0.4633 0.92918
vt 0.8239 0.90923
vt 0.46723 0.94087
vt 0.96251 0.87894
vt 0.83373 0.93244
vt 0.47383 0.96791
vt 0.9247 0.86054
vt 0.91964 0.86424
vt 0.93614 0.82828
vt 0.93914 0.82275
vt 0.94681 0.84046
vt 0.85146 0.84252
vt 0.85106 0.84421
vt 0.84164 0.86036
vt 0.8413 0.85308
vt 0.8408 0.91833
vt 0.83623 0.94312
vt 0.18475 0.81884
vt 0.1957 0.81487
vt 0.19798 0.81848
vt 0.19 0.8222
vt 0.84513 0.93262
vt 0.83691 0.94856
vt 0.20301 0.82841
vt 0.83977 0.96229
vt 0.18813 0.80885
vt 0.36333 0.72387
vt 0.37365 0.73544
vt 0.9253 0.74842
vt 0.92817 0.74403
vt 0.93983 0.74666
vt 0.91598 0.74719
vt 0.92283 0.74335
vt 0.82763 0.84199
vt 0.83558 0.80073
vt 0.84706 0.80421
vt 0.82703 0.85771
vt 0.82345 0.79642
vt 0.81985 0.82814
vt 0.45943 0.84353
vt 0.46369 0.81698
vt 0.87838 0.7501
vt 0.87365 0.75364
vt 0.82513 0.77828
vt 0.82509 0.78396
vt 0.46391 0.8073
vt 0.46377 0.80263
vt 0.87928 0.74088
vt 0.90957 0.74167
vt 0.86346 0.73963
vt 0.8787 0.7624
vt 0.81957 0.73051
vt 0.82234 0.76292
vt 0.46041 0.79163
vt 0.45147 0.76708
vt 0.85742 0.74212
vt 0.82185 0.84407
vt 0.82135 0.83867
vt 0.82569 0.83572
vt 0.831 0.79981
vt 0.45742 0.85407
vt 0.45835 0.87401
vt 0.45894 0.85956
vt 0.966 0.3342
vt 0.97569 0.31681
vt 0.986 0.31026
vt 0.93402 0.35625
vt 0.90057 0.37003
vt 0.91724 0.35154
vt 0.92863 0.34783
vt 0.95013 0.34371
vt 0.97096 0.31935
vt 0.71669 0.04918
vt 0.92704 0.34131
vt 0.92387 0.34482
vt 0.71202 0.05206
vt 0.70272 0.05822
vt 0.67598 0.07698
vt 0.76959 0.01249
vt 0.77673 0.00461
vt 0.76482 0.01546
vt 0.93434 0.34536
vt 0.93629 0.33493
vt 0.7282 0.04377
vt 0.95809 0.32429
vt 0.75378 0.02377
vt 0.45762 0.81123
vt 0.45804 0.8051
vt 0.44568 0.80909
vt 0.44884 0.82785
vt 0.44742 0.84272
vt 0.95186 0.78473
vt 0.9529 0.76595
vt 0.95436 0.76609
vt 0.95414 0.78449
vt 0.96585 0.76664
vt 0.96684 0.78443
vt 0.05803 0.90419
vt 0.06107 0.89198
vt 0.06894 0.90368
vt 0.94519 0.74925
vt 0.94507 0.75157
vt 0.94124 0.75127
vt 0.05045 0.92072
vt 0.02078 0.91794
vt 0.0241 0.91704
vt 0.04334 0.91632
vt 0.03442 0.91059
vt 0.05288 0.89528
vt 0.05549 0.9011
vt 0.93833 0.79211
vt 0.94245 0.78899
vt 0.94612 0.79093
vt 0.94466 0.79281
vt 0.97603 0.79133
vt 0.97776 0.79362
vt 0.64811 0.13796
vt 0.70047 0.30286
vt 0.68722 0.30478
vt 0.67058 0.14391
vt 0.74165 0.30268
vt 0.93907 0.75802
vt 0.94399 0.75749
vt 0.6746 0.14049
vt 0.97728 0.75974
vt 0.97897 0.74885
vt 0.9775 0.75392
vt 0.97231 0.7847
vt 0.98117 0.79128
vt 0.97747 0.82129
vt 0.94171 0.82024
vt 0.16428 0.78317
vt 0.16927 0.76497
vt 0.17508 0.7783
vt 0.76527 0.29952
vt 0.21543 0.85794
vt 0.20086 0.85842
vt 0.6919 0.10891
vt 0.94008 0.79731
vt 0.21612 0.86972
vt 0.98191 0.7936
vt 0.98523 0.7997
vt 0.80211 0.25063
vt 0.98157 0.75384
vt 0.98359 0.76134
vt 0.96961 0.76804
vt 0.47579 0.97875
vt 0.08651 0.92164
vt 0.47322 0.98452
vt 0.01072 0.91923
vt 0.05899 0.89069
vt 0.95049 0.38452
vt 0.94002 0.38484
vt 0.94324 0.37744
vt 0.93782 0.37994
vt 0.93495 0.38656
vt 0.88306 0.37297
vt 0.88832 0.37476
vt 0.97431 0.37787
vt 0.9849 0.37586
vt 0.98439 0.74745
vt 0.97306 0.74685
vt 0.92354 0.37191
vt 0.94008 0.36998
vt 0.92518 0.38423
vt 0.90183 0.3772
vt 0.75165 0.00795
vt 0.67376 0.06637
vt 0.70703 0.04281
vt 0.75237 0.01296
vt 0.71402 0.04118
vt 0.39979 0.80996
vt 0.40226 0.79953
vt 0.40384 0.79907
vt 0.40275 0.81063
vt 0.41779 0.79791
vt 0.41407 0.81082
vt 0.29793 0.08839
vt 0.30811 0.08235
vt 0.32268 0.11435
vt 0.31426 0.12106
vt 0.39764 0.7886
vt 0.39622 0.79057
vt 0.3934 0.79131
vt 0.69259 0.6286
vt 0.69119 0.63369
vt 0.49977 0.30941
vt 0.50355 0.30761
vt 0.72806 0.61014
vt 0.7125 0.61904
vt 0.52163 0.29668
vt 0.53631 0.28704
vt 0.3907 0.81391
vt 0.39051 0.81112
vt 0.3963 0.81412
vt 0.39416 0.81466
vt 0.42236 0.81826
vt 0.42436 0.81961
vt 0.2874 0.09893
vt 0.28904 0.09504
vt 0.30611 0.12535
vt 0.30542 0.1304
vt 0.33127 0.07339
vt 0.33469 0.07256
vt 0.35434 0.10564
vt 0.35126 0.10805
vt 0.74024 0.60417
vt 0.73563 0.60341
vt 0.54597 0.2807
vt 0.54864 0.27875
vt 0.69934 0.62915
vt 0.50846 0.30486
vt 0.39187 0.79608
vt 0.39775 0.79612
vt 0.3284 0.07695
vt 0.34569 0.10945
vt 0.42917 0.78627
vt 0.43366 0.77962
vt 0.43164 0.78216
vt 0.41667 0.81165
vt 0.42717 0.81796
vt 0.42588 0.84347
vt 0.3927 0.83585
vt 0.3597 0.04944
vt 0.38114 0.07698
vt 0.58403 0.68933
vt 0.39588 0.3686
vt 0.4163 0.35711
vt 0.60673 0.68221
vt 0.38795 0.81682
vt 0.74235 0.59826
vt 0.5528 0.2765
vt 0.57148 0.26382
vt 0.76197 0.58557
vt 0.3918 0.03083
vt 0.39408 0.02771
vt 0.41662 0.059
vt 0.41276 0.05859
vt 0.60217 0.24598
vt 0.79137 0.56752
vt 0.42944 0.82155
vt 0.43223 0.82606
vt 0.60869 0.67659
vt 0.42034 0.35458
vt 0.43749 0.78042
vt 0.43652 0.78527
vt 0.42058 0.80019
vt 0.83073 0.90264
vt 0.8289 0.89608
vt 0.84175 0.89776
vt 0.81593 0.51657
vt 0.82378 0.51488
vt 0.82615 0.51695
vt 0.82878 0.51655
vt 0.82765 0.51346
vt 0.37534 0.75192
vt 0.37801 0.77868
vt 0.80673 0.5343
vt 0.80278 0.53146
vt 0.37536 0.74122
vt 0.83835 0.51089
vt 0.80782 0.54231
vt 0.78863 0.53829
vt 0.79507 0.52674
vt 0.34948 0.6989
vt 0.78695 0.53273
vt 0.15959 0.77655
vt 0.16739 0.75931
vt 0.19347 0.85789
vt 0.38808 0.78866
vt 0.34701 0.69199
vt 0.51425 0.60827
vt 0.3431 0.68943
vt 0.51025 0.60338
vt 0.03894 0.52556
vt 0.02309 0.51891
vt 0.03421 0.51349
vt 0.08056 0.51523
vt 0.07618 0.52741
vt 0.0296 0.50909
vt 0.0189 0.5174
vt 0.07523 0.72633
vt 0.08081 0.7271
vt 0.08556 0.52564
vt 0.08141 0.65078
vt 0.0724 0.65072
vt 0.04688 0.64987
vt 0.03658 0.64986
vt 0.03026 0.64793
vt 0.10543 0.52336
vt 0.09111 0.52584
vt 0.09479 0.5126
vt 0.07622 0.50832
vt 0.10108 0.65153
vt 0.08786 0.65052
vt 0.00627 0.5166
vt 0.13563 0.50764
vt 0.14181 0.51742
vt 0.1269 0.65392
vt 0.01556 0.64732
vt 0.53639 0.67809
vt 0.53275 0.66767
vt 0.54161 0.66497
vt 0.54197 0.65589
vt 0.53335 0.66097
vt 0.5662 0.69102
vt 0.56088 0.69407
vt 0.53003 0.61843
vt 0.52691 0.64978
vt 0.51676 0.62226
vt 0.54994 0.70496
vt 0.55864 0.71327
vt 0.56544 0.70918
vt 0.87741 0.82963
vt 0.87608 0.8342
vt 0.85574 0.82958
vt 0.85811 0.82531
vt 0.86782 0.84701
vt 0.22547 0.70094
vt 0.2122 0.6556
vt 0.22727 0.65169
vt 0.24161 0.69341
vt 0.84898 0.81264
vt 0.84837 0.81969
vt 0.84568 0.81886
vt 0.09566 0.05154
vt 0.21619 0.40304
vt 0.21159 0.4044
vt 0.09117 0.05072
vt 0.13111 0.03864
vt 0.25304 0.3899
vt 0.23601 0.39562
vt 0.11285 0.041
vt 0.89381 0.82323
vt 0.8917 0.82749
vt 0.88872 0.82736
vt 0.88763 0.82299
vt 0.87415 0.85907
vt 0.87179 0.85644
vt 0.21321 0.70887
vt 0.19924 0.66288
vt 0.20235 0.66182
vt 0.21606 0.70737
vt 0.2644 0.6925
vt 0.25024 0.64711
vt 0.25347 0.64368
vt 0.26955 0.69127
vt 0.14353 0.03028
vt 0.26745 0.38587
vt 0.26513 0.38678
vt 0.14108 0.03533
vt 0.22151 0.40127
vt 0.10079 0.04908
vt 0.85407 0.81975
vt 0.85521 0.81294
vt 0.24615 0.64781
vt 0.25933 0.69127
vt 0.83695 0.85326
vt 0.83487 0.85293
vt 0.87069 0.86122
vt 0.86691 0.84929
vt 0.92246 0.83198
vt 0.90618 0.86636
vt 0.30038 0.6727
vt 0.28954 0.63036
vt 0.20541 0.01239
vt 0.22737 0.00465
vt 0.35115 0.35612
vt 0.32838 0.36513
vt 0.89949 0.82311
vt 0.14945 0.03254
vt 0.1697 0.02035
vt 0.29507 0.37806
vt 0.27203 0.38412
vt 0.36303 0.65726
vt 0.34684 0.61181
vt 0.35163 0.61022
vt 0.36822 0.65635
vt 0.87347 0.86351
vt 0.8782 0.86818
vt 0.00568 0.07695
vt 0.12616 0.4331
vt 0.12167 0.43476
vt 0.00195 0.08242
vt 0.83628 0.85813
vt 0.1392 0.42848
vt 0.01832 0.07786
vt 0.03481 0.07075
vt 0.1551 0.42224
vt 0.23195 0.44653
vt 0.22685 0.44667
vt 0.27092 0.43178
vt 0.25205 0.43704
vt 0.00826 0.07667
vt 0.12817 0.43203
vt 0.17574 0.41551
vt 0.05472 0.0604
vt 0.05901 0.06361
vt 0.18092 0.41416
vt 0.28206 0.42784
vt 0.27992 0.42876
vt 0.23841 0.44305
vt 0.04978 0.06581
vt 0.16986 0.41705
vt 0.36586 0.39587
vt 0.34466 0.40848
vt 0.31044 0.42464
vt 0.28719 0.42714
vt 0.13916 0.47761
vt 0.13468 0.47967
vt 0.43176 0.34918
vt 0.44646 0.3408
vt 0.63539 0.66164
vt 0.61876 0.66887
vt 0.47441 0.27891
vt 0.4789 0.27538
vt 0.49814 0.26746
vt 0.5121 0.25718
vt 0.42222 0.35426
vt 0.61158 0.67588
vt 0.46454 0.3294
vt 0.4688 0.32705
vt 0.65888 0.64838
vt 0.65393 0.64984
vt 0.52134 0.24747
vt 0.52387 0.24469
vt 0.48374 0.27222
vt 0.45978 0.33197
vt 0.64834 0.65198
vt 0.37811 0.32676
vt 0.39898 0.31711
vt 0.52824 0.24225
vt 0.54592 0.22761
vt 0.57843 0.20886
vt 0.40324 0.31572
vt 0.39342 0.26126
vt 0.40742 0.25654
vt 0.42802 0.30485
vt 0.41277 0.31142
vt 0.38304 0.26994
vt 0.38521 0.27005
vt 0.40534 0.3138
vt 0.42875 0.25173
vt 0.43197 0.2514
vt 0.44763 0.29533
vt 0.44468 0.29661
vt 0.42341 0.25276
vt 0.44012 0.29846
vt 0.45562 0.23139
vt 0.49407 0.20392
vt 0.49872 0.20236
vt 0.16379 0.51227
vt 0.1531 0.47287
vt 0.17063 0.46503
vt 0.18264 0.50537
vt 0.14683 0.51749
vt 0.1436 0.47744
vt 0.14862 0.51575
vt 0.20761 0.4995
vt 0.18964 0.45587
vt 0.19514 0.45483
vt 0.21227 0.49735
vt 0.18459 0.45888
vt 0.1999 0.50073
vt 0.24389 0.48625
vt 0.3039 0.46212
vt 0.3085 0.46171
vt 0.2475 0.48439
vt 0.26422 0.5273
vt 0.26086 0.53099
vt 0.28933 0.46625
vt 0.30814 0.51087
vt 0.28754 0.51738
vt 0.26936 0.47482
vt 0.32242 0.50691
vt 0.31984 0.50773
vt 0.30223 0.4645
vt 0.27127 0.5256
vt 0.25459 0.48152
vt 0.3671 0.44473
vt 0.38628 0.43146
vt 0.40895 0.46846
vt 0.38695 0.48656
vt 0.3299 0.46373
vt 0.34827 0.50895
vt 0.3271 0.50612
vt 0.15852 0.55803
vt 0.15412 0.55941
vt 0.14321 0.52017
vt 0.45843 0.22856
vt 0.42763 0.17537
vt 0.43009 0.1722
vt 0.48579 0.21186
vt 0.47348 0.22152
vt 0.4453 0.1621
vt 0.45824 0.15463
vt 0.49233 0.20559
vt 0.46337 0.15183
vt 0.46445 0.14968
vt 0.46129 0.22398
vt 0.43543 0.16915
vt 0.35921 0.27807
vt 0.33427 0.22853
vt 0.34985 0.21841
vt 0.379 0.2706
vt 0.46804 0.14818
vt 0.48591 0.13697
vt 0.51631 0.1882
vt 0.51733 0.12316
vt 0.54605 0.1712
vt 0.35323 0.21625
vt 0.36412 0.20459
vt 0.37743 0.19818
vt 0.35546 0.21365
vt 0.39909 0.19167
vt 0.40326 0.18958
vt 0.39286 0.1928
vt 0.17391 0.55437
vt 0.19354 0.54971
vt 0.16116 0.55757
vt 0.2208 0.54654
vt 0.22534 0.54408
vt 0.21308 0.54572
vt 0.28055 0.58231
vt 0.27587 0.58381
vt 0.32216 0.56668
vt 0.30133 0.57387
vt 0.34078 0.56447
vt 0.33842 0.56649
vt 0.28695 0.57986
vt 0.42725 0.53032
vt 0.40192 0.54575
vt 0.36705 0.56111
vt 0.34741 0.56535
vt 0.17798 0.61435
vt 0.17338 0.61608
vt 0.40405 0.12454
vt 0.40778 0.1224
vt 0.42338 0.11527
vt 0.43418 0.10721
vt 0.44043 0.10003
vt 0.44299 0.10071
vt 0.41127 0.1167
vt 0.30987 0.19145
vt 0.32115 0.1776
vt 0.44606 0.09885
vt 0.46329 0.09318
vt 0.49738 0.08053
vt 0.32477 0.17735
vt 0.33502 0.16511
vt 0.34613 0.15863
vt 0.32586 0.1727
vt 0.37131 0.14739
vt 0.37541 0.14874
vt 0.36667 0.15034
vt 0.19203 0.61207
vt 0.21082 0.60692
vt 0.18093 0.61469
vt 0.23391 0.59478
vt 0.23923 0.59313
vt 0.22849 0.59703
vt 0.29343 0.62797
vt 0.33048 0.61397
vt 0.31052 0.62042
vt 0.34351 0.61208
vt 0.29859 0.62698
vt 0.43976 0.58342
vt 0.41228 0.59124
vt 0.37641 0.60224
vt 0.19393 0.66449
vt 0.38433 0.07433
vt 0.39571 0.07206
vt 0.40632 0.06625
vt 0.4106 0.05804
vt 0.3888 0.07463
vt 0.28633 0.14111
vt 0.30177 0.13085
vt 0.42936 0.04934
vt 0.46313 0.0339
vt 0.30769 0.67293
vt 0.34849 0.66273
vt 0.32672 0.66298
vt 0.35788 0.65593
vt 0.31316 0.67069
vt 0.44823 0.62509
vt 0.42426 0.63639
vt 0.39145 0.65143
vt 0.20685 0.70866
vt 0.36236 0.04586
vt 0.37358 0.04079
vt 0.38359 0.03611
vt 0.3894 0.02985
vt 0.36577 0.04456
vt 0.26697 0.10761
vt 0.28269 0.09783
vt 0.41276 0.02162
vt 0.44165 0.00195
vt 0.75314 0.40404
vt 0.74348 0.40358
vt 0.7162 0.41012
vt 0.70797 0.41639
vt 0.78188 0.34011
vt 0.78821 0.33843
vt 0.76698 0.39273
vt 0.75766 0.40379
vt 0.78651 0.37007
vt 0.85655 0.49011
vt 0.72588 0.36771
vt 0.7239 0.37131
vt 0.79562 0.33301
vt 0.74257 0.35528
vt 0.73054 0.36363
vt 0.76673 0.34458
vt 0.81043 0.31794
vt 0.06605 0.7239
vt 0.0441 0.73005
vt 0.03301 0.73597
vt 0.02727 0.73646
vt 0.08906 0.72761
vt 0.11004 0.74232
vt 0.01713 0.73358
vt 0.70222 0.38202
vt 0.69581 0.38781
g Group54471
f 15/1 16/2 11/3 12/4
f 16/2 17/5 13/6 11/3
g Group23216
f 277/7 513/8 514/9 274/10
g Group54471
f 2/11 3/12 1/13
g Group23216
f 280/14 284/15 276/16 264/17
f 261/18 515/19 516/20 265/21
g Group54471
f 39/22 40/23 42/24 37/25
f 40/23 45/26 43/27 42/24
g Group23216
f 227/28 509/29 508/30 210/31
f 284/15 285/32 277/7 276/16
f 276/16 277/7 274/10
g Group23126
f 251/33 197/34 193/35 247/36
g Group54471
f 12/4 11/3 5/37 4/38
g Group23126
f 144/39 90/40 197/34 251/33
g Group54471
f 11/3 13/6 9/41 5/37
f 3/12 7/42 6/43 1/13
f 43/27 44/44 18/45 17/5
f 45/26 40/23 63/46 65/47
g Group23126
f 143/48 144/49 251/50 248/51
g Group54471
f 4/38 5/37 3/12 2/11
g Group23126
f 248/51 251/50 247/52
f 143/48 248/51 238/53 134/54
g Group54471
f 5/37 9/41 7/42 3/12
g Group23126
f 247/36 193/35 183/55 237/56
f 237/56 183/55 181/57 235/58
g Group54471
f 40/23 39/22 47/59 63/46
g Group23126
f 235/58 181/57 77/60 131/61
f 248/51 247/52 237/56 238/53
f 238/53 235/58 131/61 134/54
g Group54471
f 46/62 45/26 65/47 52/63
g Group23126
f 238/53 237/56 235/58
g Group54471
f 9/41 10/64 8/65 7/42
f 7/42 8/65 6/43
f 37/25 42/24 16/2 15/1
f 17/5 18/45 14/66 13/6
f 42/24 43/27 17/5 16/2
f 45/26 46/62 44/44 43/27
f 173/67 174/68 164/69 170/70
f 13/6 14/66 10/64 9/41
g Group23126
f 80/71 79/72 77/60
g Group23246
f 253/73 254/74 244/75 243/76
g Group23126
f 89/77 88/78 79/72 80/71
g Group23246
f 243/76 244/75 241/79
g Group23126
f 89/77 90/80 88/78
g Group23246
f 257/81 537/82 538/83 254/74
g Group23216
f 48/84 49/85 38/86
f 58/87 59/88 49/85 48/84
g Group23246
f 138/89 137/90 139/91 140/92
f 125/93 126/94 72/95 71/96
g Group23216
f 60/97 58/87 48/84 50/98
g Group23246
f 136/99 128/100 74/101 82/102
f 128/100 125/93 71/96 74/101
g Group23216
f 60/97 64/103 62/104 58/87
f 60/97 61/105 64/103
g Group23246
f 136/99 139/91 137/90
g Group23216
f 48/84 38/86 41/106 50/98
g Group23246
f 140/107 139/108 85/109 86/110
g Group23216
f 50/98 41/106 51/111
g Group23246
f 141/112 132/113 130/114 138/89
f 138/89 130/114 129/115 137/90
g Group23216
f 61/105 60/97 50/98 51/111
g Group23246
f 126/94 132/113 78/116 72/95
g Group23216
f 58/87 62/104 59/88
g Group23246
f 141/112 140/92 86/117 87/118
f 87/118 78/116 132/113 141/112
g Group23261
f 56/119 55/120 53/121
f 56/122 53/123 54/124 57/125
f 67/126 66/127 55/120 56/119
f 135/128 81/129 73/130 127/131
f 54/124 108/132 127/131 73/130
f 53/123 107/133 108/132 54/124
f 55/120 109/134 107/135 53/121
f 66/127 120/136 109/134 55/120
f 68/137 81/129 70/138
f 57/125 54/124 73/130
f 68/137 67/126 56/122 57/125
f 81/129 135/128 124/139 70/138
f 81/129 68/137 57/125 73/130
f 67/126 69/140 66/127
f 68/137 70/138 69/140 67/126
f 70/138 124/139 123/141 69/140
f 69/140 123/141 120/136 66/127
g Group23246
f 75/142 74/101 71/96
f 83/143 82/102 74/101 75/142
f 84/144 83/143 75/142 76/145
f 84/144 86/110 85/109 83/143
f 84/146 87/118 86/117
f 75/142 71/96 72/95 76/145
f 76/145 72/95 78/116
f 87/118 84/146 76/145 78/116
f 83/143 85/109 82/102
g Group54471
f 35/147 32/148 31/149 36/150
f 36/150 31/149 29/151 34/152
g Group23261
f 256/153 255/154 258/155
g Group54471
f 23/156 25/157 24/158
g Group23261
f 278/159 279/160 263/161 262/162
f 262/162 260/163 242/164 246/165
g Group54471
f 98/166 95/167 94/168 99/169
f 99/169 94/168 92/170 96/171
g Group23261
f 262/162 263/161 260/163
g Group23216
f 288/172 517/173 518/174 285/32
f 284/15 288/172 285/32
f 283/175 519/176 517/173 288/172
g Group54471
f 32/148 27/177 28/178 31/149
g Group23216
f 281/179 280/14 264/17 265/21
g Group54471
f 31/149 28/178 26/180 29/151
f 25/157 23/156 21/181 22/182
f 92/170 34/152 33/183 93/184
f 96/171 116/185 117/186 99/169
g Group23246
f 250/187 249/188 252/189
g Group54471
f 27/177 24/158 25/157 28/178
g Group23216
f 281/179 520/190 519/176 283/175
f 264/17 261/18 265/21
g Group54471
f 28/178 25/157 22/182 26/180
g Group23246
f 243/76 241/79 236/191 240/192
g Group23216
f 276/16 274/193 261/18 264/17
g Group54471
f 99/169 117/186 102/194 98/166
g Group23216
f 280/14 281/179 283/175
g Group23246
f 240/192 236/191 239/195
g Group23216
f 280/14 283/175 288/172 284/15
g Group54471
f 97/196 91/197 116/185 96/171
g Group23216
f 274/193 514/198 515/19 261/18
g Group54471
f 26/180 22/182 19/199 20/200
f 21/181 19/199 22/182
f 95/167 35/147 36/150 94/168
f 34/152 29/151 30/201 33/183
f 94/168 36/150 34/152 92/170
f 96/171 92/170 93/184 97/196
g Group23216
f 285/32 518/174 513/8 277/7
g Group54471
f 29/151 26/180 20/200 30/201
g Group23126
f 131/61 133/202 134/54
g Group23261
f 256/153 258/155 282/203 278/159
g Group23126
f 143/48 134/54 133/202 142/204
g Group23261
f 278/159 282/205 279/160
g Group23126
f 133/202 131/61 77/60 79/72
f 142/204 133/202 79/72 88/78
g Group23261
f 255/154 256/153 246/165 245/206
g Group23126
f 142/204 144/49 143/48
g Group23261
f 256/153 278/159 262/162 246/165
f 246/165 242/164 245/206
g Group23126
f 144/49 142/204 88/78 90/80
g Group23216
f 100/207 104/208 103/209
f 112/210 103/209 104/208 113/211
f 61/105 51/111 106/212 115/213
f 101/214 106/215 51/216 41/217
f 114/218 105/219 103/209 112/210
f 104/208 100/207 38/86 49/85
f 113/211 104/208 49/85 59/88
f 100/207 101/214 41/217 38/86
f 114/218 112/210 118/220 119/221
g Group23246
f 132/113 126/94 130/114
g Group23216
f 119/221 115/213 114/218
f 103/209 105/219 101/214 100/207
g Group23246
f 129/115 130/114 126/94 125/93
g Group23216
f 106/215 101/214 105/219
f 115/213 119/221 64/103 61/105
g Group23246
f 140/92 141/112 138/89
g Group23216
f 115/213 106/212 105/219 114/218
f 119/221 118/220 62/104 64/103
f 113/211 118/220 112/210
f 118/220 113/211 59/88 62/104
g Group23261
f 107/135 109/134 110/222
f 110/223 111/224 108/132 107/133
f 121/225 110/222 109/134 120/136
f 124/139 135/128 122/226
f 127/131 108/132 111/224
f 122/226 111/224 110/222 121/225
f 135/128 127/131 111/224 122/226
f 120/136 123/141 121/225
f 122/226 121/225 123/141 124/139
g Group23246
f 139/108 136/99 82/102 85/109
f 125/93 128/100 129/115
f 137/90 129/115 128/100 136/99
g Group54471
f 159/227 156/228 155/229 160/230
f 160/230 155/229 157/231 161/232
g Group23111
f 162/233 158/234 469/235 470/236
g Group54471
f 145/237 147/238 146/239
g Group23111
f 2/240 1/241 309/242 310/243
f 15/244 12/245 311/246 312/247
g Group54471
f 213/248 212/249 215/250 214/251
f 214/251 215/250 216/252 218/253
g Group23111
f 219/254 217/255 471/256 472/257
f 152/258 150/259 473/260 474/261
f 39/262 37/263 317/264 318/265
f 12/245 4/266 319/267 311/246
g Group54471
f 156/228 148/268 149/269 155/229
g Group23111
f 158/234 154/270 475/271 469/235
g Group54471
f 155/229 149/269 153/272 157/231
f 147/238 145/237 150/273 151/274
f 216/252 161/232 162/275 217/276
f 218/253 234/277 233/278 214/251
g Group23111
f 4/266 2/240 310/243 319/267
g Group54471
f 148/268 146/239 147/238 149/269
g Group23111
f 145/279 476/280 473/260 150/259
f 154/270 152/258 474/261 475/271
g Group54471
f 149/269 147/238 151/274 153/272
g Group23111
f 65/281 321/282 322/283 52/284
f 37/263 15/244 312/247 317/264
g Group54471
f 214/251 233/278 222/285 213/248
g Group23111
f 47/286 323/287 324/288 63/289
f 213/290 222/291 477/292 478/293
f 63/289 324/288 321/294 65/295
g Group54471
f 219/296 223/297 234/277 218/253
g Group23111
f 46/298 52/284 322/283 314/299
g Group54471
f 153/272 151/274 152/300 154/301
f 150/273 152/300 151/274
f 212/249 159/227 160/230 215/250
f 161/232 157/231 158/302 162/275
f 215/250 160/230 161/232 216/252
f 218/253 216/252 217/276 219/296
g Group23111
f 217/255 162/233 470/236 471/256
g Group54471
f 157/231 153/272 154/301 158/302
g Group23126
f 181/57 183/55 184/303
f 184/303 80/71 77/60 181/57
f 194/304 184/303 183/55 193/35
f 89/305 80/71 184/303 194/304
f 193/35 197/34 194/304
f 89/305 194/304 197/34 90/40
g Group23216
f 211/306 221/307 220/308
f 230/309 220/308 221/307 231/310
g Group23246
f 250/187 252/189 257/81 253/73
f 241/79 539/311 540/312 236/191
g Group23216
f 226/313 209/314 220/308 230/309
g Group23246
f 254/74 538/83 541/315 244/75
f 244/75 541/315 539/311 241/79
g Group23216
f 226/313 230/309 232/316 229/317
f 229/317 227/318 226/313
g Group23246
f 253/73 257/81 254/74
g Group23216
f 220/308 209/314 206/319 211/306
g Group23246
f 252/189 542/320 537/82 257/81
g Group23216
f 210/321 206/319 209/314
g Group23246
f 249/188 250/187 240/322 239/323
f 250/324 253/73 243/76 240/192
g Group23216
f 227/318 210/321 209/314 226/313
g Group23246
f 236/191 540/312 543/325 239/195
g Group23216
f 231/310 232/316 230/309
g Group23246
f 249/188 544/326 542/320 252/189
f 195/327 544/326 543/328 185/329
g Group23261
f 205/330 208/331 207/332
f 207/332 192/333 188/334 205/330
f 224/335 207/332 208/331 225/336
f 255/154 245/206 529/337 530/338
f 188/334 191/339 521/340 523/341
f 205/330 188/334 523/341 524/342
f 208/331 205/330 524/342 525/343
f 225/336 208/331 525/343 526/344
f 204/345 201/346 202/347
f 191/339 188/334 192/333
f 202/348 192/333 207/332 224/335
f 201/346 204/345 527/349 522/350
f 201/346 191/339 192/333 202/347
f 225/336 228/351 224/335
f 202/347 224/352 228/353 204/345
f 204/345 228/353 528/354 527/349
f 228/351 225/336 526/344 528/355
g Group23246
f 187/356 190/357 189/358
f 199/359 189/358 190/357 200/360
f 196/361 186/362 189/358 199/359
f 196/363 199/359 203/364 198/365
f 198/365 195/327 196/363
f 189/358 186/362 182/366 187/356
f 185/367 182/366 186/362
f 195/368 185/367 186/362 196/361
f 200/360 203/364 199/359
g Group54471
f 179/369 180/370 175/371 176/372
f 180/370 178/373 173/67 175/371
g Group23141
f 177/374 479/375 480/376 174/377
g Group54471
f 168/378 169/379 167/380
g Group23141
f 24/381 291/382 292/383 23/384
f 35/385 293/386 294/387 32/388
g Group54471
f 272/389 273/390 268/391 269/392
f 273/390 270/393 266/394 268/391
g Group23141
f 271/395 481/396 482/397 267/398
f 163/399 483/400 484/401 165/402
f 98/403 299/404 300/405 95/406
f 32/388 294/387 301/407 27/408
g Group54471
f 176/372 175/371 172/409 171/410
g Group23141
f 174/377 480/376 485/411 164/412
g Group54471
f 175/371 173/67 170/70 172/409
f 169/379 166/413 165/414 167/380
f 266/394 267/415 177/416 178/373
f 270/393 273/390 287/417 286/418
g Group23141
f 27/408 301/407 291/382 24/381
g Group54471
f 171/410 172/409 169/379 168/378
g Group23141
f 167/419 165/402 484/401 486/420
f 164/412 485/411 483/400 163/399
g Group54471
f 172/409 170/70 166/413 169/379
g Group23141
f 116/421 91/422 303/423 304/424
f 95/406 300/405 293/386 35/385
g Group54471
f 273/390 272/389 275/425 287/417
g Group23141
f 102/426 117/427 305/428 306/429
f 272/430 487/431 488/432 275/433
f 117/427 116/421 304/424 305/428
g Group54471
f 271/434 270/393 286/418 259/435
g Group23141
f 97/436 295/437 303/438 91/439
g Group54471
f 170/70 164/69 163/440 166/413
f 166/413 163/440 165/414
f 269/392 268/391 180/370 179/369
f 178/373 177/416 174/68 173/67
f 268/391 266/394 178/373 180/370
f 270/393 271/434 267/415 266/394
g Group23141
f 267/398 482/397 479/375 177/374
f 289/441 33/442 30/443 290/444
f 291/382 361/445 362/446 292/383
f 293/386 363/447 364/448 294/387
f 295/437 97/436 93/449 296/450
f 297/451 19/452 21/453 298/454
f 299/404 365/455 366/456 300/405
f 294/387 364/448 367/457 301/407
f 290/444 30/443 20/458 302/459
f 301/407 367/457 361/445 291/382
f 292/383 298/454 21/453 23/384
f 302/459 20/458 19/452 297/451
f 304/424 303/423 368/460 369/461
f 300/405 366/456 363/447 293/386
f 306/429 305/428 370/462 371/463
f 299/404 98/403 102/426 306/429
f 305/428 304/424 369/461 370/462
f 295/437 372/464 368/465 303/438
f 296/450 93/449 33/442 289/441
g Group23111
f 308/466 307/467 14/468 18/469
f 310/243 309/242 373/470 374/471
f 312/247 311/246 375/472 376/473
f 314/299 313/474 44/475 46/298
f 316/476 315/477 6/478 8/479
f 318/265 317/264 377/480 378/481
f 311/246 319/267 379/482 375/472
f 307/467 320/483 10/484 14/468
f 319/267 310/243 374/471 379/482
f 309/242 1/241 6/478 315/477
f 320/483 316/476 8/479 10/484
f 321/282 380/485 381/486 322/283
f 317/264 312/247 376/473 377/480
f 323/287 382/487 383/488 324/288
f 318/265 323/287 47/286 39/262
f 324/288 383/488 380/489 321/294
f 314/299 322/283 381/486 384/490
f 313/474 308/466 18/469 44/475
f 326/491 325/492 385/493 386/494
f 328/495 327/496 387/497 384/490
f 330/498 329/499 388/500 389/501
f 325/492 331/502 390/503 385/493
f 332/504 373/470 388/500 329/499
f 331/502 330/498 389/501 390/503
f 334/505 333/506 382/487 378/481
f 327/496 326/491 386/494 387/497
g Group23141
f 335/507 391/508 392/509 336/510
f 337/511 372/464 393/512 338/513
f 339/514 394/515 395/516 340/517
f 336/510 392/509 396/518 341/519
f 342/520 340/517 395/516 362/446
f 341/519 396/518 394/515 339/514
f 343/521 365/455 371/463 344/522
f 338/513 393/512 391/508 335/507
f 345/523 417/524 414/525 342/520
f 346/526 418/527 419/528 347/529
f 343/521 415/530 420/531 348/532
f 347/529 419/528 421/533 349/534
f 349/534 421/533 417/524 345/523
f 351/535 350/536 422/537 423/538
f 348/532 420/531 418/527 346/526
f 344/522 352/539 424/540 416/541
f 352/539 351/535 423/538 424/540
f 337/511 409/542 422/543 350/544
g Group23111
f 353/545 332/504 404/546 425/547
f 355/548 354/549 426/550 427/551
f 334/505 356/552 428/553 406/554
f 354/549 357/555 429/556 426/550
f 357/555 353/545 425/547 429/556
f 358/557 430/558 431/559 359/560
f 356/552 355/548 427/551 428/553
f 333/506 405/561 432/562 360/563
f 360/563 432/562 430/564 358/565
f 328/495 359/560 431/559 400/566
g Group23141
f 361/445 345/523 342/520 362/446
f 363/447 346/526 347/529 364/448
f 365/455 343/521 348/532 366/456
f 364/448 347/529 349/534 367/457
f 367/457 349/534 345/523 361/445
f 369/461 368/460 350/536 351/535
f 366/456 348/532 346/526 363/447
f 371/463 370/462 352/539 344/522
f 370/462 369/461 351/535 352/539
f 372/464 337/511 350/544 368/465
g Group23111
f 374/471 373/470 332/504 353/545
f 376/473 375/472 354/549 355/548
f 378/481 377/480 356/552 334/505
f 375/472 379/482 357/555 354/549
f 379/482 374/471 353/545 357/555
f 380/485 358/557 359/560 381/486
f 377/480 376/473 355/548 356/552
f 382/487 333/506 360/563 383/488
f 383/488 360/563 358/565 380/489
f 384/490 381/486 359/560 328/495
f 386/494 385/493 307/467 308/466
f 384/490 387/497 313/474 314/299
f 389/501 388/500 315/477 316/476
f 385/493 390/503 320/483 307/467
f 373/470 309/242 315/477 388/500
f 390/503 389/501 316/476 320/483
f 378/481 382/487 323/287 318/265
f 387/497 386/494 308/466 313/474
g Group23141
f 391/508 289/441 290/444 392/509
f 372/464 295/437 296/450 393/512
f 394/515 297/451 298/454 395/516
f 392/509 290/444 302/459 396/518
f 362/446 395/516 298/454 292/383
f 396/518 302/459 297/451 394/515
f 365/455 299/404 306/429 371/463
f 393/512 296/450 289/441 391/508
g Group23111
f 398/567 397/568 325/492 326/491
f 400/566 399/569 327/496 328/495
f 402/570 401/571 329/499 330/498
f 397/568 403/572 331/502 325/492
f 404/546 332/504 329/499 401/571
f 403/572 402/570 330/498 331/502
f 406/554 405/561 333/506 334/505
f 399/569 398/567 326/491 327/496
g Group23141
f 407/573 335/507 336/510 408/574
f 409/542 337/511 338/513 410/575
f 411/576 339/514 340/517 412/577
f 408/574 336/510 341/519 413/578
f 414/525 412/577 340/517 342/520
f 413/578 341/519 339/514 411/576
f 415/530 343/521 344/522 416/541
f 410/575 338/513 335/507 407/573
f 417/524 453/579 450/580 414/525
f 418/527 454/581 455/582 419/528
f 415/530 451/583 456/584 420/531
f 419/528 455/582 457/585 421/533
f 421/533 457/585 453/579 417/524
f 423/538 422/537 458/586 459/587
f 420/531 456/584 454/581 418/527
f 416/541 424/540 460/588 452/589
f 424/540 423/538 459/587 460/588
f 409/542 445/590 458/591 422/543
g Group23111
f 425/547 404/546 440/592 461/593
f 427/551 426/550 462/594 463/595
f 406/554 428/553 464/596 442/597
f 426/550 429/556 465/598 462/594
f 429/556 425/547 461/593 465/598
f 430/558 466/599 467/600 431/559
f 428/553 427/551 463/595 464/596
f 405/561 441/601 468/602 432/562
f 432/562 468/602 466/603 430/564
f 400/566 431/559 467/600 436/604
f 434/605 433/606 397/568 398/567
f 436/604 435/607 399/569 400/566
f 438/608 437/609 401/571 402/570
f 433/606 439/610 403/572 397/568
f 440/592 404/546 401/571 437/609
f 439/610 438/608 402/570 403/572
f 442/597 441/601 405/561 406/554
f 435/607 434/605 398/567 399/569
g Group23141
f 443/611 407/573 408/574 444/612
f 445/590 409/542 410/575 446/613
f 447/614 411/576 412/577 448/615
f 444/612 408/574 413/578 449/616
f 450/580 448/615 412/577 414/525
f 449/616 413/578 411/576 447/614
f 451/583 415/530 416/541 452/589
f 446/613 410/575 407/573 443/611
f 453/579 489/617 486/420 450/580
f 454/581 490/618 491/619 455/582
f 451/583 487/431 492/620 456/584
f 455/582 491/619 493/621 457/585
f 457/585 493/621 489/617 453/579
f 459/587 458/586 494/622 495/623
f 456/584 492/620 490/618 454/581
f 452/589 460/588 496/624 488/432
f 460/588 459/587 495/623 496/624
f 445/590 481/396 494/625 458/591
g Group23111
f 461/593 440/592 476/280 497/626
f 463/595 462/594 498/627 499/628
f 442/597 464/596 500/629 478/293
f 462/594 465/598 501/630 498/627
f 465/598 461/593 497/626 501/630
f 466/599 502/631 503/632 467/600
f 464/596 463/595 499/628 500/629
f 441/601 477/292 504/633 468/602
f 468/602 504/633 502/634 466/603
f 436/604 467/600 503/632 472/257
f 470/236 469/235 433/606 434/605
f 472/257 471/256 435/607 436/604
f 474/261 473/260 437/609 438/608
f 469/235 475/271 439/610 433/606
f 476/280 440/592 437/609 473/260
f 475/271 474/261 438/608 439/610
f 478/293 477/292 441/601 442/597
f 471/256 470/236 434/605 435/607
g Group23141
f 479/375 443/611 444/612 480/376
f 481/396 445/590 446/613 482/397
f 483/400 447/614 448/615 484/401
f 480/376 444/612 449/616 485/411
f 486/420 484/401 448/615 450/580
f 485/411 449/616 447/614 483/400
f 487/431 451/583 452/589 488/432
f 482/397 446/613 443/611 479/375
f 489/617 168/635 167/419 486/420
f 490/618 179/636 176/637 491/619
f 487/431 272/430 269/638 492/620
f 491/619 176/637 171/639 493/621
f 493/621 171/639 168/635 489/617
f 495/623 494/622 259/640 286/641
f 492/620 269/638 179/636 490/618
f 488/432 496/624 287/642 275/433
f 496/624 495/623 286/641 287/642
f 481/396 271/395 259/643 494/625
g Group23111
f 497/626 476/280 145/279 146/644
f 499/628 498/627 156/645 159/646
f 478/293 500/629 212/647 213/290
f 498/627 501/630 148/648 156/645
f 501/630 497/626 146/644 148/648
f 502/631 234/649 223/650 503/632
f 500/629 499/628 159/646 212/647
f 477/292 222/291 233/651 504/633
f 504/633 233/651 234/652 502/634
f 472/257 503/632 223/650 219/254
g Group23216
f 505/653 221/307 211/306 506/654
f 507/655 206/319 210/321 508/656
f 509/29 545/657 546/658 508/30
f 510/659 232/316 231/310 511/660
f 512/661 229/662 232/316 510/659
f 509/29 227/28 229/662 512/661
f 506/654 211/306 206/319 507/655
f 511/660 231/310 221/307 505/653
f 513/8 547/663 548/664 514/9
f 515/19 549/665 546/658 516/20
f 517/173 550/666 551/667 518/174
f 519/176 552/668 550/666 517/173
f 520/190 545/657 552/668 519/176
f 514/198 548/669 549/665 515/19
f 518/174 551/667 547/663 513/8
f 520/190 281/179 265/21 516/20
g Group23261
f 522/350 521/340 191/339 201/346
f 523/341 521/340 529/337 531/670
f 524/342 523/341 531/670 532/671
f 525/343 524/342 532/671 533/672
f 526/344 525/343 533/672 534/673
f 522/350 527/349 535/674 530/338
f 527/349 528/354 536/675 535/674
f 528/355 526/344 534/673 536/676
f 530/338 529/337 521/340 522/350
f 531/670 529/337 245/206 242/164
f 532/671 531/670 242/164 260/163
f 533/672 532/671 260/163 263/161
f 534/673 533/672 263/161 279/160
f 530/338 535/674 258/155 255/154
f 535/674 536/675 282/203 258/155
f 536/676 534/673 279/160 282/205
g Group23246
f 537/82 203/364 200/360 538/83
f 539/311 187/356 182/366 540/312
f 538/83 200/360 190/357 541/315
f 541/315 190/357 187/356 539/311
f 542/320 198/365 203/364 537/82
f 540/312 182/366 185/367 543/325
f 544/326 195/327 198/365 542/320
f 544/326 249/188 239/323 543/328
g Group23216
f 545/657 520/190 516/20 546/658
f 547/663 505/653 506/654 548/664
f 549/677 507/655 508/656 546/678
f 550/666 510/659 511/660 551/667
f 552/668 512/661 510/659 550/666
f 545/657 509/29 512/661 552/668
f 548/664 506/654 507/655 549/677
f 551/667 511/660 505/653 547/663

 